<svg xmlns:mydata="http://www.w3.org/2000/svg" mydata:contrastcolor="ffffff" mydata:template="Contrast" mydata:presentation="2.5" mydata:layouttype="undefined" mydata:specialfontid="undefined" mydata:id1="905" mydata:id2="1007" mydata:companyname="asap" mydata:companytagline="" version="1.1" xmlns="http://www.w3.org/2000/svg" xmlns:xlink="http://www.w3.org/1999/xlink" viewBox="0 35 550 400"><g fill="#0057b8" fill-rule="none" stroke="none" stroke-width="1" stroke-linecap="butt" stroke-linejoin="miter" stroke-miterlimit="10" stroke-dasharray="" stroke-dashoffset="0" font-family="none" font-weight="none" font-size="none" text-anchor="none" style="mix-blend-mode: normal"><g data-paper-data="{&quot;isGlobalGroup&quot;:true,&quot;bounds&quot;:{&quot;x&quot;:64.99999999999997,&quot;y&quot;:195.0265229001745,&quot;width&quot;:420,&quot;height&quot;:79.946954199651}}"><g data-paper-data="{&quot;isPrimaryText&quot;:true}" fill-rule="nonzero"><path d="M284.66918,272.11555c1.16595,0.106 2.2259,-0.52998 2.96786,-1.48393c0.52998,-0.63597 0.74197,-1.37794 0.74197,-2.1199c0,-0.31799 -0.106,-0.74197 -0.21199,-1.16595l-23.74291,-66.77694c-0.63597,-1.58993 -2.01391,-2.96786 -3.60383,-2.64988c-11.87146,2.01391 -23.84891,4.02782 -35.72036,6.14772c-1.80192,0.31799 -3.17985,1.80192 -3.17985,3.60383v13.67337c0,1.16595 0.52998,2.1199 1.37794,2.86187c0.74197,0.63597 1.58993,0.84796 2.43789,0.84796h0.52998l2.75587,-0.52998c0.21199,0 0.31799,0.106 0.52998,0.21199c0.106,0.106 0.106,0.31799 0.106,0.52998l-10.8115,35.08439c-0.106,0.42398 -0.21199,0.84796 -0.21199,1.16595c0,0.74197 0.21199,1.48393 0.74197,2.1199c0.74197,0.95396 1.80192,1.37794 2.96786,1.48393l16.74723,1.90791c1.58993,0.21199 3.07386,-1.05995 3.49784,-2.64988l1.69592,-5.82973c0.106,-0.21199 0.21199,-0.42398 0.52998,-0.42398h14.62733c0.31799,0 0.52998,0.21199 0.52998,0.42398l2.75587,9.43357c0.42398,1.58993 1.90791,2.54388 3.60383,2.64988zM249.58479,242.22492c-0.21199,0 -0.31799,0 -0.42398,-0.21199c-0.106,-0.106 -0.106,-0.31799 -0.106,-0.42398l2.43789,-8.6916c0.106,-0.21199 0.31799,-0.42398 0.52998,-0.42398c0.21199,0 0.42398,0.21199 0.52998,0.42398l2.54388,8.6916c0,0.106 0,0.31799 -0.106,0.42398c-0.106,0.21199 -0.21199,0.21199 -0.42398,0.21199z" data-paper-data="{&quot;glyphName&quot;:&quot;A&quot;,&quot;glyphIndex&quot;:0,&quot;firstGlyphOfWord&quot;:true,&quot;word&quot;:1}"></path><path d="M314.34782,266.92179c15.58129,0 33.28247,-2.2259 33.28247,-21.51701c0,-20.98704 -30.84459,-16.21726 -30.84459,-22.47097c0,-4.3458 2.2259,-6.35971 4.76978,-6.35971c3.49784,0 5.61774,2.01391 6.78369,6.04172c0.31799,1.27194 1.58993,1.90791 2.86187,1.90791c0.42398,0 0.84796,0 1.27194,-0.21199l10.06954,-4.13381c1.05995,-0.42398 1.90791,-0.95396 2.33189,-2.01391c0.31799,-0.52998 0.42398,-1.05995 0.42398,-1.58993c0,-0.52998 -0.106,-1.05995 -0.31799,-1.48393c-4.66379,-10.49352 -12.61342,-14.20335 -24.16689,-14.09735c-12.71942,0.106 -26.92277,5.19376 -27.02876,22.04699c-1.58993,20.98704 31.90454,15.47529 31.90454,22.68296c0,3.28585 -1.90791,5.08777 -6.4657,4.76978c-5.82973,-0.42398 -13.99136,-5.08777 -16.53524,-5.72374c-2.64988,0 -3.70983,0.74197 -3.70983,3.70983l-0.63597,14.52133c0,2.54388 1.48393,3.81583 3.70983,3.70983c3.60383,0 7.84364,0.21199 12.29544,0.21199z" data-paper-data="{&quot;glyphName&quot;:&quot;s&quot;,&quot;glyphIndex&quot;:1,&quot;word&quot;:1}"></path><path d="M378.36889,267.76975c5.08777,0 8.58561,-1.05995 11.55347,-4.23981c0.106,-0.21199 0.31799,-0.106 0.52998,-0.106c0.21199,0.106 0.31799,0.31799 0.31799,0.52998v0.52998c0,0.74197 0.21199,1.37794 0.84796,1.90791c0.52998,0.52998 1.16595,0.74197 1.90791,0.74197l21.94099,-1.05995c1.37794,0 2.43789,-1.05995 2.43789,-2.43789l0.95396,-14.94532c0.106,-0.74197 -0.21199,-1.37794 -0.74197,-2.01391c-0.52998,-0.52998 -1.16595,-0.74197 -1.90791,-0.74197h-1.48393c-1.48393,0.106 -2.86187,-1.05995 -2.75587,-2.43789l1.37794,-38.26425c0,-2.01391 -1.69592,-3.70983 -3.70983,-3.70983l-22.89495,0.21199c-17.4892,0.106 -33.91845,13.24939 -33.81245,34.13044c0,15.68728 9.32757,31.90454 25.43883,31.90454zM385.47056,246.46473c-5.72374,0 -8.05563,-4.66379 -8.05563,-9.75155c0,-6.78369 3.92182,-14.41534 9.32757,-14.41534h2.64988c0.84796,0 1.58993,0.63597 1.58993,1.48393v0.106l-2.54388,20.98704c-0.106,0.84796 -0.74197,1.58993 -1.58993,1.58993z" data-paper-data="{&quot;glyphName&quot;:&quot;a&quot;,&quot;glyphIndex&quot;:2,&quot;word&quot;:1}"></path><path d="M434.33432,266.49781l19.07913,-0.84796c1.90791,-0.106 3.81583,-1.58993 3.70983,-3.49784l-0.74197,-13.77937v-0.21199c0,-0.74197 0.63597,-1.48393 1.48393,-1.48393c13.88536,-0.84796 27.13476,-5.61774 27.13476,-21.19903c0,-20.77505 -17.80718,-23.31893 -32.01053,-24.16689c-8.7976,-0.63597 -17.4892,-1.16595 -26.1808,-1.58993c-2.1199,-0.106 -3.28585,1.69592 -3.70983,3.70983l2.01391,14.20335c0.63597,2.86187 1.05995,3.92182 3.70983,3.70983c0.74197,-0.106 1.37794,-0.106 1.90791,-0.106c1.16595,0 1.69592,0.42398 1.48393,2.64988l-1.58993,38.90022c-0.106,2.01391 1.69592,3.70983 3.70983,3.70983zM455.85134,229.39951c-0.31799,0 -0.52998,-0.21199 -0.52998,-0.52998l-0.31799,-5.51175c0,-0.31799 0.21199,-0.52998 0.42398,-0.52998c2.43789,-0.21199 4.4518,0.74197 4.4518,3.07386c0.106,2.64988 -1.90791,3.39184 -4.02782,3.49784z" data-paper-data="{&quot;glyphName&quot;:&quot;p&quot;,&quot;glyphIndex&quot;:3,&quot;lastGlyphOfWord&quot;:true,&quot;word&quot;:1}"></path></g><g data-paper-data="{&quot;isIcon&quot;:&quot;true&quot;,&quot;iconType&quot;:&quot;icon&quot;,&quot;rawIconId&quot;:&quot;429781&quot;,&quot;selectedEffects&quot;:{&quot;container&quot;:&quot;&quot;,&quot;transformation&quot;:&quot;&quot;,&quot;pattern&quot;:&quot;&quot;},&quot;combineTerms&quot;:&quot;수달&quot;,&quot;isDetailed&quot;:false,&quot;fillRule&quot;:&quot;evenodd&quot;,&quot;bounds&quot;:{&quot;x&quot;:64.99999999999997,&quot;y&quot;:195.0265229001745,&quot;width&quot;:106.76535596458649,&quot;height&quot;:79.946954199651},&quot;iconStyle&quot;:&quot;standalone&quot;,&quot;suitableAsStandaloneIcon&quot;:true}" fill-rule="evenodd"><path d="M171.68835,229.19846c-2.16632,-2.47365 -5.1422,-3.20325 -6.39526,-3.40814c-0.00375,-0.40228 -0.02624,-0.81456 -0.07746,-1.24058c-0.01249,-0.10495 -0.03748,-0.20489 -0.05747,-0.30733c0.94448,-0.32232 3.61553,-0.94074 5.6844,1.42422c0.06372,0.07121 0.14867,0.10744 0.23612,0.10744c0.07246,0 0.14617,-0.02624 0.20614,-0.07746c0.12868,-0.11369 0.14242,-0.31108 0.02749,-0.44101c-2.24627,-2.56735 -5.17967,-1.97393 -6.30031,-1.61787c-0.21488,-0.70461 -0.57344,-1.37175 -1.04693,-2.01015c1.17936,-0.68088 4.03905,-1.95268 6.00173,0.29109c0.06247,0.07121 0.14742,0.10744 0.23487,0.10744c0.07246,0 0.14617,-0.02624 0.20614,-0.07746c0.12993,-0.11369 0.14242,-0.31108 0.02874,-0.44101c-2.27876,-2.60233 -5.5957,-1.09565 -6.85876,-0.3698c-1.84024,-2.16007 -4.96854,-4.00782 -8.22176,-5.92552c-2.46741,-1.45421 -5.01726,-2.95714 -6.91248,-4.585c-13.41518,-11.53121 -26.86285,-16.71838 -39.98319,-15.40035c-16.64342,1.66784 -26.93031,13.35772 -29.6863,16.90078c-15.57775,20.02907 -14.18851,43.75113 -13.26651,59.44632l0.15991,2.80222c0.01624,0.33232 0.29359,0.59718 0.62341,0.59718h0.03498c0.34356,0 0.60717,-0.32108 0.58843,-0.66464l-0.15991,-2.81097c-0.9095,-15.50904 -2.28375,-38.9475 13.00541,-58.60303c2.67854,-3.44437 12.67559,-14.80692 28.82303,-16.42354c12.76804,-1.2743 25.90087,3.80293 39.0462,15.10427c1.97892,1.70032 4.57875,3.23199 7.09488,4.71368c4.36012,2.56985 8.87016,5.2284 9.25121,8.41041c0.57469,4.76615 -2.12759,7.56462 -4.97853,8.71524c0.44226,-2.08886 0.30233,-4.71743 -0.57219,-8.05186c4.0278,-1.62287 3.06707,-3.61178 0.78332,-5.37332c-2.15857,-1.66372 -3.62727,-1.45533 -5.90515,-1.13213c-0.37854,0.05372 -0.77957,0.11069 -1.20972,0.16266c-3.86539,0.46599 -6.01422,2.21504 -5.06599,4.95855c0.96947,2.80222 4.31764,3.59679 10.02329,1.86898c0.07121,-0.02124 0.12868,-0.04373 0.19614,-0.06497c2.61857,10.08575 -1.96518,12.68808 -8.7115,15.18047c-3.73921,1.37925 -9.09504,1.26181 -13.16407,0.87827c4.86735,-5.30961 9.43485,-9.10503 9.52106,-9.17625c0.13118,-0.10869 0.15117,-0.30609 0.04123,-0.43976c-0.10869,-0.13243 -0.30358,-0.15242 -0.44101,-0.04123c-0.08745,0.07246 -4.87234,4.05029 -9.8921,9.57853c-0.94698,-0.10119 -1.79902,-0.21113 -2.52862,-0.31608c5.953,-5.77935 11.45625,-9.94333 11.55994,-10.02204c0.13617,-0.1037 0.16616,-0.29859 0.06247,-0.43726c-0.10495,-0.13617 -0.29983,-0.16491 -0.43976,-0.06122c-0.10619,0.07996 -5.83932,4.41884 -11.95473,10.40682c-1.03944,-0.16241 -1.69283,-0.28859 -1.72031,-0.29484c-0.34356,-0.07246 -0.66713,0.15117 -0.73585,0.48973c-0.06996,0.33856 0.14867,0.66713 0.48973,0.73585c0.07121,0.01499 0.38354,0.07621 0.86827,0.16116c-4.9473,4.97229 -9.93958,10.9128 -12.24457,16.46852c-0.06622,0.15991 0.00874,0.34106 0.16866,0.40728c0.03873,0.01749 0.07871,0.02499 0.11993,0.02499c0.12243,0 0.23862,-0.07246 0.28859,-0.1924c2.31874,-5.5907 7.4172,-11.59493 12.41573,-16.57971c0.70087,0.11369 1.59413,0.24362 2.62107,0.36855c-3.97159,4.52503 -7.89819,9.91584 -9.58727,15.02306c-0.05372,0.16366 0.03498,0.33981 0.19989,0.39354c0.03123,0.01124 0.06372,0.01624 0.09744,0.01624c0.12993,0 0.25361,-0.08121 0.29609,-0.21488c1.69783,-5.1447 5.72313,-10.59672 9.74469,-15.133c1.78528,0.19489 3.88788,0.35231 6.05045,0.35231c0.22738,0 0.456,-0.01499 0.68463,-0.01874c-0.78582,2.21504 -2.73726,8.30172 -2.86344,14.34593c-0.14867,7.26979 3.04084,16.46977 3.17577,16.85706c0.0912,0.25736 0.33232,0.41852 0.59093,0.41852c0.06871,0 0.13617,-0.01124 0.20614,-0.03498c0.32607,-0.11369 0.49723,-0.46975 0.38354,-0.79582c-0.03248,-0.09245 -3.25198,-9.37739 -3.1058,-16.4198c0.12993,-6.27657 2.36996,-12.80177 2.95714,-14.40839c2.33373,-0.11869 4.63372,-0.45475 6.56517,-1.16687c4.32764,-1.59788 8.08184,-3.4019 9.58228,-7.2448c2.11759,-0.6284 4.129,-1.99016 5.39456,-4.02905c0.90575,0.54845 2.76224,1.96518 3.45686,4.6737c0.03748,0.13992 0.16366,0.23487 0.30358,0.23487c0.02624,0 0.05122,-0.00375 0.07871,-0.00999c0.16741,-0.04248 0.26736,-0.21238 0.22488,-0.37979c-0.76084,-2.96713 -2.76099,-4.48006 -3.75545,-5.06974c0.20614,-0.39354 0.38479,-0.80831 0.53471,-1.24557c1.08066,0.21113 3.57305,1.01445 5.13969,4.0378c0.05497,0.10619 0.16491,0.16866 0.27735,0.16866c0.04872,0 0.09744,-0.01124 0.14367,-0.03498c0.15242,-0.07996 0.21238,-0.26736 0.13118,-0.42102c-1.6591,-3.20825 -4.25893,-4.10401 -5.4995,-4.35388c0.16866,-0.63591 0.26861,-1.31678 0.30358,-2.03389c1.21934,0.21738 3.96909,0.93824 5.93426,3.18326c0.06247,0.07121 0.14742,0.10744 0.23487,0.10744c0.07246,0 0.14617,-0.02624 0.20614,-0.07746c0.13118,-0.11494 0.14492,-0.31358 0.03123,-0.44351zM129.45638,218.588c0,-1.96393 -2.02764,-3.55681 -4.52753,-3.55681c-2.49989,0 -4.52753,1.59288 -4.52753,3.55681c0,1.96518 2.02764,3.55806 4.52753,3.55806c2.49989,0 4.52753,-1.59413 4.52753,-3.55806zM123.12484,219.2339c-1.62661,-0.68962 -1.06692,-3.6655 1.80401,-3.1258c4.03905,0.75709 4.19146,3.77294 4.19146,3.77294c0,0 -0.98946,-1.88897 -2.3737,-1.89772c-0.66227,-0.00412 -0.96323,0.38616 -1.26256,0.77408c-0.43126,0.55919 -0.85903,1.11377 -2.35922,0.47649zM139.9694,227.27326c-0.08495,-0.15117 -0.2786,-0.20364 -0.42727,-0.11869c-1.22308,0.69212 -30.07609,17.02322 -35.86418,23.4547c-0.11494,0.12868 -0.10495,0.32607 0.02374,0.44101c0.05996,0.05372 0.13492,0.07996 0.20864,0.07996c0.0862,0 0.16991,-0.03498 0.23237,-0.1037c5.72063,-6.35528 35.40943,-23.15862 35.70802,-23.32727c0.14992,-0.08495 0.20239,-0.2761 0.11869,-0.42602zM141.21372,228.51508c0.08745,0.14742 0.04123,0.33856 -0.10495,0.42852c-0.30108,0.1824 -30.09483,18.34749 -34.53366,30.71075c-0.04497,0.12743 -0.16491,0.20614 -0.29359,0.20614c-0.03498,0 -0.07121,-0.00625 -0.10495,-0.01874c-0.16241,-0.05872 -0.24736,-0.23612 -0.18865,-0.39853c1.89772,-5.28961 8.33545,-12.12089 19.13331,-20.31017c8.02187,-6.07919 15.5865,-10.67793 15.66146,-10.72415c0.14867,-0.08745 0.34231,-0.04123 0.43102,0.10619zM142.37684,230.18042c0.13867,-0.09994 0.1749,-0.29484 0.07496,-0.43601c-0.10119,-0.13992 -0.29609,-0.17365 -0.43601,-0.07371c-0.24362,0.1724 -24.51413,17.46798 -29.98365,29.90744c-0.06996,0.15741 0.0025,0.34106 0.15991,0.41103c0.04123,0.01999 0.0837,0.02624 0.12618,0.02624c0.11993,0 0.23362,-0.06996 0.28609,-0.18615c5.39956,-12.28205 29.53014,-29.47642 29.77251,-29.64882z" data-paper-data="{&quot;isPathIcon&quot;:true}"></path></g></g></g><g class="watermark-group" style="opacity:0.040000010281801224"><path class="watermark-path" d="M129.52,370.3a11.88,11.88,0,0,1,2.58,5.58,12,12,0,0,1,.11,3,11.81,11.81,0,0,1-.64,2.93,12.34,12.34,0,0,1-1.41,2.72,11.65,11.65,0,0,1-2.13,2.32,12,12,0,0,1-2.64,1.69,13,13,0,0,1-2.91.9,12.47,12.47,0,0,1-3,.12,12.17,12.17,0,0,1-2.93-.64,11.8,11.8,0,0,1-2.72-1.38,12.19,12.19,0,0,1-4-4.79,11.85,11.85,0,0,1-.89-2.92,12.14,12.14,0,0,1-.13-3,11.54,11.54,0,0,1,.64-2.92,11.67,11.67,0,0,1,3.5-5,11.44,11.44,0,0,1,2.67-1.69,11.64,11.64,0,0,1,2.92-.91,10.71,10.71,0,0,1,3-.12,11.68,11.68,0,0,1,5.66,2,11.7,11.7,0,0,1,2.34,2.12m-1.4,8.76a13,13,0,0,1-1.22,2.32,9.68,9.68,0,0,1-1.81,2,7.44,7.44,0,0,1-2.38,1.37,6.17,6.17,0,0,1-5.11-.46,8.73,8.73,0,0,1-3.85-4.58,6.69,6.69,0,0,1-.34-2.66,6.09,6.09,0,0,1,.77-2.47,7.15,7.15,0,0,1,1.75-2.11,9.58,9.58,0,0,1,1.09-.81,8.23,8.23,0,0,1,1.12-.63,8.14,8.14,0,0,1,1.19-.46,12.71,12.71,0,0,1,1.32-.37l2,2.38a12.83,12.83,0,0,0-1.56.17,7.86,7.86,0,0,0-1.23.32,4.5,4.5,0,0,0-1,.49,6.41,6.41,0,0,0-.93.67,4.49,4.49,0,0,0-1.15,1.39,3.87,3.87,0,0,0-.45,1.58,4.12,4.12,0,0,0,.26,1.63,6.11,6.11,0,0,0,2.36,2.82,4.43,4.43,0,0,0,1.57.53,3.91,3.91,0,0,0,1.62-.17,4.71,4.71,0,0,0,1.57-.89,10.5,10.5,0,0,0,.83-.79,5.71,5.71,0,0,0,.65-.93,10.13,10.13,0,0,0,.54-1.14,12.24,12.24,0,0,0,.44-1.49l2,2.33m-14.46,4.55a8.86,8.86,0,0,0,2.78,2.22,9,9,0,0,0,3.29.94,9.15,9.15,0,0,0,3.39-.37,8.68,8.68,0,0,0,3.11-1.69,8.8,8.8,0,0,0,2.22-2.78,9.15,9.15,0,0,0,1-3.29,8.95,8.95,0,0,0-4.83-8.76,9,9,0,0,0-6.73-.57,9,9,0,0,0-5.33,4.47,8.94,8.94,0,0,0-.57,6.71,8.76,8.76,0,0,0,1.7,3.12"></path><path class="watermark-path" d="M147,349c-.48.12-1.09.31-1.82.57a24.37,24.37,0,0,0-2.4,1A28.35,28.35,0,0,0,140,352a20.72,20.72,0,0,0-2.71,1.94c-.7.59-1.28,1.11-1.74,1.57a15.07,15.07,0,0,0-1.1,1.22,4.09,4.09,0,0,0-.59.92,2.32,2.32,0,0,0-.22.64,1.16,1.16,0,0,0,0,.47,1.83,1.83,0,0,0,.18.29,1.15,1.15,0,0,0,1,.37,5.54,5.54,0,0,0,1.51-.38q.87-.35,1.95-.9l2.26-1.18q1.2-.65,2.49-1.29c.87-.44,1.73-.83,2.59-1.17a18.94,18.94,0,0,1,2.6-.81,9.27,9.27,0,0,1,2.46-.29,6.25,6.25,0,0,1,2.24.49,5.12,5.12,0,0,1,1.89,1.47,6.35,6.35,0,0,1,1.41,2.61,6,6,0,0,1,.09,2.6,8.3,8.3,0,0,1-.9,2.52,17.79,17.79,0,0,1-1.62,2.37,23.92,23.92,0,0,1-2,2.15c-.72.67-1.41,1.29-2.09,1.87a33.79,33.79,0,0,1-5.33,3.7,32.29,32.29,0,0,1-4.91,2.28l-3.61-4.3a21.38,21.38,0,0,0,5.39-1.87,27.2,27.2,0,0,0,5.4-3.56,21.59,21.59,0,0,0,2.38-2.27,8.67,8.67,0,0,0,1.18-1.7,2.32,2.32,0,0,0,.27-1.19,1.34,1.34,0,0,0-.28-.74,1.21,1.21,0,0,0-1-.42,4.32,4.32,0,0,0-1.55.34,15.77,15.77,0,0,0-2,.88c-.72.37-1.48.77-2.27,1.21l-2.45,1.3c-.85.45-1.7.85-2.56,1.21a22.37,22.37,0,0,1-2.54.86,10,10,0,0,1-2.43.32,5.76,5.76,0,0,1-2.2-.45,5,5,0,0,1-1.89-1.45,6.12,6.12,0,0,1-1.31-2.41,6,6,0,0,1-.1-2.41,8.28,8.28,0,0,1,.81-2.38,14.06,14.06,0,0,1,1.49-2.24,22.37,22.37,0,0,1,1.85-2.05q1-1,2-1.77c.7-.59,1.44-1.15,2.23-1.7s1.62-1.06,2.44-1.53,1.63-.91,2.43-1.3,1.58-.75,2.3-1L147,349"></path><path class="watermark-path" d="M186.76,337.57l-10.6-12.63,3.92,18.24-4.66,3.91-17.27-7,10.6,12.63-4.86,4.07-15.09-18,6.59-5.54,18.69,7.52-4.15-19.71,6.57-5.52,15.09,18-4.83,4.05"></path><path class="watermark-path" d="M208.84,313.24l-10,8.42,1.16,4.82L194.56,331l-5.68-25.89,5.42-4.55,24.51,10.09-5.42,4.55-4.55-2m-11.23,3.45,6.57-5.52-8.83-3.87,2.26,9.39"></path><path class="watermark-path" d="M227.49,281.38c-.48.12-1.09.31-1.82.57a24.37,24.37,0,0,0-2.4,1,26.11,26.11,0,0,0-2.7,1.47,20.72,20.72,0,0,0-2.71,1.94c-.7.59-1.28,1.11-1.74,1.57a13.39,13.39,0,0,0-1.1,1.22,4.29,4.29,0,0,0-.59.91,2.48,2.48,0,0,0-.22.65,1.16,1.16,0,0,0,0,.47,1.83,1.83,0,0,0,.18.29,1.15,1.15,0,0,0,1,.37,5.54,5.54,0,0,0,1.51-.38q.87-.34,2-.9l2.26-1.18q1.2-.64,2.49-1.29c.87-.44,1.73-.83,2.59-1.17a18.94,18.94,0,0,1,2.6-.81,9.27,9.27,0,0,1,2.46-.29,6.08,6.08,0,0,1,2.24.49,5.09,5.09,0,0,1,1.89,1.46,6.47,6.47,0,0,1,1.41,2.61,6.07,6.07,0,0,1,.09,2.61,8.3,8.3,0,0,1-.9,2.52,16.32,16.32,0,0,1-1.63,2.36,21.41,21.41,0,0,1-2,2.16c-.72.67-1.41,1.29-2.1,1.86a33.36,33.36,0,0,1-5.32,3.71,31.92,31.92,0,0,1-4.92,2.28l-3.6-4.3a21.38,21.38,0,0,0,5.39-1.87,27.2,27.2,0,0,0,5.4-3.56,21.59,21.59,0,0,0,2.38-2.27,8.67,8.67,0,0,0,1.18-1.7A2.32,2.32,0,0,0,231,293a1.34,1.34,0,0,0-.28-.74,1.21,1.21,0,0,0-1-.42,4.32,4.32,0,0,0-1.55.34,16.54,16.54,0,0,0-2,.88c-.71.37-1.47.77-2.26,1.21l-2.46,1.3c-.84.44-1.7.85-2.55,1.21a24.53,24.53,0,0,1-2.54.86A10,10,0,0,1,214,298a5.76,5.76,0,0,1-2.2-.45,5,5,0,0,1-1.89-1.45,6.12,6.12,0,0,1-1.31-2.41,5.78,5.78,0,0,1-.1-2.41,8,8,0,0,1,.81-2.38,14.61,14.61,0,0,1,1.49-2.25,22.26,22.26,0,0,1,1.85-2q1-1,2-1.77c.7-.59,1.44-1.15,2.23-1.7s1.62-1.06,2.44-1.53,1.63-.91,2.43-1.31,1.58-.74,2.3-1l3.5,4.16"></path><path class="watermark-path" d="M261.64,274.74l-6.29-7.5L243,277.61l6.3,7.5-4.86,4.07-15.09-18,4.85-4.08,5.49,6.55L252,263.3l-5.49-6.55,4.86-4.07,15.09,18-4.86,4.08"></path><path class="watermark-path" d="M272.18,265.9l-15.09-18,4.86-4.08,15.09,18-4.86,4.08"></path><path class="watermark-path" d="M299.65,242.85l-22.51-2.18L287.51,253l-4.85,4.08-15.1-18,5.28-4.43,22.56,2.22L285,224.5l4.83-4.06,15.09,18-5.26,4.42"></path><path class="watermark-path" d="M306.68,205.52a31.88,31.88,0,0,1,5.29-3.66,34.48,34.48,0,0,1,5.14-2.35l3.69,4.39a20.77,20.77,0,0,0-2.37.61,20.47,20.47,0,0,0-2.61,1,25.12,25.12,0,0,0-2.76,1.49,23.9,23.9,0,0,0-2.8,2,20.42,20.42,0,0,0-2.8,2.77,12.77,12.77,0,0,0-1.64,2.52,7,7,0,0,0-.68,2.24,6,6,0,0,0,.66,3.64,8.16,8.16,0,0,0,.94,1.38,9.12,9.12,0,0,0,1.08,1.07,6.39,6.39,0,0,0,1.47.91,6.73,6.73,0,0,0,1.88.48,6.54,6.54,0,0,0,2.28-.18,11.67,11.67,0,0,0,2.74-1.07,19.38,19.38,0,0,0,3.18-2.22c.57-.48,1.06-.92,1.46-1.31a14.57,14.57,0,0,0,1-1.13,11.46,11.46,0,0,0,.81-1.05l.74-1.09-1.82-2.17-5.45,4.57-3.31-3.94,10.31-8.65,7.71,9.19a29,29,0,0,1-1.67,2.43q-1,1.26-2.1,2.52c-.74.84-1.5,1.65-2.3,2.44s-1.58,1.5-2.33,2.14a31,31,0,0,1-3.59,2.61,22.55,22.55,0,0,1-3.64,1.83,15.64,15.64,0,0,1-3.63.89,10.72,10.72,0,0,1-3.49-.15,10.45,10.45,0,0,1-3.28-1.33,12.54,12.54,0,0,1-3-2.67,12,12,0,0,1-2.08-3.44,10.45,10.45,0,0,1-.71-3.5,11.14,11.14,0,0,1,.51-3.51,15.72,15.72,0,0,1,1.56-3.43,21.62,21.62,0,0,1,2.42-3.28,30.3,30.3,0,0,1,3.15-3"></path><path class="watermark-path" d="M336.91,211.59l-15.1-18,4.86-4.08,11.79,14,13.13-11,3.31,3.94-18,15.1"></path><path class="watermark-path" d="M374.54,164.71a12.28,12.28,0,0,1,2.59,4.81,10.44,10.44,0,0,1,0,5,14.62,14.62,0,0,1-2.33,5,25.55,25.55,0,0,1-4.56,4.85,26.07,26.07,0,0,1-5.6,3.67,14.79,14.79,0,0,1-5.38,1.43,10.43,10.43,0,0,1-4.94-.89,13.24,13.24,0,0,1-6.87-8.18,10.48,10.48,0,0,1,0-5,14.51,14.51,0,0,1,2.36-5,25.23,25.23,0,0,1,4.57-4.89,25,25,0,0,1,5.59-3.64,14.45,14.45,0,0,1,5.35-1.43,10.31,10.31,0,0,1,4.93.92,12.22,12.22,0,0,1,4.28,3.38m-4.91,4.11a8.36,8.36,0,0,0-2-1.72,5.5,5.5,0,0,0-2.65-.85,7.72,7.72,0,0,0-3.32.57,14.49,14.49,0,0,0-4,2.52,16.72,16.72,0,0,0-2.38,2.4,10.15,10.15,0,0,0-1.39,2.24,6.71,6.71,0,0,0-.56,2.1,5.69,5.69,0,0,0,.1,1.9,6.21,6.21,0,0,0,.61,1.69,9.85,9.85,0,0,0,1,1.44,10.48,10.48,0,0,0,1.26,1.23,6.67,6.67,0,0,0,1.57.92,6.1,6.1,0,0,0,1.85.41,6.8,6.8,0,0,0,2.15-.2,11.06,11.06,0,0,0,2.45-1,17.67,17.67,0,0,0,2.77-1.94,14.39,14.39,0,0,0,3.18-3.52,7.74,7.74,0,0,0,1.14-3.17,5.54,5.54,0,0,0-.37-2.74,8.52,8.52,0,0,0-1.36-2.3"></path><path class="watermark-path" d="M382.66,141.76A32.3,32.3,0,0,1,388,138.1a34.12,34.12,0,0,1,5.15-2.35l3.69,4.4a19.62,19.62,0,0,0-2.37.6,22.08,22.08,0,0,0-2.61,1,26,26,0,0,0-2.77,1.49,23.9,23.9,0,0,0-2.8,2,21,21,0,0,0-2.8,2.78,13.19,13.19,0,0,0-1.64,2.51,7.29,7.29,0,0,0-.68,2.24,6.36,6.36,0,0,0,.06,2,5.8,5.8,0,0,0,.61,1.68,8.12,8.12,0,0,0,.93,1.38,9.16,9.16,0,0,0,1.08,1.08,6.56,6.56,0,0,0,1.48.9,6,6,0,0,0,1.87.48,6.76,6.76,0,0,0,2.28-.17,12,12,0,0,0,2.74-1.08,18.57,18.57,0,0,0,3.18-2.22c.58-.48,1.06-.92,1.46-1.31s.75-.77,1.05-1.12.57-.72.81-1.06l.73-1.09-1.82-2.17-5.45,4.57-3.3-3.94,10.3-8.65,7.71,9.19a29,29,0,0,1-1.67,2.43q-1,1.26-2.1,2.52c-.73.84-1.5,1.66-2.3,2.44s-1.57,1.5-2.33,2.14a31,31,0,0,1-3.59,2.61,22.15,22.15,0,0,1-3.64,1.83,15.56,15.56,0,0,1-3.62.89,11,11,0,0,1-3.49-.14,10.84,10.84,0,0,1-3.28-1.33,12.82,12.82,0,0,1-3-2.68,12.12,12.12,0,0,1-2.08-3.43A10.71,10.71,0,0,1,375,155a11.18,11.18,0,0,1,.51-3.51,15.51,15.51,0,0,1,1.57-3.43,21.44,21.44,0,0,1,2.42-3.28,30.19,30.19,0,0,1,3.14-3"></path><path class="watermark-path" d="M428.63,119.31a12.26,12.26,0,0,1,2.59,4.82,10.44,10.44,0,0,1,0,5,14.53,14.53,0,0,1-2.34,5,25.29,25.29,0,0,1-4.56,4.86,26,26,0,0,1-5.59,3.67,14.84,14.84,0,0,1-5.38,1.43,10.61,10.61,0,0,1-4.95-.89,12.15,12.15,0,0,1-4.3-3.37,12,12,0,0,1-2.56-4.81,10.48,10.48,0,0,1,0-5,14.39,14.39,0,0,1,2.35-5,27.89,27.89,0,0,1,10.16-8.53,14.49,14.49,0,0,1,5.36-1.43,10.27,10.27,0,0,1,4.92.92,12.21,12.21,0,0,1,4.28,3.37m-4.91,4.12a8.17,8.17,0,0,0-2-1.72,5.58,5.58,0,0,0-2.65-.86,7.86,7.86,0,0,0-3.31.58,14.49,14.49,0,0,0-4,2.52,16.21,16.21,0,0,0-2.38,2.4,9.85,9.85,0,0,0-1.4,2.24,7,7,0,0,0-.56,2.1,6,6,0,0,0,.1,1.9,6.23,6.23,0,0,0,.62,1.69,8.49,8.49,0,0,0,1,1.44,9.18,9.18,0,0,0,1.26,1.23,6.67,6.67,0,0,0,1.57.92,6,6,0,0,0,1.84.41,6.86,6.86,0,0,0,2.16-.2,11.26,11.26,0,0,0,2.45-1,17.62,17.62,0,0,0,2.76-1.94,14.67,14.67,0,0,0,3.19-3.52,7.71,7.71,0,0,0,1.13-3.17,5.53,5.53,0,0,0-.36-2.74,8.55,8.55,0,0,0-1.37-2.3"></path></g></svg>