<svg xmlns:mydata="http://www.w3.org/2000/svg" mydata:contrastcolor="ffffff" mydata:template="Default" mydata:presentation="2.5" mydata:layouttype="undefined" mydata:specialfontid="undefined" mydata:id1="794" mydata:id2="541" mydata:companyname="asap" mydata:companytagline="" version="1.1" xmlns="http://www.w3.org/2000/svg" xmlns:xlink="http://www.w3.org/1999/xlink" viewBox="0 35 550 400"><g fill="#6d2077" fill-rule="nonzero" stroke="none" stroke-width="1" stroke-linecap="butt" stroke-linejoin="miter" stroke-miterlimit="10" stroke-dasharray="" stroke-dashoffset="0" font-family="none" font-weight="none" font-size="none" text-anchor="none" style="mix-blend-mode: normal"><g data-paper-data="{&quot;isGlobalGroup&quot;:true,&quot;bounds&quot;:{&quot;x&quot;:70.76637758951179,&quot;y&quot;:147.8436829203192,&quot;width&quot;:408.46724482097625,&quot;height&quot;:174.31263415936158}}"><g data-paper-data="{&quot;isPrimaryText&quot;:true}"><path d="M166.94387,266.99942c-0.42105,-3.99993 -1.68418,-25.2627 -2.10523,-32.42047c0,-1.8947 -0.21052,-5.26306 -0.42105,-7.36829c0,-2.31575 -0.42105,-8.63142 -0.63157,-14.52605c-0.84209,-17.05232 -1.05261,-17.47337 -1.68418,-17.68389c-0.84209,-0.21052 -1.05261,-0.42105 -0.21052,-1.05261c0.63157,-0.42105 0.63157,-0.84209 0.21052,-3.99993c-0.21052,-1.8947 -0.42105,-4.21045 -0.63157,-5.05254c-1.26314,-10.94717 -4.21045,-24.42061 -13.47344,-31.36785c-2.31575,-2.10523 -7.36829,-4.6315 -9.26299,-4.84202c-0.63157,0 -1.47366,-0.21052 -1.68418,-0.42105c-0.42105,-0.21052 -1.68418,-0.42105 -3.36836,-0.42105c-12.42083,0 -21.05225,8.4209 -28.42054,17.47337c-3.78941,4.6315 -4.42097,5.47359 -3.36836,5.68411c0.21052,0.21052 0,0.21052 -0.63157,0.21052c-0.63157,0 -1.47366,0.84209 -3.57888,3.78941c-8.4209,11.78926 -13.68396,21.89434 -18.31546,35.78883c-1.8947,5.26306 -5.05254,16.8418 -5.47359,19.78912c0,0.63157 -0.42105,2.10523 -0.63157,2.94732c-1.8947,8.4209 -3.36836,34.31517 -1.8947,35.15726c0.42105,0.21052 0.42105,0.42105 0.21052,0.42105c-0.42105,0 -0.42105,1.05261 -0.42105,3.99993c0.21052,4.21045 0.63157,5.68411 1.68418,6.10515c0.42105,0 0.84209,0.21052 0.63157,0.63157c0,0.42105 1.47366,2.73679 2.10523,3.15784c0.21052,0.21052 0.63157,0.21052 0.84209,0.21052c-0.42105,0.63157 5.47359,4.6315 6.94724,4.6315c0.42105,0 0.84209,0.21052 0.84209,0.63157c0.21052,0.21052 1.05261,0.42105 1.8947,0.42105c0.84209,0 1.8947,-0.21052 2.10523,-0.42105c0.21052,-0.21052 0.63157,-0.42105 1.05261,-0.42105c2.10523,-0.21052 8.4209,-2.94732 11.99978,-5.05254c3.78941,-2.31575 4.6315,-3.57888 4.6315,-7.78933c0,-1.8947 -0.42105,-3.99993 -0.84209,-5.68411c-0.42105,-1.47366 -0.63157,-3.57888 -0.63157,-4.42097l0.21052,-1.68418l3.57888,-1.26314c11.15769,-3.99993 19.57859,-6.94724 19.99964,-6.94724c0.21052,0 0.63157,1.8947 0.84209,5.05254c0.84209,8.4209 2.31575,25.05218 14.10501,25.05218c4.21045,0 10.10508,-0.84209 13.26292,-3.36836c0.63157,-0.63157 1.47366,-1.26314 1.8947,-1.47366c0.42105,-0.21052 0.84209,-0.42105 0.84209,-0.84209c0,-0.21052 0.42105,-0.42105 1.05261,-0.63157c0.63157,-0.21052 2.10523,-1.26314 3.57888,-2.73679c3.36836,-2.94732 3.57888,-3.78941 3.15784,-9.26299zM74.94553,277.73607c-0.42105,0 -0.42105,-0.21052 -0.42105,-0.63157c0.21052,-0.21052 0.42105,-0.42105 0.42105,-0.42105c0,0 0.21052,0.21052 0.42105,0.42105c0,0.42105 0,0.63157 -0.42105,0.63157zM74.73501,272.26248c-0.63157,0.21052 -0.84209,0.21052 -1.26314,0.21052c-0.63157,0 -0.63157,-0.42105 -0.21052,-1.05261c0.21052,-0.42105 0.42105,-0.42105 0.63157,-0.42105c0.21052,0 0.42105,0 0.63157,0.21052c1.26314,0.42105 1.26314,0.84209 0.21052,1.05261zM75.5771,239.84202c-0.21052,0 -0.42105,-0.21052 -0.63157,-0.42105c-0.21052,-0.21052 0,-0.21052 0.42105,-0.21052c0.21052,0 0.42105,0 0.42105,0.21052c0,0.21052 0,0.42105 -0.21052,0.42105zM81.05068,278.78868c-0.42105,0 -0.63157,0 -0.63157,-0.21052c0,-0.21052 0.21052,-0.42105 0.21052,-0.42105c0.21052,0 0.63157,0.21052 0.63157,0.42105c0.21052,0.21052 0,0.21052 -0.21052,0.21052zM82.31382,285.94645c-0.21052,0 -0.42105,-0.21052 -0.42105,-0.42105c0,-0.21052 0.21052,-0.21052 0.42105,-0.21052c0.21052,0 0.21052,0 0.21052,0.21052c0,0.21052 0,0.42105 -0.21052,0.42105zM91.15576,283.20965c-0.21052,-0.42105 0,-0.63157 0.21052,-0.63157c0.42105,0 0.63157,0.21052 0.63157,0.42105c0,0.63157 -0.63157,0.84209 -0.84209,0.21052zM103.15555,276.26241c-0.21052,0 -0.21052,-0.21052 -0.21052,-0.42105c0.42105,0 0.63157,0.21052 0.63157,0.21052c0,0.21052 -0.21052,0.21052 -0.42105,0.21052zM104.41868,272.68353c0,0.21052 -0.21052,0.63157 -0.21052,0.63157c-0.21052,0 -0.21052,-0.42105 -0.21052,-0.63157c0,-0.21052 0.21052,-0.63157 0.42105,-0.63157c0.21052,0 0.21052,0.42105 0,0.63157zM123.99728,153.10675c0.42105,0 0.63157,0 0.63157,0.21052c0,0.21052 -0.21052,0.42105 -0.63157,0.42105c-0.21052,0 -0.42105,-0.21052 -0.42105,-0.21052c0,0 0.21052,-0.21052 0.42105,-0.42105zM121.89205,232.05268c-0.21052,0.42105 -0.42105,0.63157 -0.63157,0.63157c-0.21052,0 -0.42105,-0.42105 -0.42105,-1.05261c0,-0.84209 0.21052,-1.05261 0.84209,-1.05261c0.84209,0 0.84209,0.42105 0.21052,1.47366zM119.99735,222.36865c-7.99986,2.73679 -7.78933,2.52627 -7.78933,2.10523c0,-2.52627 9.89456,-22.94695 11.99978,-24.21009c0.42105,-0.21052 0.63157,2.10523 1.05261,10.73665c0.21052,3.78941 0.63157,7.57881 0.63157,7.99986l0.21052,1.26314zM135.15497,276.47293c0,0.42105 -0.21052,0.63157 -0.42105,0.63157c-0.21052,0 -0.42105,-0.42105 -0.42105,-0.84209c0,-0.42105 0.21052,-0.84209 0.42105,-0.84209c0.42105,0 0.63157,0.42105 0.42105,1.05261zM136.20758,260.68375c-0.21052,0.21052 -0.63157,0 -0.84209,-0.21052c-0.21052,-0.42105 -0.42105,-0.42105 -0.63157,0c-0.21052,0.21052 -0.63157,0.42105 -0.84209,0.42105c-0.42105,0 -0.63157,-0.84209 -0.21052,-1.8947c0.21052,-0.42105 0.42105,-0.84209 0.63157,-0.84209c0.21052,0 0.63157,0.42105 1.26314,1.26314c0.84209,0.63157 0.84209,1.05261 0.63157,1.26314zM139.36542,212.05305c-0.21052,0 -0.42105,-0.21052 -0.42105,-0.42105c0,0 0.21052,-0.21052 0.42105,-0.21052c0.42105,0 0.63157,0.21052 0.63157,0.21052c0,0.21052 -0.21052,0.42105 -0.63157,0.42105zM141.0496,265.10472c-0.21052,0 -0.42105,-0.42105 -0.42105,-0.84209c0,-0.42105 0.21052,-0.84209 0.21052,-0.84209c0,0 0.21052,0.42105 0.42105,0.84209c0,0.42105 0,0.84209 -0.21052,0.84209zM144.20744,250.78919c0,0.21052 -0.42105,0.42105 -0.63157,0.42105c-0.21052,0 -0.21052,-0.21052 0,-0.42105c0,-0.21052 0.42105,-0.42105 0.63157,-0.42105c0.21052,0 0.21052,0.21052 0,0.42105zM148.20736,274.99928c-0.21052,0.63157 -1.05261,-0.21052 -1.05261,-1.05261c0,-0.42105 0,-0.42105 0.63157,0.21052c0.21052,0.21052 0.42105,0.63157 0.42105,0.84209zM149.89154,269.10465c-0.42105,0.42105 -0.63157,0.21052 -0.63157,-0.21052c-0.21052,-0.21052 -0.42105,-0.42105 -0.84209,-0.21052c-0.21052,0 -0.21052,0 0,-0.42105c0,-0.42105 0.21052,-0.84209 0.21052,-1.05261c0,-0.21052 0.21052,0 0.84209,0.63157c0.42105,0.63157 0.63157,1.05261 0.42105,1.26314zM157.8914,252.89441c-0.42105,0.21052 -0.84209,-0.21052 -1.05261,-0.42105c-0.21052,-0.42105 -0.21052,-0.63157 0,-0.63157c0.21052,0 0.63157,0.21052 1.05261,0.63157c0.42105,0.42105 0.42105,0.42105 0,0.42105zM163.78603,266.7889c0,0.42105 -0.21052,0.42105 -0.21052,-0.21052c0,-0.42105 -0.42105,-0.84209 -0.63157,-0.84209c0,0 -0.21052,0 -0.21052,0.42105c0,0.21052 0,0.42105 -0.21052,0.42105c-0.21052,0 -0.42105,-0.42105 -0.42105,-0.63157c0,-0.42105 0.21052,-0.63157 0.42105,-0.63157c0.21052,0 0.21052,-0.21052 0.21052,-0.42105c0,-0.42105 0.21052,-0.63157 0.42105,-0.63157c0.21052,0 0.42105,0.42105 0.63157,0.84209c0.21052,0.63157 0.21052,1.26314 0,1.68418z" data-paper-data="{&quot;glyphName&quot;:&quot;A&quot;,&quot;glyphIndex&quot;:0,&quot;firstGlyphOfWord&quot;:true,&quot;word&quot;:1}"></path><path d="M230.52166,220.0529c-7.99986,-5.05254 -11.57874,-7.99986 -12.42083,-9.47351c-0.84209,-1.68418 -0.42105,-3.57888 0.84209,-6.10515c1.05261,-2.31575 3.78941,-5.47359 4.42097,-5.47359c0.21052,0 1.68418,0.63157 3.15784,1.26314c2.10523,1.05261 3.36836,1.47366 4.6315,1.47366c0.84209,0 1.68418,-0.21052 3.15784,-0.84209c1.47366,-0.63157 3.15784,-1.26314 3.57888,-1.26314c1.26314,-0.42105 1.8947,-1.05261 5.05254,-4.6315c2.52627,-2.94732 3.36836,-5.89463 2.10523,-6.31568c-0.63157,-0.21052 -0.63157,-0.21052 1.05261,-0.84209c1.68418,-0.42105 1.05261,-7.78933 -0.63157,-8.63142c-0.63157,-0.21052 -0.84209,-0.42105 -0.42105,-0.84209c0.42105,-0.84209 0.42105,-1.05261 -1.05261,-2.73679c-1.47366,-1.47366 -8.63142,-5.26306 -12.42083,-6.5262c-2.31575,-0.84209 -5.47359,-1.05261 -8.4209,-1.05261c-2.94732,0 -5.47359,0.21052 -6.5262,1.05261c-0.42105,0.42105 -1.47366,0.63157 -1.8947,0.63157c-1.26314,0 -6.31568,2.52627 -9.26299,4.6315c-10.3156,7.15777 -17.68389,20.84173 -18.10494,33.47308c-0.21052,7.78933 1.05261,12.84187 4.84202,18.7365c3.78941,5.89463 9.05247,10.52613 20.63121,18.31546c7.57881,5.05254 9.89456,6.73672 9.47351,7.36829c-0.21052,0.84209 -4.84202,2.73679 -7.57881,3.57888c-1.47366,0.21052 -3.36836,0.42105 -4.42097,0.42105c-1.68418,-0.21052 -2.52627,-0.63157 -4.84202,-2.31575c-3.57888,-2.73679 -6.31568,-3.99993 -10.73665,-4.6315c-2.10523,-0.42105 -3.78941,-0.42105 -4.84202,-0.42105c-5.05254,0 -8.63142,6.5262 -9.68404,10.73665c-0.21052,0.63157 -0.84209,2.10523 -1.47366,3.15784c-1.26314,2.52627 -1.05261,4.21045 0.21052,7.15777c0.63157,1.26314 1.47366,2.94732 1.68418,3.99993c2.52627,7.57881 22.10486,12.63135 30.31524,12.63135c20.21016,0 41.89398,-13.0524 41.89398,-35.15726c0,-15.57867 -10.73665,-23.57852 -22.31539,-31.36785zM244.41615,182.15885c0,-0.21052 0.21052,-0.42105 0.42105,-0.42105c0,0 0,0.21052 -0.21052,0.63157c-0.21052,0 -0.42105,0 -0.21052,-0.21052zM243.15301,179.42206c0.42105,-0.21052 0.63157,0 0.63157,0.42105c0,0.42105 -0.21052,0.63157 -0.63157,0.63157c-0.21052,0 -0.42105,-0.21052 -0.42105,-0.42105c0,-0.21052 0.21052,-0.63157 0.42105,-0.63157zM197.25911,189.94818c-0.21052,0.21052 -0.42105,0.42105 -0.63157,0.42105c-0.21052,0 -0.42105,-0.21052 -0.21052,-0.42105c0.21052,-0.21052 0.42105,-0.42105 0.63157,-0.42105c0.21052,0 0.21052,0.21052 0.21052,0.42105zM215.99561,206.78998c-0.63157,0 -1.05261,-0.21052 -1.26314,-0.63157c0,-0.21052 0,-0.42105 0.42105,-0.42105c0.21052,0 0.63157,-0.21052 0.63157,-0.42105c0,-0.63157 0.63157,0 0.84209,0.84209c0,0.42105 0,0.63157 -0.63157,0.63157z" data-paper-data="{&quot;glyphName&quot;:&quot;s&quot;,&quot;glyphIndex&quot;:1,&quot;word&quot;:1}"></path><path d="M478.60205,219.84238c-2.94732,-16.42076 -15.36814,-31.36785 -32.84151,-31.36785c-6.10515,0 -12.42083,1.8947 -18.52598,5.68411c-1.47366,0.84209 -2.10523,1.26314 -2.31575,1.26314c-0.42105,0 -0.42105,-0.21052 -0.63157,-0.42105c-1.05261,-1.68418 -2.73679,-3.78941 -3.99993,-4.42097c-2.73679,-2.10523 -7.36829,-2.10523 -10.73665,-2.10523c-0.63157,0 -0.84209,0.21052 -1.05261,0.42105c-0.21052,0.42105 0,1.05261 0.42105,1.47366c0.63157,0.42105 0.63157,0.63157 0,0.63157c-0.84209,0.21052 -2.10523,-0.63157 -2.10523,-1.26314c0,-0.21052 -0.21052,-0.42105 -0.42105,-0.42105c-1.26314,0 -7.36829,2.52627 -8.21038,3.36836c0,0.42105 -0.21052,0.63157 -0.63157,0.63157c-0.21052,0 -0.63157,0.42105 -0.84209,0.84209c-0.21052,0.42105 -0.63157,1.47366 -1.05261,2.31575c-1.05261,1.68418 -1.05261,6.73672 -0.21052,9.89456c0.42105,1.26314 0.63157,3.15784 0.63157,4.42097c-0.21052,1.05261 0,2.31575 0.21052,2.73679c0.42105,0.63157 0.42105,0.84209 -0.21052,0.84209c-0.21052,0 -0.42105,0.21052 -0.42105,0.42105c0,0.21052 -0.21052,3.15784 -0.63157,6.5262c-0.21052,3.57888 -0.63157,6.73672 -0.63157,7.36829c0.21052,4.42097 -1.26314,17.47337 -2.10523,22.31539c-2.94732,14.73658 -3.57888,21.89434 -3.57888,40.42032c0,15.15762 0,15.36814 0.84209,16.63128c0.84209,1.47366 1.05261,2.94732 0.42105,3.15784c-1.05261,0.21052 0,2.73679 1.47366,4.42097c0.84209,0.63157 1.68418,1.26314 1.8947,1.26314c0.21052,-0.21052 0.42105,0.21052 0.63157,0.63157c0.42105,0.84209 4.84202,3.36836 6.31568,3.36836c0.63157,0 1.26314,0.21052 1.68418,0.63157c0.21052,0.21052 0.84209,0.42105 1.26314,0.21052c0.21052,0 0.63157,0 0.63157,0.21052c0,0.21052 0.42105,0.21052 0.84209,0.21052c0.84209,0 1.8947,-0.21052 2.10523,-0.63157c0.21052,-0.21052 0.63157,-0.63157 0.84209,-0.63157c2.52627,-0.63157 3.99993,-1.05261 3.99993,-1.26314c0,-0.21052 0.21052,-0.21052 0.42105,-0.21052c0.42105,0.42105 5.89463,-1.8947 6.73672,-2.52627c0.42105,-0.42105 0.84209,-1.26314 1.05261,-1.8947c0.42105,-0.63157 0.84209,-1.68418 1.05261,-2.31575c0.63157,-1.68418 1.26314,-7.99986 1.26314,-17.05232c0,-3.78941 0.21052,-6.94724 0.21052,-7.15777c0,0 2.52627,-0.21052 5.26306,-0.42105c28.21002,-0.84209 46.31495,-23.99957 50.94645,-50.10436c0.84209,-4.6315 0.84209,-13.47344 0,-18.10494zM399.44559,198.57961c0.21052,-0.21052 0.42105,-0.42105 0.42105,-0.42105c0.21052,0 0.21052,0.21052 0.21052,0.42105c0,0.21052 -0.21052,0.42105 -0.42105,0.42105c-0.21052,0 -0.21052,-0.21052 -0.21052,-0.42105zM398.18246,196.05334c0.21052,0 0.21052,0.21052 0.21052,0.42105c-0.21052,0.42105 -0.42105,0.63157 -0.42105,0.63157c0,0 -0.21052,-0.21052 -0.21052,-0.63157c0,-0.21052 0.21052,-0.42105 0.42105,-0.42105zM399.23507,240.47359c-0.21052,0.21052 -0.84209,0.42105 -1.26314,0.42105c-0.21052,0 -0.42105,0 -0.42105,-0.21052c0,-0.21052 0.21052,-0.42105 0.63157,-0.84209c0.42105,-0.21052 0.63157,-0.21052 0.84209,-0.21052c0.42105,0 0.63157,0.21052 0.21052,0.84209zM399.23507,208.68469c0,-0.21052 0,-0.42105 0.21052,-0.42105c0.42105,0 1.68418,1.05261 1.68418,1.47366c-0.63157,0 -1.8947,-0.42105 -1.8947,-1.05261zM403.86657,212.89514c-0.21052,0 -0.42105,-0.21052 -0.42105,-0.42105c0,-0.21052 0.21052,-0.21052 0.42105,-0.21052c0.21052,0.21052 0.42105,0.42105 0.42105,0.42105c0,0 -0.21052,0.21052 -0.42105,0.21052zM409.34015,204.26371c-0.21052,0.21052 -0.42105,0.42105 -0.63157,0.42105c-0.21052,0 -0.42105,-0.21052 -0.42105,-0.42105c0,-0.21052 0.21052,-0.42105 0.63157,-0.42105c0.42105,0 0.42105,0.21052 0.42105,0.42105zM411.23485,235.84209c-0.21052,-0.21052 -0.21052,-0.63157 0,-0.63157c0.21052,-0.21052 0.42105,0 0.42105,0.21052c0,0.84209 -0.21052,0.84209 -0.42105,0.42105zM416.70844,198.57961c-0.21052,0 -0.63157,-0.21052 -1.05261,-0.63157c-0.42105,-0.21052 -0.63157,-0.42105 -0.42105,-0.42105c0.21052,0 0.63157,0.21052 1.05261,0.63157c0.42105,0.21052 0.63157,0.42105 0.42105,0.42105zM445.76054,201.3164c0,0.21052 0,0.42105 0,0.63157c-0.21052,0.42105 -0.21052,0.42105 -0.42105,0c-0.42105,-0.42105 0,-1.05261 0.42105,-0.63157zM429.12927,201.94797c0.21052,-0.21052 0.84209,-0.21052 0.84209,0.21052c0,0.21052 -0.21052,0.21052 -0.42105,0.21052c-0.42105,0 -0.63157,-0.21052 -0.42105,-0.42105zM447.02368,238.57888c-3.15784,10.73665 -8.4209,18.31546 -19.99964,19.15755l-3.78941,0.21052l0.21052,-4.21045c0.63157,-11.78926 10.10508,-29.05211 20.42068,-34.31517c0.63157,-0.21052 1.26314,-0.42105 1.47366,-0.42105c0.84209,0 1.26314,0.63157 2.10523,2.31575c2.31575,4.6315 2.10523,9.68404 -0.42105,17.26285zM452.28674,237.73679c-0.21052,0.42105 -0.84209,0.21052 -0.84209,-0.42105c0,-0.21052 0.21052,-0.42105 0.63157,-0.21052c0.21052,0 0.42105,0.42105 0.21052,0.63157zM456.49719,244.68404c-1.05261,0.42105 -1.26314,0.42105 -1.26314,0c0,-0.21052 0.42105,-0.42105 1.05261,-0.21052c0.84209,0 0.84209,0 0.21052,0.21052zM458.60242,196.26386c-0.21052,0.63157 -0.42105,1.05261 -0.63157,1.05261c-0.42105,0 -0.63157,-1.05261 -0.63157,-1.47366c-0.21052,-0.42105 0,-0.63157 0.63157,-0.63157c0.63157,0 0.84209,0.21052 0.63157,1.05261zM459.44451,214.78984c-0.42105,0 -0.42105,-0.21052 -0.21052,-0.42105c0,0 0.42105,-0.42105 0.42105,-0.63157c0.21052,-0.21052 0.42105,0 0.42105,0.42105c0,0.21052 -0.21052,0.63157 -0.63157,0.63157zM476.91787,233.1053c-0.21052,0 -0.42105,-0.21052 -0.21052,-0.42105c0.21052,-0.21052 0.42105,-0.42105 0.42105,-0.42105c0,0 0.21052,0.21052 0.21052,0.42105c0,0.21052 -0.21052,0.42105 -0.42105,0.42105z" data-paper-data="{&quot;glyphName&quot;:&quot;p&quot;,&quot;glyphIndex&quot;:3,&quot;lastGlyphOfWord&quot;:true,&quot;word&quot;:1}"></path><g data-paper-data="{&quot;initialText&quot;:&quot;A&quot;,&quot;fillRule&quot;:&quot;nonzero&quot;,&quot;selectedEffects&quot;:{&quot;container&quot;:&quot;circle_simple_filled&quot;,&quot;transformation&quot;:&quot;&quot;,&quot;pattern&quot;:&quot;&quot;},&quot;blockLetter&quot;:&quot;O&quot;,&quot;blockLetterId&quot;:0,&quot;relativeBoundsIconToContainer&quot;:{&quot;top&quot;:-0.012026734560800108,&quot;left&quot;:0.01636889599865897},&quot;widthRatioIconToContainer&quot;:0.5763626523622486,&quot;heightRatioIconToContainer&quot;:0.8438705370339834,&quot;bounds&quot;:{&quot;x&quot;:261.4148228878139,&quot;y&quot;:178.52736072187847,&quot;width&quot;:118.7489170357124,&quot;height&quot;:118.74891703571248},&quot;isIcon&quot;:&quot;true&quot;,&quot;iconType&quot;:&quot;initial&quot;,&quot;iconStyle&quot;:&quot;icon-in-text&quot;,&quot;rawInitialId&quot;:794,&quot;line&quot;:1,&quot;iconInPrimaryText&quot;:true,&quot;suitableAsStandaloneIcon&quot;:true}"><path d="M261.41482,237.90182c0,-32.79161 26.58285,-59.37446 59.37446,-59.37446c32.79161,0 59.37446,26.58285 59.37446,59.37446c0,32.79161 -26.58285,59.37446 -59.37446,59.37446c-32.79161,0 -59.37446,-26.58285 -59.37446,-59.37446zM356.84093,271.02323c-0.29913,-2.84174 -1.19652,-17.94783 -1.49565,-23.03304c0,-1.34608 -0.14956,-3.73913 -0.29913,-5.23478c0,-1.64522 -0.29913,-6.13218 -0.44869,-10.32c-0.59826,-12.11478 -0.74783,-12.41392 -1.19652,-12.56348c-0.59826,-0.14956 -0.74783,-0.29913 -0.14956,-0.74783c0.44869,-0.29913 0.44869,-0.59826 0.14956,-2.84174c-0.14956,-1.34608 -0.29913,-2.9913 -0.44869,-3.58957c-0.89739,-7.7774 -2.9913,-17.34957 -9.57218,-22.28522c-1.64522,-1.49565 -5.23478,-3.29044 -6.58087,-3.44c-0.44869,0 -1.04696,-0.14956 -1.19652,-0.29913c-0.29913,-0.14956 -1.19652,-0.29913 -2.39305,-0.29913c-8.82435,0 -14.95653,5.98261 -20.19131,12.41392c-2.69217,3.29044 -3.14087,3.88869 -2.39305,4.03826c0.14956,0.14956 0,0.14956 -0.44869,0.14956c-0.44869,0 -1.04696,0.59826 -2.54261,2.69217c-5.98261,8.37565 -9.72174,15.55478 -13.01217,25.42609c-1.34608,3.73913 -3.58957,11.96522 -3.88869,14.05914c0,0.44869 -0.29913,1.49565 -0.44869,2.09391c-1.34608,5.98261 -2.39305,24.37913 -1.34608,24.9774c0.29913,0.14956 0.29913,0.29913 0.14956,0.29913c-0.29913,0 -0.29913,0.74783 -0.29913,2.84174c0.14956,2.9913 0.44869,4.03826 1.19652,4.33739c0.29913,0 0.59826,0.14956 0.44869,0.44869c0,0.29913 1.04696,1.94435 1.49565,2.24348c0.14956,0.14956 0.44869,0.14956 0.59826,0.14956c-0.29913,0.44869 3.88869,3.29044 4.93565,3.29044c0.29913,0 0.59826,0.14956 0.59826,0.44869c0.14956,0.14956 0.74783,0.29913 1.34608,0.29913c0.59826,0 1.34608,-0.14956 1.49565,-0.29913c0.14956,-0.14956 0.44869,-0.29913 0.74783,-0.29913c1.49565,-0.14956 5.98261,-2.09391 8.52522,-3.58957c2.69217,-1.64522 3.29044,-2.54261 3.29044,-5.53391c0,-1.34608 -0.29913,-2.84174 -0.59826,-4.03826c-0.29913,-1.04696 -0.44869,-2.54261 -0.44869,-3.14087l0.14956,-1.19652l2.54261,-0.89739c7.92696,-2.84174 13.90957,-4.93565 14.2087,-4.93565c0.14956,0 0.44869,1.34608 0.59826,3.58957c0.59826,5.98261 1.64522,17.79827 10.02087,17.79827c2.9913,0 7.17913,-0.59826 9.42261,-2.39305c0.44869,-0.44869 1.04696,-0.89739 1.34608,-1.04696c0.29913,-0.14956 0.59826,-0.29913 0.59826,-0.59826c0,-0.14956 0.29913,-0.29913 0.74783,-0.44869c0.44869,-0.14956 1.49565,-0.89739 2.54261,-1.94435c2.39305,-2.09391 2.54261,-2.69217 2.24348,-6.58087zM291.48092,278.65106c-0.29913,0 -0.29913,-0.14956 -0.29913,-0.44869c0.14956,-0.14956 0.29913,-0.29913 0.29913,-0.29913c0,0 0.14956,0.14956 0.29913,0.29913c0,0.29913 0,0.44869 -0.29913,0.44869zM291.33136,274.76236c-0.44869,0.14956 -0.59826,0.14956 -0.89739,0.14956c-0.44869,0 -0.44869,-0.29913 -0.14956,-0.74783c0.14956,-0.29913 0.29913,-0.29913 0.44869,-0.29913c0.14956,0 0.29913,0 0.44869,0.14956c0.89739,0.29913 0.89739,0.59826 0.14956,0.74783zM291.92961,251.72931c-0.14956,0 -0.29913,-0.14956 -0.44869,-0.29913c-0.14956,-0.14956 0,-0.14956 0.29913,-0.14956c0.14956,0 0.29913,0 0.29913,0.14956c0,0.14956 0,0.29913 -0.14956,0.29913zM295.81831,279.39888c-0.29913,0 -0.44869,0 -0.44869,-0.14956c0,-0.14956 0.14956,-0.29913 0.14956,-0.29913c0.14956,0 0.44869,0.14956 0.44869,0.29913c0.14956,0.14956 0,0.14956 -0.14956,0.14956zM296.71571,284.4841c-0.14956,0 -0.29913,-0.14956 -0.29913,-0.29913c0,-0.14956 0.14956,-0.14956 0.29913,-0.14956c0.14956,0 0.14956,0 0.14956,0.14956c0,0.14956 0,0.29913 -0.14956,0.29913zM302.99745,282.53975c-0.14956,-0.29913 0,-0.44869 0.14956,-0.44869c0.29913,0 0.44869,0.14956 0.44869,0.29913c0,0.44869 -0.44869,0.59826 -0.59826,0.14956zM311.52266,277.6041c-0.14956,0 -0.14956,-0.14956 -0.14956,-0.29913c0.29913,0 0.44869,0.14956 0.44869,0.14956c0,0.14956 -0.14956,0.14956 -0.29913,0.14956zM312.42005,275.06149c0,0.14956 -0.14956,0.44869 -0.14956,0.44869c-0.14956,0 -0.14956,-0.29913 -0.14956,-0.44869c0,-0.14956 0.14956,-0.44869 0.29913,-0.44869c0.14956,0 0.14956,0.29913 0,0.44869zM326.32962,190.10843c0.29913,0 0.44869,0 0.44869,0.14956c0,0.14956 -0.14956,0.29913 -0.44869,0.29913c-0.14956,0 -0.29913,-0.14956 -0.29913,-0.14956c0,0 0.14956,-0.14956 0.29913,-0.29913zM324.83397,246.1954c-0.14956,0.29913 -0.29913,0.44869 -0.44869,0.44869c-0.14956,0 -0.29913,-0.29913 -0.29913,-0.74783c0,-0.59826 0.14956,-0.74783 0.59826,-0.74783c0.59826,0 0.59826,0.29913 0.14956,1.04696zM323.48788,239.31539c-5.68348,1.94435 -5.53391,1.79478 -5.53391,1.49565c0,-1.79478 7.02957,-16.30261 8.52522,-17.2c0.29913,-0.14956 0.44869,1.49565 0.74783,7.62782c0.14956,2.69217 0.44869,5.38435 0.44869,5.68348l0.14956,0.89739zM334.25658,277.75366c0,0.29913 -0.14956,0.44869 -0.29913,0.44869c-0.14956,0 -0.29913,-0.29913 -0.29913,-0.59826c0,-0.29913 0.14956,-0.59826 0.29913,-0.59826c0.29913,0 0.44869,0.29913 0.29913,0.74783zM335.00441,266.53627c-0.14956,0.14956 -0.44869,0 -0.59826,-0.14956c-0.14956,-0.29913 -0.29913,-0.29913 -0.44869,0c-0.14956,0.14956 -0.44869,0.29913 -0.59826,0.29913c-0.29913,0 -0.44869,-0.59826 -0.14956,-1.34608c0.14956,-0.29913 0.29913,-0.59826 0.44869,-0.59826c0.14956,0 0.44869,0.29913 0.89739,0.89739c0.59826,0.44869 0.59826,0.74783 0.44869,0.89739zM337.24789,231.9867c-0.14956,0 -0.29913,-0.14956 -0.29913,-0.29913c0,0 0.14956,-0.14956 0.29913,-0.14956c0.29913,0 0.44869,0.14956 0.44869,0.14956c0,0.14956 -0.14956,0.29913 -0.44869,0.29913zM338.44441,269.67714c-0.14956,0 -0.29913,-0.29913 -0.29913,-0.59826c0,-0.29913 0.14956,-0.59826 0.14956,-0.59826c0,0 0.14956,0.29913 0.29913,0.59826c0,0.29913 0,0.59826 -0.14956,0.59826zM340.68788,259.50671c0,0.14956 -0.29913,0.29913 -0.44869,0.29913c-0.14956,0 -0.14956,-0.14956 0,-0.29913c0,-0.14956 0.29913,-0.29913 0.44869,-0.29913c0.14956,0 0.14956,0.14956 0,0.29913zM343.52962,276.70671c-0.14956,0.44869 -0.74783,-0.14956 -0.74783,-0.74783c0,-0.29913 0,-0.29913 0.44869,0.14956c0.14956,0.14956 0.29913,0.44869 0.29913,0.59826zM344.72615,272.51888c-0.29913,0.29913 -0.44869,0.14956 -0.44869,-0.14956c-0.14956,-0.14956 -0.29913,-0.29913 -0.59826,-0.14956c-0.14956,0 -0.14956,0 0,-0.29913c0,-0.29913 0.14956,-0.59826 0.14956,-0.74783c0,-0.14956 0.14956,0 0.59826,0.44869c0.29913,0.44869 0.44869,0.74783 0.29913,0.89739zM350.40963,261.00235c-0.29913,0.14956 -0.59826,-0.14956 -0.74783,-0.29913c-0.14956,-0.29913 -0.14956,-0.44869 0,-0.44869c0.14956,0 0.44869,0.14956 0.74783,0.44869c0.29913,0.29913 0.29913,0.29913 0,0.29913zM354.59745,270.87366c0,0.29913 -0.14956,0.29913 -0.14956,-0.14956c0,-0.29913 -0.29913,-0.59826 -0.44869,-0.59826c0,0 -0.14956,0 -0.14956,0.29913c0,0.14956 0,0.29913 -0.14956,0.29913c-0.14956,0 -0.29913,-0.29913 -0.29913,-0.44869c0,-0.29913 0.14956,-0.44869 0.29913,-0.44869c0.14956,0 0.14956,-0.14956 0.14956,-0.29913c0,-0.29913 0.14956,-0.44869 0.29913,-0.44869c0.14956,0 0.29913,0.29913 0.44869,0.59826c0.14956,0.44869 0.14956,0.89739 0,1.19652z" data-paper-data="{&quot;isPathIcon&quot;:true}"></path></g></g></g></g><g class="watermark-group" style="opacity:0.040000010281801224"><path class="watermark-path" d="M129.52,370.3a11.88,11.88,0,0,1,2.58,5.58,12,12,0,0,1,.11,3,11.81,11.81,0,0,1-.64,2.93,12.34,12.34,0,0,1-1.41,2.72,11.65,11.65,0,0,1-2.13,2.32,12,12,0,0,1-2.64,1.69,13,13,0,0,1-2.91.9,12.47,12.47,0,0,1-3,.12,12.17,12.17,0,0,1-2.93-.64,11.8,11.8,0,0,1-2.72-1.38,12.19,12.19,0,0,1-4-4.79,11.85,11.85,0,0,1-.89-2.92,12.14,12.14,0,0,1-.13-3,11.54,11.54,0,0,1,.64-2.92,11.67,11.67,0,0,1,3.5-5,11.44,11.44,0,0,1,2.67-1.69,11.64,11.64,0,0,1,2.92-.91,10.71,10.71,0,0,1,3-.12,11.68,11.68,0,0,1,5.66,2,11.7,11.7,0,0,1,2.34,2.12m-1.4,8.76a13,13,0,0,1-1.22,2.32,9.68,9.68,0,0,1-1.81,2,7.44,7.44,0,0,1-2.38,1.37,6.17,6.17,0,0,1-5.11-.46,8.73,8.73,0,0,1-3.85-4.58,6.69,6.69,0,0,1-.34-2.66,6.09,6.09,0,0,1,.77-2.47,7.15,7.15,0,0,1,1.75-2.11,9.58,9.58,0,0,1,1.09-.81,8.23,8.23,0,0,1,1.12-.63,8.14,8.14,0,0,1,1.19-.46,12.71,12.71,0,0,1,1.32-.37l2,2.38a12.83,12.83,0,0,0-1.56.17,7.86,7.86,0,0,0-1.23.32,4.5,4.5,0,0,0-1,.49,6.41,6.41,0,0,0-.93.67,4.49,4.49,0,0,0-1.15,1.39,3.87,3.87,0,0,0-.45,1.58,4.12,4.12,0,0,0,.26,1.63,6.11,6.11,0,0,0,2.36,2.82,4.43,4.43,0,0,0,1.57.53,3.91,3.91,0,0,0,1.62-.17,4.71,4.71,0,0,0,1.57-.89,10.5,10.5,0,0,0,.83-.79,5.71,5.71,0,0,0,.65-.93,10.13,10.13,0,0,0,.54-1.14,12.24,12.24,0,0,0,.44-1.49l2,2.33m-14.46,4.55a8.86,8.86,0,0,0,2.78,2.22,9,9,0,0,0,3.29.94,9.15,9.15,0,0,0,3.39-.37,8.68,8.68,0,0,0,3.11-1.69,8.8,8.8,0,0,0,2.22-2.78,9.15,9.15,0,0,0,1-3.29,8.95,8.95,0,0,0-4.83-8.76,9,9,0,0,0-6.73-.57,9,9,0,0,0-5.33,4.47,8.94,8.94,0,0,0-.57,6.71,8.76,8.76,0,0,0,1.7,3.12"></path><path class="watermark-path" d="M147,349c-.48.12-1.09.31-1.82.57a24.37,24.37,0,0,0-2.4,1A28.35,28.35,0,0,0,140,352a20.72,20.72,0,0,0-2.71,1.94c-.7.59-1.28,1.11-1.74,1.57a15.07,15.07,0,0,0-1.1,1.22,4.09,4.09,0,0,0-.59.92,2.32,2.32,0,0,0-.22.64,1.16,1.16,0,0,0,0,.47,1.83,1.83,0,0,0,.18.29,1.15,1.15,0,0,0,1,.37,5.54,5.54,0,0,0,1.51-.38q.87-.35,1.95-.9l2.26-1.18q1.2-.65,2.49-1.29c.87-.44,1.73-.83,2.59-1.17a18.94,18.94,0,0,1,2.6-.81,9.27,9.27,0,0,1,2.46-.29,6.25,6.25,0,0,1,2.24.49,5.12,5.12,0,0,1,1.89,1.47,6.35,6.35,0,0,1,1.41,2.61,6,6,0,0,1,.09,2.6,8.3,8.3,0,0,1-.9,2.52,17.79,17.79,0,0,1-1.62,2.37,23.92,23.92,0,0,1-2,2.15c-.72.67-1.41,1.29-2.09,1.87a33.79,33.79,0,0,1-5.33,3.7,32.29,32.29,0,0,1-4.91,2.28l-3.61-4.3a21.38,21.38,0,0,0,5.39-1.87,27.2,27.2,0,0,0,5.4-3.56,21.59,21.59,0,0,0,2.38-2.27,8.67,8.67,0,0,0,1.18-1.7,2.32,2.32,0,0,0,.27-1.19,1.34,1.34,0,0,0-.28-.74,1.21,1.21,0,0,0-1-.42,4.32,4.32,0,0,0-1.55.34,15.77,15.77,0,0,0-2,.88c-.72.37-1.48.77-2.27,1.21l-2.45,1.3c-.85.45-1.7.85-2.56,1.21a22.37,22.37,0,0,1-2.54.86,10,10,0,0,1-2.43.32,5.76,5.76,0,0,1-2.2-.45,5,5,0,0,1-1.89-1.45,6.12,6.12,0,0,1-1.31-2.41,6,6,0,0,1-.1-2.41,8.28,8.28,0,0,1,.81-2.38,14.06,14.06,0,0,1,1.49-2.24,22.37,22.37,0,0,1,1.85-2.05q1-1,2-1.77c.7-.59,1.44-1.15,2.23-1.7s1.62-1.06,2.44-1.53,1.63-.91,2.43-1.3,1.58-.75,2.3-1L147,349"></path><path class="watermark-path" d="M186.76,337.57l-10.6-12.63,3.92,18.24-4.66,3.91-17.27-7,10.6,12.63-4.86,4.07-15.09-18,6.59-5.54,18.69,7.52-4.15-19.71,6.57-5.52,15.09,18-4.83,4.05"></path><path class="watermark-path" d="M208.84,313.24l-10,8.42,1.16,4.82L194.56,331l-5.68-25.89,5.42-4.55,24.51,10.09-5.42,4.55-4.55-2m-11.23,3.45,6.57-5.52-8.83-3.87,2.26,9.39"></path><path class="watermark-path" d="M227.49,281.38c-.48.12-1.09.31-1.82.57a24.37,24.37,0,0,0-2.4,1,26.11,26.11,0,0,0-2.7,1.47,20.72,20.72,0,0,0-2.71,1.94c-.7.59-1.28,1.11-1.74,1.57a13.39,13.39,0,0,0-1.1,1.22,4.29,4.29,0,0,0-.59.91,2.48,2.48,0,0,0-.22.65,1.16,1.16,0,0,0,0,.47,1.83,1.83,0,0,0,.18.29,1.15,1.15,0,0,0,1,.37,5.54,5.54,0,0,0,1.51-.38q.87-.34,2-.9l2.26-1.18q1.2-.64,2.49-1.29c.87-.44,1.73-.83,2.59-1.17a18.94,18.94,0,0,1,2.6-.81,9.27,9.27,0,0,1,2.46-.29,6.08,6.08,0,0,1,2.24.49,5.09,5.09,0,0,1,1.89,1.46,6.47,6.47,0,0,1,1.41,2.61,6.07,6.07,0,0,1,.09,2.61,8.3,8.3,0,0,1-.9,2.52,16.32,16.32,0,0,1-1.63,2.36,21.41,21.41,0,0,1-2,2.16c-.72.67-1.41,1.29-2.1,1.86a33.36,33.36,0,0,1-5.32,3.71,31.92,31.92,0,0,1-4.92,2.28l-3.6-4.3a21.38,21.38,0,0,0,5.39-1.87,27.2,27.2,0,0,0,5.4-3.56,21.59,21.59,0,0,0,2.38-2.27,8.67,8.67,0,0,0,1.18-1.7A2.32,2.32,0,0,0,231,293a1.34,1.34,0,0,0-.28-.74,1.21,1.21,0,0,0-1-.42,4.32,4.32,0,0,0-1.55.34,16.54,16.54,0,0,0-2,.88c-.71.37-1.47.77-2.26,1.21l-2.46,1.3c-.84.44-1.7.85-2.55,1.21a24.53,24.53,0,0,1-2.54.86A10,10,0,0,1,214,298a5.76,5.76,0,0,1-2.2-.45,5,5,0,0,1-1.89-1.45,6.12,6.12,0,0,1-1.31-2.41,5.78,5.78,0,0,1-.1-2.41,8,8,0,0,1,.81-2.38,14.61,14.61,0,0,1,1.49-2.25,22.26,22.26,0,0,1,1.85-2q1-1,2-1.77c.7-.59,1.44-1.15,2.23-1.7s1.62-1.06,2.44-1.53,1.63-.91,2.43-1.31,1.58-.74,2.3-1l3.5,4.16"></path><path class="watermark-path" d="M261.64,274.74l-6.29-7.5L243,277.61l6.3,7.5-4.86,4.07-15.09-18,4.85-4.08,5.49,6.55L252,263.3l-5.49-6.55,4.86-4.07,15.09,18-4.86,4.08"></path><path class="watermark-path" d="M272.18,265.9l-15.09-18,4.86-4.08,15.09,18-4.86,4.08"></path><path class="watermark-path" d="M299.65,242.85l-22.51-2.18L287.51,253l-4.85,4.08-15.1-18,5.28-4.43,22.56,2.22L285,224.5l4.83-4.06,15.09,18-5.26,4.42"></path><path class="watermark-path" d="M306.68,205.52a31.88,31.88,0,0,1,5.29-3.66,34.48,34.48,0,0,1,5.14-2.35l3.69,4.39a20.77,20.77,0,0,0-2.37.61,20.47,20.47,0,0,0-2.61,1,25.12,25.12,0,0,0-2.76,1.49,23.9,23.9,0,0,0-2.8,2,20.42,20.42,0,0,0-2.8,2.77,12.77,12.77,0,0,0-1.64,2.52,7,7,0,0,0-.68,2.24,6,6,0,0,0,.66,3.64,8.16,8.16,0,0,0,.94,1.38,9.12,9.12,0,0,0,1.08,1.07,6.39,6.39,0,0,0,1.47.91,6.73,6.73,0,0,0,1.88.48,6.54,6.54,0,0,0,2.28-.18,11.67,11.67,0,0,0,2.74-1.07,19.38,19.38,0,0,0,3.18-2.22c.57-.48,1.06-.92,1.46-1.31a14.57,14.57,0,0,0,1-1.13,11.46,11.46,0,0,0,.81-1.05l.74-1.09-1.82-2.17-5.45,4.57-3.31-3.94,10.31-8.65,7.71,9.19a29,29,0,0,1-1.67,2.43q-1,1.26-2.1,2.52c-.74.84-1.5,1.65-2.3,2.44s-1.58,1.5-2.33,2.14a31,31,0,0,1-3.59,2.61,22.55,22.55,0,0,1-3.64,1.83,15.64,15.64,0,0,1-3.63.89,10.72,10.72,0,0,1-3.49-.15,10.45,10.45,0,0,1-3.28-1.33,12.54,12.54,0,0,1-3-2.67,12,12,0,0,1-2.08-3.44,10.45,10.45,0,0,1-.71-3.5,11.14,11.14,0,0,1,.51-3.51,15.72,15.72,0,0,1,1.56-3.43,21.62,21.62,0,0,1,2.42-3.28,30.3,30.3,0,0,1,3.15-3"></path><path class="watermark-path" d="M336.91,211.59l-15.1-18,4.86-4.08,11.79,14,13.13-11,3.31,3.94-18,15.1"></path><path class="watermark-path" d="M374.54,164.71a12.28,12.28,0,0,1,2.59,4.81,10.44,10.44,0,0,1,0,5,14.62,14.62,0,0,1-2.33,5,25.55,25.55,0,0,1-4.56,4.85,26.07,26.07,0,0,1-5.6,3.67,14.79,14.79,0,0,1-5.38,1.43,10.43,10.43,0,0,1-4.94-.89,13.24,13.24,0,0,1-6.87-8.18,10.48,10.48,0,0,1,0-5,14.51,14.51,0,0,1,2.36-5,25.23,25.23,0,0,1,4.57-4.89,25,25,0,0,1,5.59-3.64,14.45,14.45,0,0,1,5.35-1.43,10.31,10.31,0,0,1,4.93.92,12.22,12.22,0,0,1,4.28,3.38m-4.91,4.11a8.36,8.36,0,0,0-2-1.72,5.5,5.5,0,0,0-2.65-.85,7.72,7.72,0,0,0-3.32.57,14.49,14.49,0,0,0-4,2.52,16.72,16.72,0,0,0-2.38,2.4,10.15,10.15,0,0,0-1.39,2.24,6.71,6.71,0,0,0-.56,2.1,5.69,5.69,0,0,0,.1,1.9,6.21,6.21,0,0,0,.61,1.69,9.85,9.85,0,0,0,1,1.44,10.48,10.48,0,0,0,1.26,1.23,6.67,6.67,0,0,0,1.57.92,6.1,6.1,0,0,0,1.85.41,6.8,6.8,0,0,0,2.15-.2,11.06,11.06,0,0,0,2.45-1,17.67,17.67,0,0,0,2.77-1.94,14.39,14.39,0,0,0,3.18-3.52,7.74,7.74,0,0,0,1.14-3.17,5.54,5.54,0,0,0-.37-2.74,8.52,8.52,0,0,0-1.36-2.3"></path><path class="watermark-path" d="M382.66,141.76A32.3,32.3,0,0,1,388,138.1a34.12,34.12,0,0,1,5.15-2.35l3.69,4.4a19.62,19.62,0,0,0-2.37.6,22.08,22.08,0,0,0-2.61,1,26,26,0,0,0-2.77,1.49,23.9,23.9,0,0,0-2.8,2,21,21,0,0,0-2.8,2.78,13.19,13.19,0,0,0-1.64,2.51,7.29,7.29,0,0,0-.68,2.24,6.36,6.36,0,0,0,.06,2,5.8,5.8,0,0,0,.61,1.68,8.12,8.12,0,0,0,.93,1.38,9.16,9.16,0,0,0,1.08,1.08,6.56,6.56,0,0,0,1.48.9,6,6,0,0,0,1.87.48,6.76,6.76,0,0,0,2.28-.17,12,12,0,0,0,2.74-1.08,18.57,18.57,0,0,0,3.18-2.22c.58-.48,1.06-.92,1.46-1.31s.75-.77,1.05-1.12.57-.72.81-1.06l.73-1.09-1.82-2.17-5.45,4.57-3.3-3.94,10.3-8.65,7.71,9.19a29,29,0,0,1-1.67,2.43q-1,1.26-2.1,2.52c-.73.84-1.5,1.66-2.3,2.44s-1.57,1.5-2.33,2.14a31,31,0,0,1-3.59,2.61,22.15,22.15,0,0,1-3.64,1.83,15.56,15.56,0,0,1-3.62.89,11,11,0,0,1-3.49-.14,10.84,10.84,0,0,1-3.28-1.33,12.82,12.82,0,0,1-3-2.68,12.12,12.12,0,0,1-2.08-3.43A10.71,10.71,0,0,1,375,155a11.18,11.18,0,0,1,.51-3.51,15.51,15.51,0,0,1,1.57-3.43,21.44,21.44,0,0,1,2.42-3.28,30.19,30.19,0,0,1,3.14-3"></path><path class="watermark-path" d="M428.63,119.31a12.26,12.26,0,0,1,2.59,4.82,10.44,10.44,0,0,1,0,5,14.53,14.53,0,0,1-2.34,5,25.29,25.29,0,0,1-4.56,4.86,26,26,0,0,1-5.59,3.67,14.84,14.84,0,0,1-5.38,1.43,10.61,10.61,0,0,1-4.95-.89,12.15,12.15,0,0,1-4.3-3.37,12,12,0,0,1-2.56-4.81,10.48,10.48,0,0,1,0-5,14.39,14.39,0,0,1,2.35-5,27.89,27.89,0,0,1,10.16-8.53,14.49,14.49,0,0,1,5.36-1.43,10.27,10.27,0,0,1,4.92.92,12.21,12.21,0,0,1,4.28,3.37m-4.91,4.12a8.17,8.17,0,0,0-2-1.72,5.58,5.58,0,0,0-2.65-.86,7.86,7.86,0,0,0-3.31.58,14.49,14.49,0,0,0-4,2.52,16.21,16.21,0,0,0-2.38,2.4,9.85,9.85,0,0,0-1.4,2.24,7,7,0,0,0-.56,2.1,6,6,0,0,0,.1,1.9,6.23,6.23,0,0,0,.62,1.69,8.49,8.49,0,0,0,1,1.44,9.18,9.18,0,0,0,1.26,1.23,6.67,6.67,0,0,0,1.57.92,6,6,0,0,0,1.84.41,6.86,6.86,0,0,0,2.16-.2,11.26,11.26,0,0,0,2.45-1,17.62,17.62,0,0,0,2.76-1.94,14.67,14.67,0,0,0,3.19-3.52,7.71,7.71,0,0,0,1.13-3.17,5.53,5.53,0,0,0-.36-2.74,8.55,8.55,0,0,0-1.37-2.3"></path></g></svg>