<svg class="svg-standalone-icon" width="100%" viewBox="197.36716400963758 120.34616612033994 155.26567198072485 117.0703181792901"><g data-paper-data="{&quot;isIcon&quot;:&quot;true&quot;,&quot;iconType&quot;:&quot;icon&quot;,&quot;rawIconId&quot;:&quot;1043293&quot;,&quot;selectedEffects&quot;:{&quot;container&quot;:&quot;&quot;,&quot;transformation&quot;:&quot;&quot;,&quot;pattern&quot;:&quot;&quot;},&quot;combineTerms&quot;:&quot;수달&quot;,&quot;isDetailed&quot;:true,&quot;iconStyle&quot;:&quot;standalone&quot;,&quot;bounds&quot;:{&quot;x&quot;:197.36716400963758,&quot;y&quot;:120.34616612033994,&quot;width&quot;:155.26567198072485,&quot;height&quot;:117.0703181792901},&quot;fillRule&quot;:&quot;evenodd&quot;,&quot;suitableAsStandaloneIcon&quot;:true}" fill="#00c1d5" fill-rule="evenodd"><path d="M197.36716,189.0345v-1.26179c0.10446,-1.38738 0.55304,-2.74424 1.32838,-3.94012c1.60162,-2.17493 3.75866,-3.87906 6.24513,-4.934c0.31288,-0.19736 0.71095,-0.19857 1.02513,-0.00345c0.31419,0.19529 0.48934,0.55275 0.45108,0.92055c-0.03827,0.36798 -0.28324,0.68179 -0.63088,0.80807c-2.17581,0.9228 -4.06434,2.41214 -5.4688,4.31294c-1.04865,1.64219 -1.3081,3.66703 -0.70732,5.52056c1.31113,4.58896 6.53841,9.29869 14.3362,12.92155l-0.01725,0.01725c0.38913,0.26827 0.52707,0.77857 0.32604,1.20641c-0.20104,0.42767 -0.68203,0.64712 -1.13687,0.51876c-8.4706,-3.91614 -13.88765,-8.97091 -15.3713,-14.14643c-0.20442,-0.6359 -0.33034,-1.28698 -0.37954,-1.9403zM352.63284,211.59667v1.95255c-0.05866,0.41559 -0.15906,0.83412 -0.31053,1.25023c-1.06961,2.65677 -3.89889,4.45095 -8.4016,5.34804c-7.98756,1.62166 -8.29809,4.17492 -8.62587,6.9007c-0.06538,1.65996 -0.67127,3.25316 -1.72517,4.5372c-2.5015,2.82928 -9.4022,5.83109 -18.02807,5.83109c-4.81928,0.00138 -9.59145,-0.94833 -14.04292,-2.79478c-0.39472,-0.06711 -0.70715,-0.37091 -0.78547,-0.76357c-0.07832,-0.39282 0.09385,-0.79307 0.43267,-1.00646c0.339,-0.21323 0.77426,-0.19546 1.09462,0.04486c14.18093,5.88285 27.11973,0.5693 29.88002,-2.53601c0.74855,-0.99577 1.15949,-2.2046 1.17312,-3.45034c0.4658,-3.84714 1.58716,-6.9007 10.21303,-8.62587c3.74363,-0.72457 6.08986,-2.17372 6.9007,-4.17492c1.13862,-2.79478 -1.08686,-6.05536 -1.08686,-6.05536c-0.30484,-0.43837 -0.19667,-1.0408 0.24152,-1.34563c0.43837,-0.30484 1.0408,-0.19685 1.34563,0.24152c0,0.02467 0.05693,0.12646 0.15044,0.29379c0.37074,0.66281 1.31682,2.35435 1.57474,4.35296zM258.95588,120.34617h-1.20763c-6.89432,0.04756 -13.64975,1.94196 -19.56347,5.48606c-4.35572,2.83838 -8.89085,5.39124 -13.57712,7.64252c-2.79012,-0.5577 -5.66323,-0.5577 -8.45335,0c-1.70399,0.73643 -2.76559,2.4598 -2.65677,4.31294c0,1.94945 1.12136,6.74543 10.9376,10.16128v1.72517l-2.51875,4.98575c-4.43663,9.53297 -7.23607,19.74496 -8.28084,30.2078c-0.18547,1.74571 0.63742,3.445 2.12196,4.38194c3.03993,1.91166 6.22391,3.58439 9.52296,5.003c1.60441,2.98455 7.65978,5.17552 11.23089,6.26238c7.39979,2.12473 15.05645,3.22193 22.75505,3.26058c7.10772,-0.06901 14.00841,-1.20763 18.32135,-4.17492c0.51755,-0.36229 1.0006,-0.72457 1.4664,-1.06961l5.53781,-0.4313c0,0 5.83109,-0.5693 17.35526,-2.74302c3.23108,-0.53963 6.40281,-1.38877 9.47121,-2.53601c1.15811,-0.47304 2.06935,-1.40308 2.51875,-2.57051c0.46131,-1.19037 0.41766,-2.5172 -0.12077,-3.67462c-1.41067,-3.1926 -3.46639,-6.05899 -6.03811,-8.41885c-1.79746,-1.86802 -3.07081,-4.17682 -3.69188,-6.69367c-0.50082,-1.5292 -1.10601,-3.02199 -1.81143,-4.4682c-1.86319,-6.41765 -5.53781,-15.23329 -9.868,-19.18394c5.17552,-2.07021 8.09106,-4.51995 8.91915,-7.31474c0.49978,-1.8242 0.10282,-3.77746 -1.06961,-5.26178c-1.43189,-1.94945 -6.03811,-2.57051 -9.07442,-1.72517c-1.08686,-0.60381 -5.003,-2.81203 -12.61102,-7.60802c-5.92166,-3.578 -12.69676,-5.49675 -19.61523,-5.55506zM257.76551,122.29562c-6.52754,0.03918 -12.92535,1.82629 -18.52837,5.17552c-4.30414,2.80491 -8.77492,5.34559 -13.38735,7.60802c0.57465,4.81928 0.74769,9.67805 0.51755,14.52597c0.04175,0.15837 0.04175,0.32468 0,0.48305c-0.05176,2.22548 -0.13802,4.64072 -0.29328,7.40099c-0.27603,4.83049 3.86439,8.83289 12.28324,11.8692c1.17639,0.43112 2.32829,0.92642 3.45034,1.48365c6.31241,2.75131 13.16601,4.03708 20.04652,3.76088c0.96609,-0.69007 1.77693,-1.36289 2.55326,-2.0012c2.87845,-2.72491 6.57964,-4.41765 10.52357,-4.81324c1.52799,-0.19581 3.07771,-0.14336 4.58896,0.15527c-0.04244,-0.23911 0.0069,-0.48564 0.13802,-0.69007c0.22427,-0.36229 0.48305,-0.69007 0.72457,-1.0006l0.31053,-0.37954l0.41404,-0.4658l0.44855,-0.48305l0.67282,-0.63831c2.3571,-1.85335 5.07891,-3.18778 7.98756,-3.91614v-0.10351c0.20789,-0.9171 0.36901,-1.84404 0.48305,-2.77753c-0.55205,-15.12978 -0.63831,-20.70209 -0.63831,-22.42726c-1.32838,-0.69007 -5.19278,-2.95005 -12.55927,-7.59077c-5.60268,-3.35001 -12.00065,-5.13719 -18.52837,-5.17552zM216.77537,135.25168c-0.89813,0.48087 -1.42137,1.45249 -1.32838,2.467c0,1.15587 0.70732,5.05476 9.00541,8.03931c0.08367,-3.51056 -0.09505,-7.0225 -0.5348,-10.50631c-2.35935,-0.45205 -4.78287,-0.45205 -7.14222,0zM299.41121,139.96141c0.32278,-1.24609 0.03468,-2.57149 -0.77633,-3.57111c-0.74183,-1.01785 -4.10592,-1.67342 -6.65917,-1.15587c0,1.25938 0.05176,4.29568 0.24152,10.54082c5.14102,-2.19097 6.76268,-4.34744 7.19398,-5.81384zM274.97671,144.05576c0.00598,-0.10949 0.00822,-0.21887 0.00673,-0.32813c-0.0015,-0.10938 -0.00667,-0.21812 -0.01553,-0.32623c-0.00897,-0.10811 -0.0215,-0.21513 -0.03761,-0.32106c-0.0161,-0.10592 -0.03583,-0.21024 -0.05917,-0.31295c-0.02324,-0.10259 -0.04992,-0.20311 -0.08005,-0.30156c-0.03025,-0.09845 -0.06378,-0.19431 -0.10058,-0.28758c-0.03681,-0.09328 -0.07671,-0.1835 -0.11973,-0.27068c-0.04302,-0.08707 -0.08896,-0.17074 -0.13784,-0.25101c-0.04899,-0.08028 -0.10058,-0.1567 -0.15475,-0.22927c-0.05429,-0.07257 -0.11098,-0.14095 -0.1701,-0.20512c-0.05912,-0.06418 -0.12042,-0.12381 -0.1839,-0.1789c-0.06337,-0.0552 -0.12858,-0.10558 -0.19563,-0.15113c-0.06705,-0.04566 -0.13566,-0.08632 -0.20581,-0.12197c-0.07004,-0.03566 -0.14129,-0.06614 -0.21375,-0.09144c-0.07245,-0.0253 -0.14572,-0.04531 -0.21979,-0.06003c-0.07419,-0.01472 -0.14877,-0.0241 -0.22375,-0.02812c-0.38103,-0.02059 -0.74677,0.09057 -1.09721,0.33348c-0.09512,0.06602 -0.18701,0.14083 -0.27568,0.22444c-0.08867,0.08373 -0.17332,0.1755 -0.25394,0.27534c-0.08062,0.09983 -0.15648,0.20684 -0.22755,0.32106c-0.07108,0.11421 -0.13669,0.23451 -0.19685,0.36091c-0.06027,0.12651 -0.11456,0.25797 -0.16286,0.39437c-0.0483,0.13652 -0.09017,0.27671 -0.12559,0.4206c-0.03542,0.14388 -0.06412,0.29023 -0.08609,0.43906c-0.02208,0.14871 -0.03715,0.29851 -0.0452,0.44941c-0.00587,0.10949 -0.00805,0.21887 -0.00655,0.32813c0.0015,0.10938 0.00667,0.21812 0.01553,0.32623c0.00886,0.10811 0.02133,0.21513 0.03743,0.32106c0.0161,0.10592 0.03583,0.21024 0.05917,0.31295c0.02324,0.10259 0.04997,0.20311 0.08022,0.30156c0.03013,0.09845 0.0636,0.19431 0.1004,0.28758c0.03681,0.09328 0.07671,0.1835 0.11973,0.27068c0.04302,0.08707 0.08902,0.17074 0.13802,0.25101c0.04888,0.08028 0.10046,0.1567 0.15475,0.22927c0.05417,0.07257 0.11081,0.14095 0.16993,0.20512c0.05912,0.06418 0.12042,0.12381 0.1839,0.1789c0.06337,0.0552 0.12858,0.10558 0.19563,0.15113c0.06705,0.04566 0.13566,0.08632 0.20581,0.12197c0.07004,0.03566 0.14129,0.06614 0.21375,0.09144c0.07245,0.0253 0.14572,0.04531 0.21979,0.06003c0.07419,0.01472 0.14877,0.0241 0.22375,0.02812c0.38103,0.02059 0.74677,-0.09057 1.09721,-0.33348c0.09512,-0.06602 0.18701,-0.14083 0.27568,-0.22444c0.08867,-0.08373 0.17332,-0.1755 0.25394,-0.27534c0.08062,-0.09983 0.15648,-0.20684 0.22755,-0.32106c0.07108,-0.11421 0.13669,-0.23451 0.19685,-0.36091c0.06027,-0.12651 0.11456,-0.25797 0.16286,-0.39437c0.0483,-0.13652 0.09017,-0.27671 0.12559,-0.4206c0.03542,-0.14388 0.06418,-0.29023 0.08626,-0.43906c0.02197,-0.14871 0.03698,-0.29851 0.04503,-0.44941zM244.17303,147.24285c0.07441,-0.00989 0.14802,-0.02508 0.22082,-0.04555c0.07269,-0.02047 0.14416,-0.04618 0.21444,-0.07711c0.07016,-0.03094 0.13882,-0.06688 0.20598,-0.10782c0.06705,-0.04106 0.13221,-0.08695 0.19546,-0.13767c0.06337,-0.05072 0.1245,-0.10604 0.18338,-0.16596c0.05888,-0.05992 0.1153,-0.12421 0.16924,-0.19287c0.05382,-0.06855 0.10495,-0.14112 0.15337,-0.21771c0.04842,-0.0766 0.0939,-0.15682 0.13646,-0.24066c0.04244,-0.08384 0.08172,-0.17091 0.11783,-0.26119c0.03611,-0.09029 0.06884,-0.18333 0.09816,-0.27914c0.02933,-0.09592 0.0552,-0.19408 0.07763,-0.29448c0.02243,-0.10052 0.04118,-0.20288 0.05624,-0.30708c0.01518,-0.1042 0.02668,-0.20973 0.0345,-0.31657c0.00782,-0.10685 0.0119,-0.2145 0.01225,-0.32295c0.00034,-0.10857 -0.00299,-0.21737 -0.01001,-0.3264c-0.00702,-0.10914 -0.01777,-0.21806 -0.03226,-0.32675c-0.01449,-0.10857 -0.03255,-0.21645 -0.05417,-0.32364c-0.02162,-0.10719 -0.04681,-0.21312 -0.07556,-0.31777c-0.02864,-0.10455 -0.06072,-0.20743 -0.09626,-0.30864c-0.03542,-0.10109 -0.07407,-0.19995 -0.11593,-0.29656c-0.04175,-0.0965 -0.08661,-0.19035 -0.13456,-0.28155c-0.04785,-0.0912 -0.09845,-0.17918 -0.15182,-0.26395c-0.05336,-0.08488 -0.10926,-0.16619 -0.16769,-0.24394c-0.05843,-0.07775 -0.1191,-0.15153 -0.182,-0.22134c-0.0628,-0.06982 -0.12761,-0.13537 -0.19442,-0.19667c-0.06671,-0.06118 -0.13503,-0.11789 -0.20495,-0.1701c-0.07004,-0.0521 -0.14129,-0.09942 -0.21375,-0.14198c-0.07257,-0.04244 -0.146,-0.07988 -0.22031,-0.11231c-0.07429,-0.03243 -0.14923,-0.05969 -0.22479,-0.08177c-0.07545,-0.02208 -0.15113,-0.03887 -0.22703,-0.05038c-0.07579,-0.0115 -0.15147,-0.01765 -0.22703,-0.01846c-0.07556,-0.00069 -0.15061,0.00391 -0.22514,0.0138c-0.07453,0.00989 -0.14813,0.02508 -0.22082,0.04555c-0.07269,0.02047 -0.14416,0.04618 -0.21444,0.07711c-0.07027,0.03094 -0.13893,0.06688 -0.20598,0.10782c-0.06705,0.04106 -0.13226,0.08695 -0.19563,0.13767c-0.06326,0.05072 -0.12433,0.10604 -0.18321,0.16596c-0.05888,0.06003 -0.1153,0.12433 -0.16924,0.19287c-0.05394,0.06855 -0.10512,0.14112 -0.15354,0.21771c-0.04842,0.0766 -0.09385,0.15682 -0.13629,0.24066c-0.04244,0.08384 -0.08172,0.17091 -0.11783,0.26119c-0.03611,0.09029 -0.06884,0.18333 -0.09816,0.27914c-0.02945,0.09592 -0.05532,0.19408 -0.07763,0.29448c-0.02243,0.10052 -0.04123,0.20288 -0.05642,0.30708c-0.01518,0.1042 -0.02663,0.20973 -0.03433,0.31657c-0.00782,0.10685 -0.0119,0.2145 -0.01225,0.32295c-0.00046,0.10857 0.00287,0.21737 0.01001,0.3264c0.00702,0.10914 0.01777,0.21806 0.03226,0.32675c0.01438,0.10857 0.03243,0.21645 0.05417,0.32364c0.02162,0.10719 0.04681,0.21312 0.07556,0.31777c0.02864,0.10466 0.06067,0.20754 0.09609,0.30864c0.03554,0.10109 0.07419,0.19995 0.11593,0.29656c0.04187,0.09661 0.08672,0.19046 0.13456,0.28155c0.04785,0.0912 0.09851,0.17925 0.15199,0.26412c0.05336,0.08477 0.10926,0.16602 0.16769,0.24377c0.05843,0.07775 0.1191,0.15153 0.182,0.22134c0.0628,0.06982 0.12761,0.13537 0.19442,0.19667c0.06671,0.0613 0.13503,0.118 0.20495,0.1701c0.07004,0.0521 0.14129,0.09942 0.21375,0.14198c0.07245,0.04244 0.1459,0.07988 0.22031,0.11231c0.07429,0.03243 0.14917,0.05969 0.22462,0.08177c0.07556,0.02208 0.15124,0.03887 0.22703,0.05038c0.07591,0.0115 0.15164,0.01765 0.22721,0.01846c0.07556,0.00081 0.15061,-0.0038 0.22514,-0.0138zM254.74645,153.46952c-0.12629,0.50427 -0.51582,0.90037 -1.01785,1.0351c-0.68506,0.1544 -1.39773,-0.10109 -1.82869,-0.65556c-0.92849,-1.36271 -1.03441,-3.12481 -0.27603,-4.58896c0.17252,-0.51755 1.70792,-5.48606 6.50391,-5.48606c4.79599,0 6.52116,5.29628 6.52116,5.52056c0.81549,1.41879 0.73475,3.18156 -0.20702,4.51995c-0.40007,0.53359 -1.07167,0.78892 -1.72517,0.65556c-0.506,-0.12784 -0.89847,-0.52704 -1.01785,-1.0351c-0.10524,0.05676 -0.19891,0.13284 -0.27603,0.22427c-0.22427,0.32778 -1.01785,1.38014 -1.94945,2.81203c-0.27982,0.4287 -0.76512,0.67782 -1.27663,0.65556c-0.48719,-0.00172 -0.94091,-0.2479 -1.20763,-0.65556c-0.60864,-0.95816 -1.26507,-1.88527 -1.9667,-2.77753c-0.07711,-0.09144 -0.17079,-0.16752 -0.27603,-0.22427zM258.17955,145.77524c-3.32959,0 -4.67522,4.15767 -4.67522,4.15767c-0.32174,0.68938 -0.40663,1.46571 -0.24152,2.20822c0.23445,-0.3145 0.56913,-0.53963 0.94884,-0.63831c0.14888,-0.01846 0.29966,-0.01846 0.44855,0c0.7175,0.02778 1.38911,0.36039 1.84594,0.91434c0.6202,0.77184 1.19607,1.57819 1.72517,2.41524c0.53187,-0.83499 1.10774,-1.64133 1.72517,-2.41524c0.54429,-0.69266 1.42861,-1.0251 2.29449,-0.86259c0.37971,0.09868 0.71439,0.32381 0.94884,0.63831c0.16631,-0.76287 0.06901,-1.55956 -0.27603,-2.25998c0,-0.10351 -1.41464,-4.15767 -4.74423,-4.15767zM298.83552,162.90449c-1.48986,-4.39505 -3.65254,-8.53237 -6.41126,-12.26426c0.06901,2.0012 0.15527,4.22667 0.24152,6.72818c-0.05624,0.93056 -0.19477,1.85421 -0.41404,2.76028c2.40938,0.29794 4.68868,1.25903 6.58378,2.77581zM237.06342,198.58282c13.21483,3.9679 31.57069,4.83049 39.42023,-0.60381c1.53075,-1.09049 2.95194,-2.32691 4.24393,-3.69188c1.63409,-1.43344 2.82997,-3.29922 3.45034,-5.38254c0.33796,-1.04183 0.59173,-2.1092 0.75908,-3.19157l0.10351,-0.5348v-0.10351c0.57465,-1.81988 1.56715,-3.48002 2.89829,-4.84774c0.06607,-0.06798 0.14163,-0.12611 0.22427,-0.17252c1.10411,-0.65556 1.36289,-1.75968 0.77633,-3.26058c-1.0282,-2.37074 -2.86138,-4.30172 -5.17552,-5.45155h-0.20702c-2.54359,-1.45967 -5.48864,-2.06434 -8.4016,-1.72517c-3.58612,0.34486 -6.94935,1.89579 -9.54021,4.3992c-2.15026,1.85577 -4.50615,3.45915 -7.02146,4.77874c-0.09696,0.05193 -0.20185,0.08695 -0.31053,0.10351l-6.74543,2.98455c-1.58716,0.74183 -3.31234,1.5009 -5.03751,2.29449l-1.06961,0.5003c-0.45907,0.14647 -0.95592,-0.0678 -1.16449,-0.50237c-0.20858,-0.4344 -0.06504,-0.95609 0.33641,-1.2228l1.06961,-0.5003c1.72517,-0.81083 3.36409,-1.58716 5.08927,-2.31174l6.9007,-3.12256h0.20702l0.81083,-0.44855c-6.11488,-0.2448 -12.13263,-1.61321 -17.75204,-4.03691c-1.06616,-0.52549 -2.16044,-0.99215 -3.27783,-1.39739c-9.31594,-3.45034 -13.8704,-8.00481 -13.55987,-13.80139c0.10351,-1.06961 0.15527,-2.09896 0.15527,-3.08806l-0.62106,1.24213c-4.33571,9.32112 -7.07097,19.30556 -8.09106,29.53498c-0.0854,1.00457 0.40162,1.9717 1.25938,2.5015c3.05804,1.92202 6.26583,3.59509 9.59197,5.003c0.23704,0.10196 0.42336,0.29448 0.51755,0.5348c0.5348,1.34563 3.48485,3.5021 10.16128,5.52056zM258.20543,158.2241c0.27275,0 0.53273,0.11524 0.71595,0.31743c0.55205,0.65556 3.51935,3.55386 3.51935,3.55386c0.25291,0.24549 0.35193,0.60898 0.25877,0.94884c-0.52342,1.35081 -1.67842,2.35745 -3.08806,2.69127c-0.9159,0.32088 -1.91356,0.32088 -2.82928,0c-1.40964,-0.33382 -2.56465,-1.34046 -3.08806,-2.69127c-0.09316,-0.33986 0.00587,-0.70335 0.25877,-0.94884c0.08626,-0.10351 2.9328,-2.89829 3.53661,-3.55386c0.18321,-0.20219 0.4432,-0.31743 0.71595,-0.31743zM257.36872,163.90682c0.50185,0.18045 1.05081,0.18045 1.55266,0h0.05176c0.58242,-0.18666 1.11378,-0.50548 1.55266,-0.93159l-2.38074,-2.38074l-2.38074,2.38074c0.4532,0.43353 1.00319,0.75287 1.60441,0.93159zM312.074,187.40369c-1.30302,-2.94384 -3.2002,-5.5868 -5.57231,-7.76328h-0.01725c-2.0709,-2.04588 -3.55955,-4.60639 -4.31294,-7.41825c-0.61141,-1.99085 -1.46898,-3.89769 -2.55326,-5.67582c-1.90874,-2.46199 -4.73543,-4.04346 -7.83229,-4.38194c-3.08841,0.4582 -5.99636,1.73932 -8.41885,3.70913l-0.51755,0.5003l-0.34503,0.37954l-0.41404,0.4658l-0.27603,0.34503c-0.20702,0.27603 -0.4313,0.55205 -0.63831,0.86259c1.08168,0.33244 2.12783,0.77167 3.12256,1.31113h0.20702c1.22488,0.67282 5.29628,3.17432 6.31413,6.62467c0.97834,1.93789 0.3295,4.30172 -1.5009,5.4688c-1.10515,1.09428 -1.94341,2.42836 -2.44975,3.89889v0.4658c-0.17752,1.17001 -0.44855,2.32381 -0.81083,3.45034c-0.72216,2.38782 -2.09626,4.52669 -3.9679,6.17613l-0.55205,0.5348l2.88104,-0.20702c0.0345,0 5.74483,-0.55205 17.09647,-2.69127c3.10721,-0.51755 6.15749,-1.33201 9.10892,-2.43249c0.66643,-0.27448 1.19055,-0.81101 1.44915,-1.48365c0.29345,-0.68283 0.29345,-1.45639 0,-2.13922zM321.0104,207.39846c0.01345,-0.13353 0.05451,-0.26274 0.12077,-0.37954c1.98861,-4.08538 3.29974,-8.46698 3.88164,-12.97331c-4.44026,-6.24858 -3.92391,-15.14185 -3.83938,-16.59532c0.00569,-0.09954 0.00949,-0.16406 0.00949,-0.19064c0.02761,-0.29173 0.18615,-0.55516 0.43095,-0.71612c0.24498,-0.16113 0.54964,-0.20219 0.82843,-0.11196c0.32106,0.11403 0.67644,0.07591 0.96609,-0.10351c1.39739,-0.79358 2.41524,-3.81263 2.65677,-4.81324c0.03382,-0.13922 0.09868,-0.26895 0.18977,-0.37954c0.07487,-0.07746 0.16234,-0.14163 0.25877,-0.18977h0.22427c0.11973,-0.02277 0.24256,-0.02277 0.36229,0c0.09178,0.02692 0.17908,0.06763 0.25877,0.12077c1.43258,1.04994 3.38065,1.04994 4.81324,0c0.28827,-0.23083 0.68283,-0.27706 1.01665,-0.11938c0.33382,0.15768 0.54861,0.49202 0.55327,0.8612c0.10351,4.3992 2.58776,8.14282 5.72758,12.8698c0.98335,1.48365 2.0012,2.98455 3.05356,4.70973c3.18778,5.13498 1.91805,9.54694 0.90071,13.08147l-0.00363,0.01259c-0.575,1.53109 -0.83895,3.16155 -0.77633,4.79599c0.15423,0.94746 -0.14612,1.91235 -0.81083,2.60502c-1.43189,1.55266 -4.64072,2.29449 -9.937,2.29449c-1.70792,0 -3.62287,-0.06901 -5.77933,-0.22427c-1.5637,0.01846 -3.0665,-0.60502 -4.15767,-1.72517c-0.66764,-0.78634 -1.00733,-1.79936 -0.94884,-2.82928zM324.15021,178.17401c-0.39748,0.22427 -0.83895,0.3597 -1.29388,0.39679h0.01725c-0.08626,2.60502 0.05176,9.85075 3.69188,14.78474c0.14923,0.19719 0.2172,0.44423 0.18977,0.69007c-0.54015,4.74613 -1.833,9.3758 -3.82988,13.71514c0.0345,0.60381 0.37954,2.12196 3.31234,2.32899c10.45456,0.74183 13.3701,-0.58656 14.16368,-1.44915c0.26257,-0.26171 0.37885,-0.63625 0.31053,-1.0006c-0.10938,-1.90735 0.17856,-3.8166 0.84534,-5.60681c1.05236,-3.5021 2.05295,-7.12497 -0.67282,-11.54142c-1.0351,-1.67342 -2.05295,-3.19157 -3.01906,-4.65797c-2.9673,-4.4682 -5.38254,-8.09106 -5.9346,-12.3695c-1.27007,0.49185 -2.67023,0.53446 -3.9679,0.12077c0.59225,3.69014 1.61718,7.29766 3.05356,10.74783c0.22462,0.31674 0.2379,0.73717 0.03347,1.06737c-0.20426,0.33002 -0.58638,0.50582 -0.97007,0.44613c-0.38368,-0.05969 -0.69421,-0.34331 -0.78858,-0.71991c-1.29871,-3.06788 -2.26464,-6.26618 -2.88104,-9.54021c-0.50117,1.05391 -1.28319,1.94928 -2.25998,2.58776zM315.23106,226.32362c1.92305,-0.77736 2.91744,-2.90934 2.27723,-4.88224c-1.01785,-3.07081 -3.45034,-8.53961 -8.05656,-10.67883c-2.49892,-1.29267 -4.69282,-3.10428 -6.4349,-5.31353c-2.12921,-2.7482 -4.95159,-4.87983 -8.17732,-6.17613c-0.26792,-0.09574 -0.56448,-0.06866 -0.81066,0.07436c-0.24601,0.14302 -0.41645,0.38713 -0.46597,0.66747c-0.42353,1.76554 -2.09401,2.94073 -3.89889,2.74302h-0.37954c-0.06866,0.03813 -0.13232,0.08453 -0.18977,0.13802h-0.12077c-0.05038,0.06884 -0.09092,0.1444 -0.12077,0.22427v0.10351c-0.02743,0.13076 -0.02743,0.26602 0,0.39679c0,0.00621 0.00069,0.01794 0.00155,0.03485c0.02295,0.40628 0.21288,3.7909 -4.59051,4.51961h-0.10351l-0.18977,0.10351c-0.07797,0.05262 -0.14784,0.11662 -0.20702,0.18977v0.10351c-0.08695,0.17631 -0.11714,0.37522 -0.08626,0.5693c-0.00759,0.06884 -0.00759,0.13819 0,0.20702c0.03053,0.07953 0.07108,0.15492 0.12077,0.22427c0.1513,0.23497 0.20098,0.52135 0.13802,0.79358c-0.08626,0.48305 -0.5348,1.5009 -2.58776,2.81203c-0.08505,0.07884 -0.15509,0.17234 -0.20702,0.27603c-0.01501,0.09713 -0.01501,0.19615 0,0.29328v0.08626c0.15527,1.9322 -0.17252,4.67522 -1.0351,4.79599c-0.42388,0.05538 -0.76097,0.38282 -0.8286,0.80497c-0.0678,0.42215 0.15009,0.83843 0.53532,1.02372c1.36289,0.67282 13.49086,6.53841 17.16548,6.53841c0.67282,0 1.58716,0.08626 2.65677,0.18977c1.72517,0.15527 3.64012,0.36229 5.83109,0.36229c3.3025,0.1965 6.61294,-0.21875 9.76449,-1.22488zM296.44391,225.70256c-2.41524,0 -10.52357,-3.58836 -14.85375,-5.64132c0.69283,-1.26145 1.03804,-2.68437 1.0006,-4.12317l9.66097,4.5372c0.45907,0.14647 0.95592,-0.06798 1.16449,-0.50237c0.20858,-0.4344 0.06504,-0.95609 -0.33641,-1.2228l-9.62647,-4.5027c1.02303,-0.75476 1.75433,-1.83938 2.07021,-3.07081l9.98876,5.31353c0.47632,0.25256 1.0672,0.0709 1.31976,-0.40541c0.25256,-0.47632 0.0709,-1.0672 -0.40541,-1.31976l-9.59197,-5.17552c1.80781,-0.65505 3.18467,-2.14767 3.69188,-4.00241c2.74302,2.19097 8.45335,6.72818 9.60922,7.38374c0.47632,0.26672 1.07893,0.09678 1.34563,-0.37954c0.26672,-0.47632 0.09678,-1.07893 -0.37954,-1.34563c-0.84534,-0.48305 -5.3998,-4.05416 -9.05717,-6.9007c1.39307,-0.48426 2.53169,-1.51073 3.15707,-2.84654c2.52341,1.26248 4.73353,3.07185 6.4694,5.29628c1.89235,2.38471 4.26756,4.34244 6.96971,5.74483c3.9679,1.82869 6.03811,6.74543 7.03871,9.48846c0.31985,1.0075 -0.19184,2.09109 -1.17312,2.48425c-5.50123,2.26119 -11.13462,1.74932 -14.94639,1.40308c-0.08505,-0.00776 -0.16924,-0.01536 -0.25239,-0.02295c-1.12136,-0.08626 -2.08746,-0.18977 -2.84654,-0.18977zM227.92,210.10698c2.98524,1.73311 6.1204,3.19381 9.3677,4.36469l0.0345,-0.05176c0.47045,0.12887 0.77115,0.58812 0.70094,1.07081c-0.07021,0.48288 -0.48926,0.8374 -0.97696,0.82688h-0.27603c-3.38048,-1.2052 -6.6433,-2.71836 -9.74724,-4.51995c-2.08384,-1.18986 -4.24531,-2.23893 -6.4694,-3.13981c-0.48875,-0.18304 -0.74372,-0.72129 -0.57604,-1.21539c0.16786,-0.49426 0.698,-0.7658 1.1971,-0.6133c2.32105,0.93642 4.57482,2.03157 6.74543,3.27783z" data-paper-data="{&quot;isPathIcon&quot;:true}" style="fill: rgb(255, 255, 255);"></path></g></svg>