<svg class="svg-standalone-icon" width="100%" viewBox="64.99999999999997 195.0265229001745 106.76535596458649 79.946954199651"><g data-paper-data="{&quot;isIcon&quot;:&quot;true&quot;,&quot;iconType&quot;:&quot;icon&quot;,&quot;rawIconId&quot;:&quot;429781&quot;,&quot;selectedEffects&quot;:{&quot;container&quot;:&quot;&quot;,&quot;transformation&quot;:&quot;&quot;,&quot;pattern&quot;:&quot;&quot;},&quot;combineTerms&quot;:&quot;수달&quot;,&quot;isDetailed&quot;:false,&quot;fillRule&quot;:&quot;evenodd&quot;,&quot;bounds&quot;:{&quot;x&quot;:64.99999999999997,&quot;y&quot;:195.0265229001745,&quot;width&quot;:106.76535596458649,&quot;height&quot;:79.946954199651},&quot;iconStyle&quot;:&quot;standalone&quot;,&quot;suitableAsStandaloneIcon&quot;:true}" fill-rule="evenodd"><path d="M171.68835,229.19846c-2.16632,-2.47365 -5.1422,-3.20325 -6.39526,-3.40814c-0.00375,-0.40228 -0.02624,-0.81456 -0.07746,-1.24058c-0.01249,-0.10495 -0.03748,-0.20489 -0.05747,-0.30733c0.94448,-0.32232 3.61553,-0.94074 5.6844,1.42422c0.06372,0.07121 0.14867,0.10744 0.23612,0.10744c0.07246,0 0.14617,-0.02624 0.20614,-0.07746c0.12868,-0.11369 0.14242,-0.31108 0.02749,-0.44101c-2.24627,-2.56735 -5.17967,-1.97393 -6.30031,-1.61787c-0.21488,-0.70461 -0.57344,-1.37175 -1.04693,-2.01015c1.17936,-0.68088 4.03905,-1.95268 6.00173,0.29109c0.06247,0.07121 0.14742,0.10744 0.23487,0.10744c0.07246,0 0.14617,-0.02624 0.20614,-0.07746c0.12993,-0.11369 0.14242,-0.31108 0.02874,-0.44101c-2.27876,-2.60233 -5.5957,-1.09565 -6.85876,-0.3698c-1.84024,-2.16007 -4.96854,-4.00782 -8.22176,-5.92552c-2.46741,-1.45421 -5.01726,-2.95714 -6.91248,-4.585c-13.41518,-11.53121 -26.86285,-16.71838 -39.98319,-15.40035c-16.64342,1.66784 -26.93031,13.35772 -29.6863,16.90078c-15.57775,20.02907 -14.18851,43.75113 -13.26651,59.44632l0.15991,2.80222c0.01624,0.33232 0.29359,0.59718 0.62341,0.59718h0.03498c0.34356,0 0.60717,-0.32108 0.58843,-0.66464l-0.15991,-2.81097c-0.9095,-15.50904 -2.28375,-38.9475 13.00541,-58.60303c2.67854,-3.44437 12.67559,-14.80692 28.82303,-16.42354c12.76804,-1.2743 25.90087,3.80293 39.0462,15.10427c1.97892,1.70032 4.57875,3.23199 7.09488,4.71368c4.36012,2.56985 8.87016,5.2284 9.25121,8.41041c0.57469,4.76615 -2.12759,7.56462 -4.97853,8.71524c0.44226,-2.08886 0.30233,-4.71743 -0.57219,-8.05186c4.0278,-1.62287 3.06707,-3.61178 0.78332,-5.37332c-2.15857,-1.66372 -3.62727,-1.45533 -5.90515,-1.13213c-0.37854,0.05372 -0.77957,0.11069 -1.20972,0.16266c-3.86539,0.46599 -6.01422,2.21504 -5.06599,4.95855c0.96947,2.80222 4.31764,3.59679 10.02329,1.86898c0.07121,-0.02124 0.12868,-0.04373 0.19614,-0.06497c2.61857,10.08575 -1.96518,12.68808 -8.7115,15.18047c-3.73921,1.37925 -9.09504,1.26181 -13.16407,0.87827c4.86735,-5.30961 9.43485,-9.10503 9.52106,-9.17625c0.13118,-0.10869 0.15117,-0.30609 0.04123,-0.43976c-0.10869,-0.13243 -0.30358,-0.15242 -0.44101,-0.04123c-0.08745,0.07246 -4.87234,4.05029 -9.8921,9.57853c-0.94698,-0.10119 -1.79902,-0.21113 -2.52862,-0.31608c5.953,-5.77935 11.45625,-9.94333 11.55994,-10.02204c0.13617,-0.1037 0.16616,-0.29859 0.06247,-0.43726c-0.10495,-0.13617 -0.29983,-0.16491 -0.43976,-0.06122c-0.10619,0.07996 -5.83932,4.41884 -11.95473,10.40682c-1.03944,-0.16241 -1.69283,-0.28859 -1.72031,-0.29484c-0.34356,-0.07246 -0.66713,0.15117 -0.73585,0.48973c-0.06996,0.33856 0.14867,0.66713 0.48973,0.73585c0.07121,0.01499 0.38354,0.07621 0.86827,0.16116c-4.9473,4.97229 -9.93958,10.9128 -12.24457,16.46852c-0.06622,0.15991 0.00874,0.34106 0.16866,0.40728c0.03873,0.01749 0.07871,0.02499 0.11993,0.02499c0.12243,0 0.23862,-0.07246 0.28859,-0.1924c2.31874,-5.5907 7.4172,-11.59493 12.41573,-16.57971c0.70087,0.11369 1.59413,0.24362 2.62107,0.36855c-3.97159,4.52503 -7.89819,9.91584 -9.58727,15.02306c-0.05372,0.16366 0.03498,0.33981 0.19989,0.39354c0.03123,0.01124 0.06372,0.01624 0.09744,0.01624c0.12993,0 0.25361,-0.08121 0.29609,-0.21488c1.69783,-5.1447 5.72313,-10.59672 9.74469,-15.133c1.78528,0.19489 3.88788,0.35231 6.05045,0.35231c0.22738,0 0.456,-0.01499 0.68463,-0.01874c-0.78582,2.21504 -2.73726,8.30172 -2.86344,14.34593c-0.14867,7.26979 3.04084,16.46977 3.17577,16.85706c0.0912,0.25736 0.33232,0.41852 0.59093,0.41852c0.06871,0 0.13617,-0.01124 0.20614,-0.03498c0.32607,-0.11369 0.49723,-0.46975 0.38354,-0.79582c-0.03248,-0.09245 -3.25198,-9.37739 -3.1058,-16.4198c0.12993,-6.27657 2.36996,-12.80177 2.95714,-14.40839c2.33373,-0.11869 4.63372,-0.45475 6.56517,-1.16687c4.32764,-1.59788 8.08184,-3.4019 9.58228,-7.2448c2.11759,-0.6284 4.129,-1.99016 5.39456,-4.02905c0.90575,0.54845 2.76224,1.96518 3.45686,4.6737c0.03748,0.13992 0.16366,0.23487 0.30358,0.23487c0.02624,0 0.05122,-0.00375 0.07871,-0.00999c0.16741,-0.04248 0.26736,-0.21238 0.22488,-0.37979c-0.76084,-2.96713 -2.76099,-4.48006 -3.75545,-5.06974c0.20614,-0.39354 0.38479,-0.80831 0.53471,-1.24557c1.08066,0.21113 3.57305,1.01445 5.13969,4.0378c0.05497,0.10619 0.16491,0.16866 0.27735,0.16866c0.04872,0 0.09744,-0.01124 0.14367,-0.03498c0.15242,-0.07996 0.21238,-0.26736 0.13118,-0.42102c-1.6591,-3.20825 -4.25893,-4.10401 -5.4995,-4.35388c0.16866,-0.63591 0.26861,-1.31678 0.30358,-2.03389c1.21934,0.21738 3.96909,0.93824 5.93426,3.18326c0.06247,0.07121 0.14742,0.10744 0.23487,0.10744c0.07246,0 0.14617,-0.02624 0.20614,-0.07746c0.13118,-0.11494 0.14492,-0.31358 0.03123,-0.44351zM129.45638,218.588c0,-1.96393 -2.02764,-3.55681 -4.52753,-3.55681c-2.49989,0 -4.52753,1.59288 -4.52753,3.55681c0,1.96518 2.02764,3.55806 4.52753,3.55806c2.49989,0 4.52753,-1.59413 4.52753,-3.55806zM123.12484,219.2339c-1.62661,-0.68962 -1.06692,-3.6655 1.80401,-3.1258c4.03905,0.75709 4.19146,3.77294 4.19146,3.77294c0,0 -0.98946,-1.88897 -2.3737,-1.89772c-0.66227,-0.00412 -0.96323,0.38616 -1.26256,0.77408c-0.43126,0.55919 -0.85903,1.11377 -2.35922,0.47649zM139.9694,227.27326c-0.08495,-0.15117 -0.2786,-0.20364 -0.42727,-0.11869c-1.22308,0.69212 -30.07609,17.02322 -35.86418,23.4547c-0.11494,0.12868 -0.10495,0.32607 0.02374,0.44101c0.05996,0.05372 0.13492,0.07996 0.20864,0.07996c0.0862,0 0.16991,-0.03498 0.23237,-0.1037c5.72063,-6.35528 35.40943,-23.15862 35.70802,-23.32727c0.14992,-0.08495 0.20239,-0.2761 0.11869,-0.42602zM141.21372,228.51508c0.08745,0.14742 0.04123,0.33856 -0.10495,0.42852c-0.30108,0.1824 -30.09483,18.34749 -34.53366,30.71075c-0.04497,0.12743 -0.16491,0.20614 -0.29359,0.20614c-0.03498,0 -0.07121,-0.00625 -0.10495,-0.01874c-0.16241,-0.05872 -0.24736,-0.23612 -0.18865,-0.39853c1.89772,-5.28961 8.33545,-12.12089 19.13331,-20.31017c8.02187,-6.07919 15.5865,-10.67793 15.66146,-10.72415c0.14867,-0.08745 0.34231,-0.04123 0.43102,0.10619zM142.37684,230.18042c0.13867,-0.09994 0.1749,-0.29484 0.07496,-0.43601c-0.10119,-0.13992 -0.29609,-0.17365 -0.43601,-0.07371c-0.24362,0.1724 -24.51413,17.46798 -29.98365,29.90744c-0.06996,0.15741 0.0025,0.34106 0.15991,0.41103c0.04123,0.01999 0.0837,0.02624 0.12618,0.02624c0.11993,0 0.23362,-0.06996 0.28609,-0.18615c5.39956,-12.28205 29.53014,-29.47642 29.77251,-29.64882z" data-paper-data="{&quot;isPathIcon&quot;:true}" style="fill: rgb(255, 255, 255);"></path></g></svg>