<svg xmlns:mydata="http://www.w3.org/2000/svg" mydata:contrastcolor="e6f9fb" mydata:template="Contrast" mydata:presentation="2.5" mydata:layouttype="undefined" mydata:specialfontid="undefined" mydata:id1="559" mydata:id2="589" mydata:companyname="asap" mydata:companytagline="" version="1.1" xmlns="http://www.w3.org/2000/svg" xmlns:xlink="http://www.w3.org/1999/xlink" viewBox="0 35 550 400"><g fill="none" fill-rule="none" stroke="none" stroke-width="1" stroke-linecap="butt" stroke-linejoin="miter" stroke-miterlimit="10" stroke-dasharray="" stroke-dashoffset="0" font-family="none" font-weight="none" font-size="none" text-anchor="none" style="mix-blend-mode: normal"><g data-paper-data="{&quot;isGlobalGroup&quot;:true,&quot;bounds&quot;:{&quot;x&quot;:134.01018400005216,&quot;y&quot;:120.34616612033994,&quot;width&quot;:281.9796319998957,&quot;height&quot;:229.3076677593201}}"><g data-paper-data="{&quot;isPrimaryText&quot;:true}"><path d="M169.60822,268.18916h-3.34406l-0.10787,0.43149l28.90992,77.77633h-3.34406l-27.29183,-73.35354l-30.42014,76.58972h18.01477v-2.26533c-3.5598,-0.10787 -5.93301,-0.64724 -7.5511,-1.72597c-1.61809,-1.07873 -2.48108,-2.3732 -2.48108,-4.85428c0,-2.48108 0.75511,-4.63853 2.26533,-8.52196l4.74641,-11.97389h23.94777l11.00303,29.34142h22.22181v-2.26533c-3.45193,-0.21575 -7.98259,-2.58895 -9.9243,-7.44323zM150.19111,317.27131l11.1109,-28.04694l10.57154,28.04694z" data-paper-data="{&quot;glyphName&quot;:&quot;A&quot;,&quot;glyphIndex&quot;:0,&quot;firstGlyphOfWord&quot;:true,&quot;word&quot;:1}" fill="#00c1d5" fill-rule="nonzero"></path><g data-paper-data="{&quot;glyphName&quot;:&quot;S&quot;,&quot;glyphIndex&quot;:1,&quot;word&quot;:1}" fill-rule="evenodd"><path d="M230.34064,269.48364c2.91257,-1.40235 6.79599,-2.15746 10.46367,-2.15746c5.28577,0 9.27707,1.72597 11.43452,2.91257c1.07873,0.53936 2.48108,1.29447 3.5598,1.94171c1.72597,1.07873 2.48108,1.40235 3.34406,1.40235c0.75511,0 1.1866,-0.43149 1.51022,-1.1866c0.32362,-0.75511 0.53936,-2.15746 0.75511,-3.88342h3.23619c-0.43149,4.74641 -0.53936,12.2975 -0.53936,23.19266h-3.23619c-0.32362,-4.31491 -1.07873,-7.44323 -2.48108,-10.67941c-1.29447,-3.23619 -2.69682,-4.96215 -5.28577,-7.01174c-2.69682,-1.94171 -6.90386,-3.88342 -11.97389,-3.9913c-3.66768,-0.10787 -6.90386,0.86298 -9.27707,1.94171c-2.26533,1.07873 -5.93301,3.77555 -6.25663,9.70856c-0.21575,3.34406 0.97086,7.76685 3.66768,10.46367c3.23619,3.34406 15.31794,9.81643 18.44626,11.32665c2.80469,1.40235 9.27707,4.63853 11.97389,6.79599c2.80469,2.15746 4.53066,3.5598 6.58024,7.33535c1.1866,2.26533 2.48108,6.68812 2.3732,10.35579c-0.10787,1.51022 -0.32362,2.69682 -0.75511,3.9913c0.10787,-2.04958 0.10787,-2.69682 -0.21575,-4.53066c-1.07873,-4.96215 -3.88342,-9.49281 -7.87472,-13.05261c-3.12831,-2.80469 -8.30621,-5.39364 -13.80772,-8.19834c-5.28577,-2.58895 -12.40538,-6.68812 -14.88645,-8.30621l-0.02517,-0.01843c-3.1364,-2.2709 -9.2501,-6.69774 -8.49678,-17.02548c0.32362,-4.42279 2.69682,-8.62983 7.76685,-11.32665z" fill="#00c1d5"></path><path d="M249.86563,348.87806c5.50152,-1.1866 9.38494,-3.77555 12.08176,-7.87472c5.71726,-8.95345 1.72597,-18.76988 -4.31491,-24.05565c-2.80469,-2.48108 -7.87472,-5.07002 -13.16049,-7.76685c-5.39364,-2.69682 -12.18963,-6.3645 -15.96518,-9.06132l-0.07551,-0.05502c-3.26585,-2.39469 -10.05788,-7.37383 -9.20155,-19.46997c0.21575,-2.3732 0.97086,-4.74641 2.26533,-6.90386c-0.86298,0.86298 -1.72597,1.83384 -2.48108,2.91257c-1.83384,2.91257 -3.5598,6.3645 -3.5598,10.57154c0,3.9913 0.75511,9.16919 3.23619,13.16049c1.72597,2.91257 3.9913,5.50152 6.68812,7.5511c4.85428,3.88342 15.1022,8.62983 24.37926,14.02347c2.58895,1.61809 8.52196,5.50152 8.41408,12.18963c-0.10787,3.23619 -1.1866,5.60939 -2.48108,7.22748c-2.15746,2.69682 -7.22748,5.1779 -14.77858,5.07002c-6.58024,0 -12.729,-2.69682 -16.61242,-7.11961c-3.77555,-4.20704 -4.31491,-9.70856 -4.85428,-17.4754h-3.23619c0,14.23922 -0.21575,22.6533 -0.43149,26.86034h3.23619c0.21575,-1.61809 0.53936,-2.91257 0.86298,-3.66768c0.43149,-0.75511 0.86298,-1.29447 1.51022,-1.29447c0.11057,0 0.20586,-0.00356 0.29216,-0.0068c0.58431,-0.02193 0.7677,-0.02883 2.83616,1.1934c2.80469,1.61809 4.09917,2.04958 5.1779,2.48108c2.3732,1.07873 6.14875,2.15746 11.21878,2.26533c2.58895,0.10787 5.93301,-0.21575 8.95345,-0.75511z" fill="#5f259f"></path></g><path d="M309.19569,268.18916h-3.34406l-0.10787,0.43149l28.90992,77.77633h-3.34406l-27.29183,-73.35354l-30.42014,76.58972h18.01477v-2.26533c-3.5598,-0.10787 -5.93301,-0.64724 -7.5511,-1.72597c-1.61809,-1.07873 -2.48108,-2.3732 -2.48108,-4.85428c0,-2.48108 0.75511,-4.63853 2.26533,-8.52196l4.74641,-11.97389h23.94777l11.00303,29.34142h22.22181v-2.26533c-3.45193,-0.21575 -7.98259,-2.58895 -9.9243,-7.44323zM289.77858,317.27131l11.1109,-28.04694l10.57154,28.04694z" data-paper-data="{&quot;glyphName&quot;:&quot;A&quot;,&quot;glyphIndex&quot;:2,&quot;word&quot;:1}" fill="#00c1d5" fill-rule="nonzero"></path><path d="M412.8615,278.86858c-2.04958,-3.34406 -5.1779,-6.04088 -9.38494,-7.87472c-4.09917,-1.94171 -9.16919,-2.80469 -15.21007,-2.80469c-1.29447,0 -3.88342,0 -7.44323,0.10787h-6.79599v41.85467h3.66768l-0.10787,-29.0178c0,-2.69682 -0.21575,-3.45193 0.43149,-5.1779c0.53936,-1.40235 2.04958,-3.5598 4.53066,-4.53066c1.51022,-0.53936 3.34406,-1.07873 5.71726,-0.97086c4.09917,0 6.79599,1.40235 9.16919,3.12831c2.69682,1.94171 4.53066,4.53066 5.82513,7.11961c1.51022,2.91257 2.26533,5.50152 2.26533,11.21878c0,6.79599 -2.26533,12.51325 -5.93301,15.85731c-2.69682,2.58895 -6.68812,5.60939 -14.99433,5.71726h-10.57154l0.10787,33.00909h-3.02044l-0.10787,-78.31569h-8.52196v69.25437c0,2.91257 -0.10787,5.07002 -0.53936,6.3645c-0.43149,1.29447 -1.29447,2.15746 -2.48108,2.69682c-1.29447,0.43149 -3.66768,0.75511 -6.04088,0.86298v2.26533h24.27139v-33.00909h8.09046c7.33535,0 13.26836,-1.1866 17.79902,-3.77555c4.53066,-2.58895 7.65897,-5.71726 9.60068,-9.60068c1.83384,-3.88342 2.80469,-8.19834 2.80469,-12.40538c0,-4.42279 -1.07873,-8.52196 -3.12831,-11.97389z" data-paper-data="{&quot;glyphName&quot;:&quot;P&quot;,&quot;glyphIndex&quot;:3,&quot;lastGlyphOfWord&quot;:true,&quot;word&quot;:1}" fill="#00c1d5" fill-rule="nonzero"></path></g><g data-paper-data="{&quot;isIcon&quot;:&quot;true&quot;,&quot;iconType&quot;:&quot;icon&quot;,&quot;rawIconId&quot;:&quot;1043293&quot;,&quot;selectedEffects&quot;:{&quot;container&quot;:&quot;&quot;,&quot;transformation&quot;:&quot;&quot;,&quot;pattern&quot;:&quot;&quot;},&quot;combineTerms&quot;:&quot;수달&quot;,&quot;isDetailed&quot;:true,&quot;iconStyle&quot;:&quot;standalone&quot;,&quot;bounds&quot;:{&quot;x&quot;:197.36716400963758,&quot;y&quot;:120.34616612033994,&quot;width&quot;:155.26567198072485,&quot;height&quot;:117.0703181792901},&quot;fillRule&quot;:&quot;evenodd&quot;,&quot;suitableAsStandaloneIcon&quot;:true}" fill="#00c1d5" fill-rule="evenodd"><path d="M197.36716,189.0345v-1.26179c0.10446,-1.38738 0.55304,-2.74424 1.32838,-3.94012c1.60162,-2.17493 3.75866,-3.87906 6.24513,-4.934c0.31288,-0.19736 0.71095,-0.19857 1.02513,-0.00345c0.31419,0.19529 0.48934,0.55275 0.45108,0.92055c-0.03827,0.36798 -0.28324,0.68179 -0.63088,0.80807c-2.17581,0.9228 -4.06434,2.41214 -5.4688,4.31294c-1.04865,1.64219 -1.3081,3.66703 -0.70732,5.52056c1.31113,4.58896 6.53841,9.29869 14.3362,12.92155l-0.01725,0.01725c0.38913,0.26827 0.52707,0.77857 0.32604,1.20641c-0.20104,0.42767 -0.68203,0.64712 -1.13687,0.51876c-8.4706,-3.91614 -13.88765,-8.97091 -15.3713,-14.14643c-0.20442,-0.6359 -0.33034,-1.28698 -0.37954,-1.9403zM352.63284,211.59667v1.95255c-0.05866,0.41559 -0.15906,0.83412 -0.31053,1.25023c-1.06961,2.65677 -3.89889,4.45095 -8.4016,5.34804c-7.98756,1.62166 -8.29809,4.17492 -8.62587,6.9007c-0.06538,1.65996 -0.67127,3.25316 -1.72517,4.5372c-2.5015,2.82928 -9.4022,5.83109 -18.02807,5.83109c-4.81928,0.00138 -9.59145,-0.94833 -14.04292,-2.79478c-0.39472,-0.06711 -0.70715,-0.37091 -0.78547,-0.76357c-0.07832,-0.39282 0.09385,-0.79307 0.43267,-1.00646c0.339,-0.21323 0.77426,-0.19546 1.09462,0.04486c14.18093,5.88285 27.11973,0.5693 29.88002,-2.53601c0.74855,-0.99577 1.15949,-2.2046 1.17312,-3.45034c0.4658,-3.84714 1.58716,-6.9007 10.21303,-8.62587c3.74363,-0.72457 6.08986,-2.17372 6.9007,-4.17492c1.13862,-2.79478 -1.08686,-6.05536 -1.08686,-6.05536c-0.30484,-0.43837 -0.19667,-1.0408 0.24152,-1.34563c0.43837,-0.30484 1.0408,-0.19685 1.34563,0.24152c0,0.02467 0.05693,0.12646 0.15044,0.29379c0.37074,0.66281 1.31682,2.35435 1.57474,4.35296zM258.95588,120.34617h-1.20763c-6.89432,0.04756 -13.64975,1.94196 -19.56347,5.48606c-4.35572,2.83838 -8.89085,5.39124 -13.57712,7.64252c-2.79012,-0.5577 -5.66323,-0.5577 -8.45335,0c-1.70399,0.73643 -2.76559,2.4598 -2.65677,4.31294c0,1.94945 1.12136,6.74543 10.9376,10.16128v1.72517l-2.51875,4.98575c-4.43663,9.53297 -7.23607,19.74496 -8.28084,30.2078c-0.18547,1.74571 0.63742,3.445 2.12196,4.38194c3.03993,1.91166 6.22391,3.58439 9.52296,5.003c1.60441,2.98455 7.65978,5.17552 11.23089,6.26238c7.39979,2.12473 15.05645,3.22193 22.75505,3.26058c7.10772,-0.06901 14.00841,-1.20763 18.32135,-4.17492c0.51755,-0.36229 1.0006,-0.72457 1.4664,-1.06961l5.53781,-0.4313c0,0 5.83109,-0.5693 17.35526,-2.74302c3.23108,-0.53963 6.40281,-1.38877 9.47121,-2.53601c1.15811,-0.47304 2.06935,-1.40308 2.51875,-2.57051c0.46131,-1.19037 0.41766,-2.5172 -0.12077,-3.67462c-1.41067,-3.1926 -3.46639,-6.05899 -6.03811,-8.41885c-1.79746,-1.86802 -3.07081,-4.17682 -3.69188,-6.69367c-0.50082,-1.5292 -1.10601,-3.02199 -1.81143,-4.4682c-1.86319,-6.41765 -5.53781,-15.23329 -9.868,-19.18394c5.17552,-2.07021 8.09106,-4.51995 8.91915,-7.31474c0.49978,-1.8242 0.10282,-3.77746 -1.06961,-5.26178c-1.43189,-1.94945 -6.03811,-2.57051 -9.07442,-1.72517c-1.08686,-0.60381 -5.003,-2.81203 -12.61102,-7.60802c-5.92166,-3.578 -12.69676,-5.49675 -19.61523,-5.55506zM257.76551,122.29562c-6.52754,0.03918 -12.92535,1.82629 -18.52837,5.17552c-4.30414,2.80491 -8.77492,5.34559 -13.38735,7.60802c0.57465,4.81928 0.74769,9.67805 0.51755,14.52597c0.04175,0.15837 0.04175,0.32468 0,0.48305c-0.05176,2.22548 -0.13802,4.64072 -0.29328,7.40099c-0.27603,4.83049 3.86439,8.83289 12.28324,11.8692c1.17639,0.43112 2.32829,0.92642 3.45034,1.48365c6.31241,2.75131 13.16601,4.03708 20.04652,3.76088c0.96609,-0.69007 1.77693,-1.36289 2.55326,-2.0012c2.87845,-2.72491 6.57964,-4.41765 10.52357,-4.81324c1.52799,-0.19581 3.07771,-0.14336 4.58896,0.15527c-0.04244,-0.23911 0.0069,-0.48564 0.13802,-0.69007c0.22427,-0.36229 0.48305,-0.69007 0.72457,-1.0006l0.31053,-0.37954l0.41404,-0.4658l0.44855,-0.48305l0.67282,-0.63831c2.3571,-1.85335 5.07891,-3.18778 7.98756,-3.91614v-0.10351c0.20789,-0.9171 0.36901,-1.84404 0.48305,-2.77753c-0.55205,-15.12978 -0.63831,-20.70209 -0.63831,-22.42726c-1.32838,-0.69007 -5.19278,-2.95005 -12.55927,-7.59077c-5.60268,-3.35001 -12.00065,-5.13719 -18.52837,-5.17552zM216.77537,135.25168c-0.89813,0.48087 -1.42137,1.45249 -1.32838,2.467c0,1.15587 0.70732,5.05476 9.00541,8.03931c0.08367,-3.51056 -0.09505,-7.0225 -0.5348,-10.50631c-2.35935,-0.45205 -4.78287,-0.45205 -7.14222,0zM299.41121,139.96141c0.32278,-1.24609 0.03468,-2.57149 -0.77633,-3.57111c-0.74183,-1.01785 -4.10592,-1.67342 -6.65917,-1.15587c0,1.25938 0.05176,4.29568 0.24152,10.54082c5.14102,-2.19097 6.76268,-4.34744 7.19398,-5.81384zM274.97671,144.05576c0.00598,-0.10949 0.00822,-0.21887 0.00673,-0.32813c-0.0015,-0.10938 -0.00667,-0.21812 -0.01553,-0.32623c-0.00897,-0.10811 -0.0215,-0.21513 -0.03761,-0.32106c-0.0161,-0.10592 -0.03583,-0.21024 -0.05917,-0.31295c-0.02324,-0.10259 -0.04992,-0.20311 -0.08005,-0.30156c-0.03025,-0.09845 -0.06378,-0.19431 -0.10058,-0.28758c-0.03681,-0.09328 -0.07671,-0.1835 -0.11973,-0.27068c-0.04302,-0.08707 -0.08896,-0.17074 -0.13784,-0.25101c-0.04899,-0.08028 -0.10058,-0.1567 -0.15475,-0.22927c-0.05429,-0.07257 -0.11098,-0.14095 -0.1701,-0.20512c-0.05912,-0.06418 -0.12042,-0.12381 -0.1839,-0.1789c-0.06337,-0.0552 -0.12858,-0.10558 -0.19563,-0.15113c-0.06705,-0.04566 -0.13566,-0.08632 -0.20581,-0.12197c-0.07004,-0.03566 -0.14129,-0.06614 -0.21375,-0.09144c-0.07245,-0.0253 -0.14572,-0.04531 -0.21979,-0.06003c-0.07419,-0.01472 -0.14877,-0.0241 -0.22375,-0.02812c-0.38103,-0.02059 -0.74677,0.09057 -1.09721,0.33348c-0.09512,0.06602 -0.18701,0.14083 -0.27568,0.22444c-0.08867,0.08373 -0.17332,0.1755 -0.25394,0.27534c-0.08062,0.09983 -0.15648,0.20684 -0.22755,0.32106c-0.07108,0.11421 -0.13669,0.23451 -0.19685,0.36091c-0.06027,0.12651 -0.11456,0.25797 -0.16286,0.39437c-0.0483,0.13652 -0.09017,0.27671 -0.12559,0.4206c-0.03542,0.14388 -0.06412,0.29023 -0.08609,0.43906c-0.02208,0.14871 -0.03715,0.29851 -0.0452,0.44941c-0.00587,0.10949 -0.00805,0.21887 -0.00655,0.32813c0.0015,0.10938 0.00667,0.21812 0.01553,0.32623c0.00886,0.10811 0.02133,0.21513 0.03743,0.32106c0.0161,0.10592 0.03583,0.21024 0.05917,0.31295c0.02324,0.10259 0.04997,0.20311 0.08022,0.30156c0.03013,0.09845 0.0636,0.19431 0.1004,0.28758c0.03681,0.09328 0.07671,0.1835 0.11973,0.27068c0.04302,0.08707 0.08902,0.17074 0.13802,0.25101c0.04888,0.08028 0.10046,0.1567 0.15475,0.22927c0.05417,0.07257 0.11081,0.14095 0.16993,0.20512c0.05912,0.06418 0.12042,0.12381 0.1839,0.1789c0.06337,0.0552 0.12858,0.10558 0.19563,0.15113c0.06705,0.04566 0.13566,0.08632 0.20581,0.12197c0.07004,0.03566 0.14129,0.06614 0.21375,0.09144c0.07245,0.0253 0.14572,0.04531 0.21979,0.06003c0.07419,0.01472 0.14877,0.0241 0.22375,0.02812c0.38103,0.02059 0.74677,-0.09057 1.09721,-0.33348c0.09512,-0.06602 0.18701,-0.14083 0.27568,-0.22444c0.08867,-0.08373 0.17332,-0.1755 0.25394,-0.27534c0.08062,-0.09983 0.15648,-0.20684 0.22755,-0.32106c0.07108,-0.11421 0.13669,-0.23451 0.19685,-0.36091c0.06027,-0.12651 0.11456,-0.25797 0.16286,-0.39437c0.0483,-0.13652 0.09017,-0.27671 0.12559,-0.4206c0.03542,-0.14388 0.06418,-0.29023 0.08626,-0.43906c0.02197,-0.14871 0.03698,-0.29851 0.04503,-0.44941zM244.17303,147.24285c0.07441,-0.00989 0.14802,-0.02508 0.22082,-0.04555c0.07269,-0.02047 0.14416,-0.04618 0.21444,-0.07711c0.07016,-0.03094 0.13882,-0.06688 0.20598,-0.10782c0.06705,-0.04106 0.13221,-0.08695 0.19546,-0.13767c0.06337,-0.05072 0.1245,-0.10604 0.18338,-0.16596c0.05888,-0.05992 0.1153,-0.12421 0.16924,-0.19287c0.05382,-0.06855 0.10495,-0.14112 0.15337,-0.21771c0.04842,-0.0766 0.0939,-0.15682 0.13646,-0.24066c0.04244,-0.08384 0.08172,-0.17091 0.11783,-0.26119c0.03611,-0.09029 0.06884,-0.18333 0.09816,-0.27914c0.02933,-0.09592 0.0552,-0.19408 0.07763,-0.29448c0.02243,-0.10052 0.04118,-0.20288 0.05624,-0.30708c0.01518,-0.1042 0.02668,-0.20973 0.0345,-0.31657c0.00782,-0.10685 0.0119,-0.2145 0.01225,-0.32295c0.00034,-0.10857 -0.00299,-0.21737 -0.01001,-0.3264c-0.00702,-0.10914 -0.01777,-0.21806 -0.03226,-0.32675c-0.01449,-0.10857 -0.03255,-0.21645 -0.05417,-0.32364c-0.02162,-0.10719 -0.04681,-0.21312 -0.07556,-0.31777c-0.02864,-0.10455 -0.06072,-0.20743 -0.09626,-0.30864c-0.03542,-0.10109 -0.07407,-0.19995 -0.11593,-0.29656c-0.04175,-0.0965 -0.08661,-0.19035 -0.13456,-0.28155c-0.04785,-0.0912 -0.09845,-0.17918 -0.15182,-0.26395c-0.05336,-0.08488 -0.10926,-0.16619 -0.16769,-0.24394c-0.05843,-0.07775 -0.1191,-0.15153 -0.182,-0.22134c-0.0628,-0.06982 -0.12761,-0.13537 -0.19442,-0.19667c-0.06671,-0.06118 -0.13503,-0.11789 -0.20495,-0.1701c-0.07004,-0.0521 -0.14129,-0.09942 -0.21375,-0.14198c-0.07257,-0.04244 -0.146,-0.07988 -0.22031,-0.11231c-0.07429,-0.03243 -0.14923,-0.05969 -0.22479,-0.08177c-0.07545,-0.02208 -0.15113,-0.03887 -0.22703,-0.05038c-0.07579,-0.0115 -0.15147,-0.01765 -0.22703,-0.01846c-0.07556,-0.00069 -0.15061,0.00391 -0.22514,0.0138c-0.07453,0.00989 -0.14813,0.02508 -0.22082,0.04555c-0.07269,0.02047 -0.14416,0.04618 -0.21444,0.07711c-0.07027,0.03094 -0.13893,0.06688 -0.20598,0.10782c-0.06705,0.04106 -0.13226,0.08695 -0.19563,0.13767c-0.06326,0.05072 -0.12433,0.10604 -0.18321,0.16596c-0.05888,0.06003 -0.1153,0.12433 -0.16924,0.19287c-0.05394,0.06855 -0.10512,0.14112 -0.15354,0.21771c-0.04842,0.0766 -0.09385,0.15682 -0.13629,0.24066c-0.04244,0.08384 -0.08172,0.17091 -0.11783,0.26119c-0.03611,0.09029 -0.06884,0.18333 -0.09816,0.27914c-0.02945,0.09592 -0.05532,0.19408 -0.07763,0.29448c-0.02243,0.10052 -0.04123,0.20288 -0.05642,0.30708c-0.01518,0.1042 -0.02663,0.20973 -0.03433,0.31657c-0.00782,0.10685 -0.0119,0.2145 -0.01225,0.32295c-0.00046,0.10857 0.00287,0.21737 0.01001,0.3264c0.00702,0.10914 0.01777,0.21806 0.03226,0.32675c0.01438,0.10857 0.03243,0.21645 0.05417,0.32364c0.02162,0.10719 0.04681,0.21312 0.07556,0.31777c0.02864,0.10466 0.06067,0.20754 0.09609,0.30864c0.03554,0.10109 0.07419,0.19995 0.11593,0.29656c0.04187,0.09661 0.08672,0.19046 0.13456,0.28155c0.04785,0.0912 0.09851,0.17925 0.15199,0.26412c0.05336,0.08477 0.10926,0.16602 0.16769,0.24377c0.05843,0.07775 0.1191,0.15153 0.182,0.22134c0.0628,0.06982 0.12761,0.13537 0.19442,0.19667c0.06671,0.0613 0.13503,0.118 0.20495,0.1701c0.07004,0.0521 0.14129,0.09942 0.21375,0.14198c0.07245,0.04244 0.1459,0.07988 0.22031,0.11231c0.07429,0.03243 0.14917,0.05969 0.22462,0.08177c0.07556,0.02208 0.15124,0.03887 0.22703,0.05038c0.07591,0.0115 0.15164,0.01765 0.22721,0.01846c0.07556,0.00081 0.15061,-0.0038 0.22514,-0.0138zM254.74645,153.46952c-0.12629,0.50427 -0.51582,0.90037 -1.01785,1.0351c-0.68506,0.1544 -1.39773,-0.10109 -1.82869,-0.65556c-0.92849,-1.36271 -1.03441,-3.12481 -0.27603,-4.58896c0.17252,-0.51755 1.70792,-5.48606 6.50391,-5.48606c4.79599,0 6.52116,5.29628 6.52116,5.52056c0.81549,1.41879 0.73475,3.18156 -0.20702,4.51995c-0.40007,0.53359 -1.07167,0.78892 -1.72517,0.65556c-0.506,-0.12784 -0.89847,-0.52704 -1.01785,-1.0351c-0.10524,0.05676 -0.19891,0.13284 -0.27603,0.22427c-0.22427,0.32778 -1.01785,1.38014 -1.94945,2.81203c-0.27982,0.4287 -0.76512,0.67782 -1.27663,0.65556c-0.48719,-0.00172 -0.94091,-0.2479 -1.20763,-0.65556c-0.60864,-0.95816 -1.26507,-1.88527 -1.9667,-2.77753c-0.07711,-0.09144 -0.17079,-0.16752 -0.27603,-0.22427zM258.17955,145.77524c-3.32959,0 -4.67522,4.15767 -4.67522,4.15767c-0.32174,0.68938 -0.40663,1.46571 -0.24152,2.20822c0.23445,-0.3145 0.56913,-0.53963 0.94884,-0.63831c0.14888,-0.01846 0.29966,-0.01846 0.44855,0c0.7175,0.02778 1.38911,0.36039 1.84594,0.91434c0.6202,0.77184 1.19607,1.57819 1.72517,2.41524c0.53187,-0.83499 1.10774,-1.64133 1.72517,-2.41524c0.54429,-0.69266 1.42861,-1.0251 2.29449,-0.86259c0.37971,0.09868 0.71439,0.32381 0.94884,0.63831c0.16631,-0.76287 0.06901,-1.55956 -0.27603,-2.25998c0,-0.10351 -1.41464,-4.15767 -4.74423,-4.15767zM298.83552,162.90449c-1.48986,-4.39505 -3.65254,-8.53237 -6.41126,-12.26426c0.06901,2.0012 0.15527,4.22667 0.24152,6.72818c-0.05624,0.93056 -0.19477,1.85421 -0.41404,2.76028c2.40938,0.29794 4.68868,1.25903 6.58378,2.77581zM237.06342,198.58282c13.21483,3.9679 31.57069,4.83049 39.42023,-0.60381c1.53075,-1.09049 2.95194,-2.32691 4.24393,-3.69188c1.63409,-1.43344 2.82997,-3.29922 3.45034,-5.38254c0.33796,-1.04183 0.59173,-2.1092 0.75908,-3.19157l0.10351,-0.5348v-0.10351c0.57465,-1.81988 1.56715,-3.48002 2.89829,-4.84774c0.06607,-0.06798 0.14163,-0.12611 0.22427,-0.17252c1.10411,-0.65556 1.36289,-1.75968 0.77633,-3.26058c-1.0282,-2.37074 -2.86138,-4.30172 -5.17552,-5.45155h-0.20702c-2.54359,-1.45967 -5.48864,-2.06434 -8.4016,-1.72517c-3.58612,0.34486 -6.94935,1.89579 -9.54021,4.3992c-2.15026,1.85577 -4.50615,3.45915 -7.02146,4.77874c-0.09696,0.05193 -0.20185,0.08695 -0.31053,0.10351l-6.74543,2.98455c-1.58716,0.74183 -3.31234,1.5009 -5.03751,2.29449l-1.06961,0.5003c-0.45907,0.14647 -0.95592,-0.0678 -1.16449,-0.50237c-0.20858,-0.4344 -0.06504,-0.95609 0.33641,-1.2228l1.06961,-0.5003c1.72517,-0.81083 3.36409,-1.58716 5.08927,-2.31174l6.9007,-3.12256h0.20702l0.81083,-0.44855c-6.11488,-0.2448 -12.13263,-1.61321 -17.75204,-4.03691c-1.06616,-0.52549 -2.16044,-0.99215 -3.27783,-1.39739c-9.31594,-3.45034 -13.8704,-8.00481 -13.55987,-13.80139c0.10351,-1.06961 0.15527,-2.09896 0.15527,-3.08806l-0.62106,1.24213c-4.33571,9.32112 -7.07097,19.30556 -8.09106,29.53498c-0.0854,1.00457 0.40162,1.9717 1.25938,2.5015c3.05804,1.92202 6.26583,3.59509 9.59197,5.003c0.23704,0.10196 0.42336,0.29448 0.51755,0.5348c0.5348,1.34563 3.48485,3.5021 10.16128,5.52056zM258.20543,158.2241c0.27275,0 0.53273,0.11524 0.71595,0.31743c0.55205,0.65556 3.51935,3.55386 3.51935,3.55386c0.25291,0.24549 0.35193,0.60898 0.25877,0.94884c-0.52342,1.35081 -1.67842,2.35745 -3.08806,2.69127c-0.9159,0.32088 -1.91356,0.32088 -2.82928,0c-1.40964,-0.33382 -2.56465,-1.34046 -3.08806,-2.69127c-0.09316,-0.33986 0.00587,-0.70335 0.25877,-0.94884c0.08626,-0.10351 2.9328,-2.89829 3.53661,-3.55386c0.18321,-0.20219 0.4432,-0.31743 0.71595,-0.31743zM257.36872,163.90682c0.50185,0.18045 1.05081,0.18045 1.55266,0h0.05176c0.58242,-0.18666 1.11378,-0.50548 1.55266,-0.93159l-2.38074,-2.38074l-2.38074,2.38074c0.4532,0.43353 1.00319,0.75287 1.60441,0.93159zM312.074,187.40369c-1.30302,-2.94384 -3.2002,-5.5868 -5.57231,-7.76328h-0.01725c-2.0709,-2.04588 -3.55955,-4.60639 -4.31294,-7.41825c-0.61141,-1.99085 -1.46898,-3.89769 -2.55326,-5.67582c-1.90874,-2.46199 -4.73543,-4.04346 -7.83229,-4.38194c-3.08841,0.4582 -5.99636,1.73932 -8.41885,3.70913l-0.51755,0.5003l-0.34503,0.37954l-0.41404,0.4658l-0.27603,0.34503c-0.20702,0.27603 -0.4313,0.55205 -0.63831,0.86259c1.08168,0.33244 2.12783,0.77167 3.12256,1.31113h0.20702c1.22488,0.67282 5.29628,3.17432 6.31413,6.62467c0.97834,1.93789 0.3295,4.30172 -1.5009,5.4688c-1.10515,1.09428 -1.94341,2.42836 -2.44975,3.89889v0.4658c-0.17752,1.17001 -0.44855,2.32381 -0.81083,3.45034c-0.72216,2.38782 -2.09626,4.52669 -3.9679,6.17613l-0.55205,0.5348l2.88104,-0.20702c0.0345,0 5.74483,-0.55205 17.09647,-2.69127c3.10721,-0.51755 6.15749,-1.33201 9.10892,-2.43249c0.66643,-0.27448 1.19055,-0.81101 1.44915,-1.48365c0.29345,-0.68283 0.29345,-1.45639 0,-2.13922zM321.0104,207.39846c0.01345,-0.13353 0.05451,-0.26274 0.12077,-0.37954c1.98861,-4.08538 3.29974,-8.46698 3.88164,-12.97331c-4.44026,-6.24858 -3.92391,-15.14185 -3.83938,-16.59532c0.00569,-0.09954 0.00949,-0.16406 0.00949,-0.19064c0.02761,-0.29173 0.18615,-0.55516 0.43095,-0.71612c0.24498,-0.16113 0.54964,-0.20219 0.82843,-0.11196c0.32106,0.11403 0.67644,0.07591 0.96609,-0.10351c1.39739,-0.79358 2.41524,-3.81263 2.65677,-4.81324c0.03382,-0.13922 0.09868,-0.26895 0.18977,-0.37954c0.07487,-0.07746 0.16234,-0.14163 0.25877,-0.18977h0.22427c0.11973,-0.02277 0.24256,-0.02277 0.36229,0c0.09178,0.02692 0.17908,0.06763 0.25877,0.12077c1.43258,1.04994 3.38065,1.04994 4.81324,0c0.28827,-0.23083 0.68283,-0.27706 1.01665,-0.11938c0.33382,0.15768 0.54861,0.49202 0.55327,0.8612c0.10351,4.3992 2.58776,8.14282 5.72758,12.8698c0.98335,1.48365 2.0012,2.98455 3.05356,4.70973c3.18778,5.13498 1.91805,9.54694 0.90071,13.08147l-0.00363,0.01259c-0.575,1.53109 -0.83895,3.16155 -0.77633,4.79599c0.15423,0.94746 -0.14612,1.91235 -0.81083,2.60502c-1.43189,1.55266 -4.64072,2.29449 -9.937,2.29449c-1.70792,0 -3.62287,-0.06901 -5.77933,-0.22427c-1.5637,0.01846 -3.0665,-0.60502 -4.15767,-1.72517c-0.66764,-0.78634 -1.00733,-1.79936 -0.94884,-2.82928zM324.15021,178.17401c-0.39748,0.22427 -0.83895,0.3597 -1.29388,0.39679h0.01725c-0.08626,2.60502 0.05176,9.85075 3.69188,14.78474c0.14923,0.19719 0.2172,0.44423 0.18977,0.69007c-0.54015,4.74613 -1.833,9.3758 -3.82988,13.71514c0.0345,0.60381 0.37954,2.12196 3.31234,2.32899c10.45456,0.74183 13.3701,-0.58656 14.16368,-1.44915c0.26257,-0.26171 0.37885,-0.63625 0.31053,-1.0006c-0.10938,-1.90735 0.17856,-3.8166 0.84534,-5.60681c1.05236,-3.5021 2.05295,-7.12497 -0.67282,-11.54142c-1.0351,-1.67342 -2.05295,-3.19157 -3.01906,-4.65797c-2.9673,-4.4682 -5.38254,-8.09106 -5.9346,-12.3695c-1.27007,0.49185 -2.67023,0.53446 -3.9679,0.12077c0.59225,3.69014 1.61718,7.29766 3.05356,10.74783c0.22462,0.31674 0.2379,0.73717 0.03347,1.06737c-0.20426,0.33002 -0.58638,0.50582 -0.97007,0.44613c-0.38368,-0.05969 -0.69421,-0.34331 -0.78858,-0.71991c-1.29871,-3.06788 -2.26464,-6.26618 -2.88104,-9.54021c-0.50117,1.05391 -1.28319,1.94928 -2.25998,2.58776zM315.23106,226.32362c1.92305,-0.77736 2.91744,-2.90934 2.27723,-4.88224c-1.01785,-3.07081 -3.45034,-8.53961 -8.05656,-10.67883c-2.49892,-1.29267 -4.69282,-3.10428 -6.4349,-5.31353c-2.12921,-2.7482 -4.95159,-4.87983 -8.17732,-6.17613c-0.26792,-0.09574 -0.56448,-0.06866 -0.81066,0.07436c-0.24601,0.14302 -0.41645,0.38713 -0.46597,0.66747c-0.42353,1.76554 -2.09401,2.94073 -3.89889,2.74302h-0.37954c-0.06866,0.03813 -0.13232,0.08453 -0.18977,0.13802h-0.12077c-0.05038,0.06884 -0.09092,0.1444 -0.12077,0.22427v0.10351c-0.02743,0.13076 -0.02743,0.26602 0,0.39679c0,0.00621 0.00069,0.01794 0.00155,0.03485c0.02295,0.40628 0.21288,3.7909 -4.59051,4.51961h-0.10351l-0.18977,0.10351c-0.07797,0.05262 -0.14784,0.11662 -0.20702,0.18977v0.10351c-0.08695,0.17631 -0.11714,0.37522 -0.08626,0.5693c-0.00759,0.06884 -0.00759,0.13819 0,0.20702c0.03053,0.07953 0.07108,0.15492 0.12077,0.22427c0.1513,0.23497 0.20098,0.52135 0.13802,0.79358c-0.08626,0.48305 -0.5348,1.5009 -2.58776,2.81203c-0.08505,0.07884 -0.15509,0.17234 -0.20702,0.27603c-0.01501,0.09713 -0.01501,0.19615 0,0.29328v0.08626c0.15527,1.9322 -0.17252,4.67522 -1.0351,4.79599c-0.42388,0.05538 -0.76097,0.38282 -0.8286,0.80497c-0.0678,0.42215 0.15009,0.83843 0.53532,1.02372c1.36289,0.67282 13.49086,6.53841 17.16548,6.53841c0.67282,0 1.58716,0.08626 2.65677,0.18977c1.72517,0.15527 3.64012,0.36229 5.83109,0.36229c3.3025,0.1965 6.61294,-0.21875 9.76449,-1.22488zM296.44391,225.70256c-2.41524,0 -10.52357,-3.58836 -14.85375,-5.64132c0.69283,-1.26145 1.03804,-2.68437 1.0006,-4.12317l9.66097,4.5372c0.45907,0.14647 0.95592,-0.06798 1.16449,-0.50237c0.20858,-0.4344 0.06504,-0.95609 -0.33641,-1.2228l-9.62647,-4.5027c1.02303,-0.75476 1.75433,-1.83938 2.07021,-3.07081l9.98876,5.31353c0.47632,0.25256 1.0672,0.0709 1.31976,-0.40541c0.25256,-0.47632 0.0709,-1.0672 -0.40541,-1.31976l-9.59197,-5.17552c1.80781,-0.65505 3.18467,-2.14767 3.69188,-4.00241c2.74302,2.19097 8.45335,6.72818 9.60922,7.38374c0.47632,0.26672 1.07893,0.09678 1.34563,-0.37954c0.26672,-0.47632 0.09678,-1.07893 -0.37954,-1.34563c-0.84534,-0.48305 -5.3998,-4.05416 -9.05717,-6.9007c1.39307,-0.48426 2.53169,-1.51073 3.15707,-2.84654c2.52341,1.26248 4.73353,3.07185 6.4694,5.29628c1.89235,2.38471 4.26756,4.34244 6.96971,5.74483c3.9679,1.82869 6.03811,6.74543 7.03871,9.48846c0.31985,1.0075 -0.19184,2.09109 -1.17312,2.48425c-5.50123,2.26119 -11.13462,1.74932 -14.94639,1.40308c-0.08505,-0.00776 -0.16924,-0.01536 -0.25239,-0.02295c-1.12136,-0.08626 -2.08746,-0.18977 -2.84654,-0.18977zM227.92,210.10698c2.98524,1.73311 6.1204,3.19381 9.3677,4.36469l0.0345,-0.05176c0.47045,0.12887 0.77115,0.58812 0.70094,1.07081c-0.07021,0.48288 -0.48926,0.8374 -0.97696,0.82688h-0.27603c-3.38048,-1.2052 -6.6433,-2.71836 -9.74724,-4.51995c-2.08384,-1.18986 -4.24531,-2.23893 -6.4694,-3.13981c-0.48875,-0.18304 -0.74372,-0.72129 -0.57604,-1.21539c0.16786,-0.49426 0.698,-0.7658 1.1971,-0.6133c2.32105,0.93642 4.57482,2.03157 6.74543,3.27783z" data-paper-data="{&quot;isPathIcon&quot;:true}"></path></g></g></g><g class="watermark-group" style="opacity:0.040000010281801224"><path class="watermark-path" d="M129.52,370.3a11.88,11.88,0,0,1,2.58,5.58,12,12,0,0,1,.11,3,11.81,11.81,0,0,1-.64,2.93,12.34,12.34,0,0,1-1.41,2.72,11.65,11.65,0,0,1-2.13,2.32,12,12,0,0,1-2.64,1.69,13,13,0,0,1-2.91.9,12.47,12.47,0,0,1-3,.12,12.17,12.17,0,0,1-2.93-.64,11.8,11.8,0,0,1-2.72-1.38,12.19,12.19,0,0,1-4-4.79,11.85,11.85,0,0,1-.89-2.92,12.14,12.14,0,0,1-.13-3,11.54,11.54,0,0,1,.64-2.92,11.67,11.67,0,0,1,3.5-5,11.44,11.44,0,0,1,2.67-1.69,11.64,11.64,0,0,1,2.92-.91,10.71,10.71,0,0,1,3-.12,11.68,11.68,0,0,1,5.66,2,11.7,11.7,0,0,1,2.34,2.12m-1.4,8.76a13,13,0,0,1-1.22,2.32,9.68,9.68,0,0,1-1.81,2,7.44,7.44,0,0,1-2.38,1.37,6.17,6.17,0,0,1-5.11-.46,8.73,8.73,0,0,1-3.85-4.58,6.69,6.69,0,0,1-.34-2.66,6.09,6.09,0,0,1,.77-2.47,7.15,7.15,0,0,1,1.75-2.11,9.58,9.58,0,0,1,1.09-.81,8.23,8.23,0,0,1,1.12-.63,8.14,8.14,0,0,1,1.19-.46,12.71,12.71,0,0,1,1.32-.37l2,2.38a12.83,12.83,0,0,0-1.56.17,7.86,7.86,0,0,0-1.23.32,4.5,4.5,0,0,0-1,.49,6.41,6.41,0,0,0-.93.67,4.49,4.49,0,0,0-1.15,1.39,3.87,3.87,0,0,0-.45,1.58,4.12,4.12,0,0,0,.26,1.63,6.11,6.11,0,0,0,2.36,2.82,4.43,4.43,0,0,0,1.57.53,3.91,3.91,0,0,0,1.62-.17,4.71,4.71,0,0,0,1.57-.89,10.5,10.5,0,0,0,.83-.79,5.71,5.71,0,0,0,.65-.93,10.13,10.13,0,0,0,.54-1.14,12.24,12.24,0,0,0,.44-1.49l2,2.33m-14.46,4.55a8.86,8.86,0,0,0,2.78,2.22,9,9,0,0,0,3.29.94,9.15,9.15,0,0,0,3.39-.37,8.68,8.68,0,0,0,3.11-1.69,8.8,8.8,0,0,0,2.22-2.78,9.15,9.15,0,0,0,1-3.29,8.95,8.95,0,0,0-4.83-8.76,9,9,0,0,0-6.73-.57,9,9,0,0,0-5.33,4.47,8.94,8.94,0,0,0-.57,6.71,8.76,8.76,0,0,0,1.7,3.12"></path><path class="watermark-path" d="M147,349c-.48.12-1.09.31-1.82.57a24.37,24.37,0,0,0-2.4,1A28.35,28.35,0,0,0,140,352a20.72,20.72,0,0,0-2.71,1.94c-.7.59-1.28,1.11-1.74,1.57a15.07,15.07,0,0,0-1.1,1.22,4.09,4.09,0,0,0-.59.92,2.32,2.32,0,0,0-.22.64,1.16,1.16,0,0,0,0,.47,1.83,1.83,0,0,0,.18.29,1.15,1.15,0,0,0,1,.37,5.54,5.54,0,0,0,1.51-.38q.87-.35,1.95-.9l2.26-1.18q1.2-.65,2.49-1.29c.87-.44,1.73-.83,2.59-1.17a18.94,18.94,0,0,1,2.6-.81,9.27,9.27,0,0,1,2.46-.29,6.25,6.25,0,0,1,2.24.49,5.12,5.12,0,0,1,1.89,1.47,6.35,6.35,0,0,1,1.41,2.61,6,6,0,0,1,.09,2.6,8.3,8.3,0,0,1-.9,2.52,17.79,17.79,0,0,1-1.62,2.37,23.92,23.92,0,0,1-2,2.15c-.72.67-1.41,1.29-2.09,1.87a33.79,33.79,0,0,1-5.33,3.7,32.29,32.29,0,0,1-4.91,2.28l-3.61-4.3a21.38,21.38,0,0,0,5.39-1.87,27.2,27.2,0,0,0,5.4-3.56,21.59,21.59,0,0,0,2.38-2.27,8.67,8.67,0,0,0,1.18-1.7,2.32,2.32,0,0,0,.27-1.19,1.34,1.34,0,0,0-.28-.74,1.21,1.21,0,0,0-1-.42,4.32,4.32,0,0,0-1.55.34,15.77,15.77,0,0,0-2,.88c-.72.37-1.48.77-2.27,1.21l-2.45,1.3c-.85.45-1.7.85-2.56,1.21a22.37,22.37,0,0,1-2.54.86,10,10,0,0,1-2.43.32,5.76,5.76,0,0,1-2.2-.45,5,5,0,0,1-1.89-1.45,6.12,6.12,0,0,1-1.31-2.41,6,6,0,0,1-.1-2.41,8.28,8.28,0,0,1,.81-2.38,14.06,14.06,0,0,1,1.49-2.24,22.37,22.37,0,0,1,1.85-2.05q1-1,2-1.77c.7-.59,1.44-1.15,2.23-1.7s1.62-1.06,2.44-1.53,1.63-.91,2.43-1.3,1.58-.75,2.3-1L147,349"></path><path class="watermark-path" d="M186.76,337.57l-10.6-12.63,3.92,18.24-4.66,3.91-17.27-7,10.6,12.63-4.86,4.07-15.09-18,6.59-5.54,18.69,7.52-4.15-19.71,6.57-5.52,15.09,18-4.83,4.05"></path><path class="watermark-path" d="M208.84,313.24l-10,8.42,1.16,4.82L194.56,331l-5.68-25.89,5.42-4.55,24.51,10.09-5.42,4.55-4.55-2m-11.23,3.45,6.57-5.52-8.83-3.87,2.26,9.39"></path><path class="watermark-path" d="M227.49,281.38c-.48.12-1.09.31-1.82.57a24.37,24.37,0,0,0-2.4,1,26.11,26.11,0,0,0-2.7,1.47,20.72,20.72,0,0,0-2.71,1.94c-.7.59-1.28,1.11-1.74,1.57a13.39,13.39,0,0,0-1.1,1.22,4.29,4.29,0,0,0-.59.91,2.48,2.48,0,0,0-.22.65,1.16,1.16,0,0,0,0,.47,1.83,1.83,0,0,0,.18.29,1.15,1.15,0,0,0,1,.37,5.54,5.54,0,0,0,1.51-.38q.87-.34,2-.9l2.26-1.18q1.2-.64,2.49-1.29c.87-.44,1.73-.83,2.59-1.17a18.94,18.94,0,0,1,2.6-.81,9.27,9.27,0,0,1,2.46-.29,6.08,6.08,0,0,1,2.24.49,5.09,5.09,0,0,1,1.89,1.46,6.47,6.47,0,0,1,1.41,2.61,6.07,6.07,0,0,1,.09,2.61,8.3,8.3,0,0,1-.9,2.52,16.32,16.32,0,0,1-1.63,2.36,21.41,21.41,0,0,1-2,2.16c-.72.67-1.41,1.29-2.1,1.86a33.36,33.36,0,0,1-5.32,3.71,31.92,31.92,0,0,1-4.92,2.28l-3.6-4.3a21.38,21.38,0,0,0,5.39-1.87,27.2,27.2,0,0,0,5.4-3.56,21.59,21.59,0,0,0,2.38-2.27,8.67,8.67,0,0,0,1.18-1.7A2.32,2.32,0,0,0,231,293a1.34,1.34,0,0,0-.28-.74,1.21,1.21,0,0,0-1-.42,4.32,4.32,0,0,0-1.55.34,16.54,16.54,0,0,0-2,.88c-.71.37-1.47.77-2.26,1.21l-2.46,1.3c-.84.44-1.7.85-2.55,1.21a24.53,24.53,0,0,1-2.54.86A10,10,0,0,1,214,298a5.76,5.76,0,0,1-2.2-.45,5,5,0,0,1-1.89-1.45,6.12,6.12,0,0,1-1.31-2.41,5.78,5.78,0,0,1-.1-2.41,8,8,0,0,1,.81-2.38,14.61,14.61,0,0,1,1.49-2.25,22.26,22.26,0,0,1,1.85-2q1-1,2-1.77c.7-.59,1.44-1.15,2.23-1.7s1.62-1.06,2.44-1.53,1.63-.91,2.43-1.31,1.58-.74,2.3-1l3.5,4.16"></path><path class="watermark-path" d="M261.64,274.74l-6.29-7.5L243,277.61l6.3,7.5-4.86,4.07-15.09-18,4.85-4.08,5.49,6.55L252,263.3l-5.49-6.55,4.86-4.07,15.09,18-4.86,4.08"></path><path class="watermark-path" d="M272.18,265.9l-15.09-18,4.86-4.08,15.09,18-4.86,4.08"></path><path class="watermark-path" d="M299.65,242.85l-22.51-2.18L287.51,253l-4.85,4.08-15.1-18,5.28-4.43,22.56,2.22L285,224.5l4.83-4.06,15.09,18-5.26,4.42"></path><path class="watermark-path" d="M306.68,205.52a31.88,31.88,0,0,1,5.29-3.66,34.48,34.48,0,0,1,5.14-2.35l3.69,4.39a20.77,20.77,0,0,0-2.37.61,20.47,20.47,0,0,0-2.61,1,25.12,25.12,0,0,0-2.76,1.49,23.9,23.9,0,0,0-2.8,2,20.42,20.42,0,0,0-2.8,2.77,12.77,12.77,0,0,0-1.64,2.52,7,7,0,0,0-.68,2.24,6,6,0,0,0,.66,3.64,8.16,8.16,0,0,0,.94,1.38,9.12,9.12,0,0,0,1.08,1.07,6.39,6.39,0,0,0,1.47.91,6.73,6.73,0,0,0,1.88.48,6.54,6.54,0,0,0,2.28-.18,11.67,11.67,0,0,0,2.74-1.07,19.38,19.38,0,0,0,3.18-2.22c.57-.48,1.06-.92,1.46-1.31a14.57,14.57,0,0,0,1-1.13,11.46,11.46,0,0,0,.81-1.05l.74-1.09-1.82-2.17-5.45,4.57-3.31-3.94,10.31-8.65,7.71,9.19a29,29,0,0,1-1.67,2.43q-1,1.26-2.1,2.52c-.74.84-1.5,1.65-2.3,2.44s-1.58,1.5-2.33,2.14a31,31,0,0,1-3.59,2.61,22.55,22.55,0,0,1-3.64,1.83,15.64,15.64,0,0,1-3.63.89,10.72,10.72,0,0,1-3.49-.15,10.45,10.45,0,0,1-3.28-1.33,12.54,12.54,0,0,1-3-2.67,12,12,0,0,1-2.08-3.44,10.45,10.45,0,0,1-.71-3.5,11.14,11.14,0,0,1,.51-3.51,15.72,15.72,0,0,1,1.56-3.43,21.62,21.62,0,0,1,2.42-3.28,30.3,30.3,0,0,1,3.15-3"></path><path class="watermark-path" d="M336.91,211.59l-15.1-18,4.86-4.08,11.79,14,13.13-11,3.31,3.94-18,15.1"></path><path class="watermark-path" d="M374.54,164.71a12.28,12.28,0,0,1,2.59,4.81,10.44,10.44,0,0,1,0,5,14.62,14.62,0,0,1-2.33,5,25.55,25.55,0,0,1-4.56,4.85,26.07,26.07,0,0,1-5.6,3.67,14.79,14.79,0,0,1-5.38,1.43,10.43,10.43,0,0,1-4.94-.89,13.24,13.24,0,0,1-6.87-8.18,10.48,10.48,0,0,1,0-5,14.51,14.51,0,0,1,2.36-5,25.23,25.23,0,0,1,4.57-4.89,25,25,0,0,1,5.59-3.64,14.45,14.45,0,0,1,5.35-1.43,10.31,10.31,0,0,1,4.93.92,12.22,12.22,0,0,1,4.28,3.38m-4.91,4.11a8.36,8.36,0,0,0-2-1.72,5.5,5.5,0,0,0-2.65-.85,7.72,7.72,0,0,0-3.32.57,14.49,14.49,0,0,0-4,2.52,16.72,16.72,0,0,0-2.38,2.4,10.15,10.15,0,0,0-1.39,2.24,6.71,6.71,0,0,0-.56,2.1,5.69,5.69,0,0,0,.1,1.9,6.21,6.21,0,0,0,.61,1.69,9.85,9.85,0,0,0,1,1.44,10.48,10.48,0,0,0,1.26,1.23,6.67,6.67,0,0,0,1.57.92,6.1,6.1,0,0,0,1.85.41,6.8,6.8,0,0,0,2.15-.2,11.06,11.06,0,0,0,2.45-1,17.67,17.67,0,0,0,2.77-1.94,14.39,14.39,0,0,0,3.18-3.52,7.74,7.74,0,0,0,1.14-3.17,5.54,5.54,0,0,0-.37-2.74,8.52,8.52,0,0,0-1.36-2.3"></path><path class="watermark-path" d="M382.66,141.76A32.3,32.3,0,0,1,388,138.1a34.12,34.12,0,0,1,5.15-2.35l3.69,4.4a19.62,19.62,0,0,0-2.37.6,22.08,22.08,0,0,0-2.61,1,26,26,0,0,0-2.77,1.49,23.9,23.9,0,0,0-2.8,2,21,21,0,0,0-2.8,2.78,13.19,13.19,0,0,0-1.64,2.51,7.29,7.29,0,0,0-.68,2.24,6.36,6.36,0,0,0,.06,2,5.8,5.8,0,0,0,.61,1.68,8.12,8.12,0,0,0,.93,1.38,9.16,9.16,0,0,0,1.08,1.08,6.56,6.56,0,0,0,1.48.9,6,6,0,0,0,1.87.48,6.76,6.76,0,0,0,2.28-.17,12,12,0,0,0,2.74-1.08,18.57,18.57,0,0,0,3.18-2.22c.58-.48,1.06-.92,1.46-1.31s.75-.77,1.05-1.12.57-.72.81-1.06l.73-1.09-1.82-2.17-5.45,4.57-3.3-3.94,10.3-8.65,7.71,9.19a29,29,0,0,1-1.67,2.43q-1,1.26-2.1,2.52c-.73.84-1.5,1.66-2.3,2.44s-1.57,1.5-2.33,2.14a31,31,0,0,1-3.59,2.61,22.15,22.15,0,0,1-3.64,1.83,15.56,15.56,0,0,1-3.62.89,11,11,0,0,1-3.49-.14,10.84,10.84,0,0,1-3.28-1.33,12.82,12.82,0,0,1-3-2.68,12.12,12.12,0,0,1-2.08-3.43A10.71,10.71,0,0,1,375,155a11.18,11.18,0,0,1,.51-3.51,15.51,15.51,0,0,1,1.57-3.43,21.44,21.44,0,0,1,2.42-3.28,30.19,30.19,0,0,1,3.14-3"></path><path class="watermark-path" d="M428.63,119.31a12.26,12.26,0,0,1,2.59,4.82,10.44,10.44,0,0,1,0,5,14.53,14.53,0,0,1-2.34,5,25.29,25.29,0,0,1-4.56,4.86,26,26,0,0,1-5.59,3.67,14.84,14.84,0,0,1-5.38,1.43,10.61,10.61,0,0,1-4.95-.89,12.15,12.15,0,0,1-4.3-3.37,12,12,0,0,1-2.56-4.81,10.48,10.48,0,0,1,0-5,14.39,14.39,0,0,1,2.35-5,27.89,27.89,0,0,1,10.16-8.53,14.49,14.49,0,0,1,5.36-1.43,10.27,10.27,0,0,1,4.92.92,12.21,12.21,0,0,1,4.28,3.37m-4.91,4.12a8.17,8.17,0,0,0-2-1.72,5.58,5.58,0,0,0-2.65-.86,7.86,7.86,0,0,0-3.31.58,14.49,14.49,0,0,0-4,2.52,16.21,16.21,0,0,0-2.38,2.4,9.85,9.85,0,0,0-1.4,2.24,7,7,0,0,0-.56,2.1,6,6,0,0,0,.1,1.9,6.23,6.23,0,0,0,.62,1.69,8.49,8.49,0,0,0,1,1.44,9.18,9.18,0,0,0,1.26,1.23,6.67,6.67,0,0,0,1.57.92,6,6,0,0,0,1.84.41,6.86,6.86,0,0,0,2.16-.2,11.26,11.26,0,0,0,2.45-1,17.62,17.62,0,0,0,2.76-1.94,14.67,14.67,0,0,0,3.19-3.52,7.71,7.71,0,0,0,1.13-3.17,5.53,5.53,0,0,0-.36-2.74,8.55,8.55,0,0,0-1.37-2.3"></path></g></svg>