<?xml version="1.0" encoding="utf-8"?>
<!-- Generator: Adobe Illustrator 25.4.0, SVG Export Plug-In . SVG Version: 6.00 Build 0)  -->
<svg version="1.1" id="Layer_1" xmlns="http://www.w3.org/2000/svg" xmlns:xlink="http://www.w3.org/1999/xlink" x="0px" y="0px"
	 viewBox="0 0 225.8 153.4" style="enable-background:new 0 0 225.8 153.4;" xml:space="preserve">
<style type="text/css">
	.st0{fill:#191D37;}
	.st1{fill:#252F5C;}
	.st2{fill:#3656A2;}
</style>
<path class="st0" d="M176.2,74.4c-10.2,24.6-30.8,59.2-66.1,59.2c-35.1,0-53.4-34.3-61.9-58.8C19.5,82.7,0.8,95.7,0.8,110.4
	C0.8,134.5,51,154,112.9,154S225,134.4,225,110.4C225,95.5,205.7,82.3,176.2,74.4z"/>
<path class="st1" d="M173.1,40.9c0,14.2-28.6,25.7-63.8,25.7S45.4,55.1,45.4,40.9c0-6.9,12.7-8.5,24.6-7.5
	c23.3,2,39.6,14.5,57.8,14.5C163.1,47.9,173.1,26.8,173.1,40.9z"/>
<path class="st2" d="M44.1,27.1c0-14.2,28.6-25.7,63.8-25.7s63.8,11.5,63.8,25.7c0,6.9-12.7,8.5-24.6,7.5
	c-23.3-2-39.6-14.5-57.8-14.5C54,20.1,44.1,41.2,44.1,27.1z"/>
</svg>
