<svg xmlns:mydata="http://www.w3.org/2000/svg" mydata:contrastcolor="ffffff" mydata:template="Default" mydata:presentation="2.5" mydata:layouttype="undefined" mydata:specialfontid="undefined" mydata:id1="695" mydata:id2="695" mydata:companyname="asap" mydata:companytagline="" version="1.1" xmlns="http://www.w3.org/2000/svg" xmlns:xlink="http://www.w3.org/1999/xlink" viewBox="0 35 550 400"><g fill="#fff" fill-rule="none" stroke="none" stroke-width="1" stroke-linecap="butt" stroke-linejoin="miter" stroke-miterlimit="10" stroke-dasharray="" stroke-dashoffset="0" font-family="none" font-weight="none" font-size="none" text-anchor="none" style="mix-blend-mode: normal"><g data-paper-data="{&quot;isGlobalGroup&quot;:true,&quot;bounds&quot;:{&quot;x&quot;:180.42330265755632,&quot;y&quot;:106.00000000000001,&quot;width&quot;:189.15339468488727,&quot;height&quot;:258}}"><g data-paper-data="{&quot;isIcon&quot;:&quot;true&quot;,&quot;iconType&quot;:&quot;icon&quot;,&quot;rawIconId&quot;:&quot;429781&quot;,&quot;selectedEffects&quot;:{&quot;container&quot;:&quot;&quot;,&quot;transformation&quot;:&quot;&quot;,&quot;pattern&quot;:&quot;&quot;},&quot;combineTerms&quot;:&quot;수달&quot;,&quot;isDetailed&quot;:false,&quot;fillRule&quot;:&quot;evenodd&quot;,&quot;bounds&quot;:{&quot;x&quot;:228.59420289012954,&quot;y&quot;:185.68799158655628,&quot;width&quot;:93.32231943930836,&quot;height&quot;:69.88067553012525},&quot;iconStyle&quot;:&quot;standalone&quot;,&quot;suitableAsStandaloneIcon&quot;:true}" fill-rule="evenodd"><path d="M321.84921,215.55727c-1.89355,-2.16219 -4.49473,-2.79993 -5.59002,-2.97902c-0.00328,-0.35163 -0.02293,-0.71199 -0.06771,-1.08437c-0.01092,-0.09173 -0.03276,-0.17909 -0.05023,-0.26864c0.82556,-0.28174 3.16029,-0.82229 4.96867,1.2449c0.05569,0.06225 0.12995,0.09391 0.20639,0.09391c0.06334,0 0.12777,-0.02293 0.18018,-0.06771c0.11248,-0.09937 0.12449,-0.27191 0.02403,-0.38548c-1.96344,-2.24409 -4.52749,-1.72538 -5.50703,-1.41416c-0.18783,-0.61589 -0.50123,-1.19903 -0.91511,-1.75705c1.03086,-0.59515 3.53048,-1.70682 5.24604,0.25444c0.0546,0.06225 0.12886,0.09391 0.2053,0.09391c0.06334,0 0.12777,-0.02293 0.18018,-0.06771c0.11357,-0.09937 0.12449,-0.27191 0.02512,-0.38548c-1.99183,-2.27467 -4.89113,-0.9577 -5.99516,-0.32324c-1.60854,-1.88809 -4.34294,-3.50318 -7.18655,-5.17943c-2.15673,-1.27111 -4.38553,-2.5848 -6.04212,-4.00769c-11.72605,-10.0793 -23.48049,-14.61334 -34.94883,-13.46126c-14.54782,1.45784 -23.53946,11.67582 -25.94844,14.77277c-13.61633,17.50717 -12.40201,38.24234 -11.5961,51.96131l0.13978,2.44939c0.01419,0.29048 0.25662,0.52198 0.54491,0.52198h0.03058c0.3003,0 0.53072,-0.28065 0.51434,-0.58095l-0.13978,-2.45703c-0.79498,-13.55627 -1.9962,-34.04355 11.36787,-51.22421c2.34128,-3.01069 11.07958,-12.94255 25.19386,-14.35562c11.16039,-1.11385 22.63964,3.32409 34.12982,13.20246c1.72975,1.48623 4.00223,2.82504 6.20155,4.12017c3.81113,2.24627 7.7533,4.57008 8.08637,7.35144c0.50233,4.16603 -1.8597,6.61215 -4.35168,7.61789c0.38657,-1.82585 0.26427,-4.12345 -0.50014,-7.03803c3.52065,-1.41853 2.68089,-3.15701 0.68469,-4.69675c-1.88678,-1.45424 -3.17056,-1.27209 -5.16162,-0.98959c-0.33088,0.04696 -0.68142,0.09675 -1.0574,0.14218c-3.37869,0.40732 -5.25696,1.93614 -4.42812,4.33421c0.8474,2.44939 3.774,3.14391 8.76123,1.63365c0.06225,-0.01857 0.11248,-0.03822 0.17145,-0.05679c2.28886,8.81583 -1.71774,11.0905 -7.61462,13.26907c-3.2684,1.20558 -7.94987,1.10293 -11.50656,0.76769c4.25449,-4.64106 8.24689,-7.9586 8.32224,-8.02085c0.11466,-0.09501 0.13214,-0.26755 0.03604,-0.38439c-0.09501,-0.11575 -0.26536,-0.13323 -0.38548,-0.03604c-0.07644,0.06334 -4.25886,3.54031 -8.64657,8.37248c-0.82775,-0.08845 -1.5725,-0.18455 -2.21024,-0.27628c5.20345,-5.05166 10.01377,-8.69135 10.10441,-8.76014c0.11903,-0.09064 0.14524,-0.26099 0.0546,-0.38221c-0.09173,-0.11903 -0.26208,-0.14415 -0.38439,-0.05351c-0.09282,0.06989 -5.10408,3.86246 -10.44949,9.09648c-0.90856,-0.14196 -1.47968,-0.25225 -1.5037,-0.25771c-0.3003,-0.06334 -0.58313,0.13214 -0.6432,0.42807c-0.06115,0.29593 0.12995,0.58313 0.42807,0.6432c0.06225,0.0131 0.33525,0.06661 0.75895,0.14087c-4.32438,4.34622 -8.68807,9.53874 -10.70283,14.39493c-0.05788,0.13978 0.00764,0.29812 0.14742,0.356c0.03385,0.01529 0.0688,0.02184 0.10483,0.02184c0.10702,0 0.20858,-0.06334 0.25225,-0.16817c2.02678,-4.88677 6.48329,-10.13499 10.85244,-14.49213c0.61262,0.09937 1.39341,0.21294 2.29104,0.32214c-3.47152,3.95528 -6.90371,8.66732 -8.38012,13.13148c-0.04696,0.14305 0.03058,0.29703 0.17472,0.34399c0.0273,0.00983 0.05569,0.01419 0.08518,0.01419c0.11357,0 0.22168,-0.07098 0.25881,-0.18783c1.48405,-4.49692 5.00252,-9.26247 8.51771,-13.22757c1.56049,0.17036 3.39835,0.30795 5.28863,0.30795c0.19875,0 0.39858,-0.0131 0.59842,-0.01638c-0.68688,1.93614 -2.3926,7.25644 -2.5029,12.5396c-0.12995,6.35443 2.65796,14.39603 2.7759,14.73455c0.07972,0.22495 0.29048,0.36582 0.51653,0.36582c0.06006,0 0.11903,-0.00983 0.18018,-0.03058c0.28502,-0.09937 0.43462,-0.4106 0.33525,-0.69562c-0.02839,-0.08081 -2.84251,-8.19666 -2.71475,-14.35235c0.11357,-5.48628 2.07155,-11.18987 2.5848,-12.5942c2.03988,-0.10374 4.05028,-0.39749 5.73854,-1.01994c3.78274,-1.39669 7.06424,-2.97356 8.37575,-6.33259c1.85096,-0.54928 3.60911,-1.73958 4.71532,-3.52175c0.79171,0.47939 2.41444,1.71774 3.0216,4.08523c0.03276,0.1223 0.14305,0.2053 0.26536,0.2053c0.02293,0 0.04477,-0.00328 0.0688,-0.00873c0.14633,-0.03713 0.23369,-0.18564 0.19656,-0.33197c-0.66504,-2.59353 -2.41335,-3.91596 -3.28259,-4.4314c0.18018,-0.34399 0.33634,-0.70653 0.46738,-1.08874c0.94459,0.18455 3.12316,0.88672 4.49255,3.52939c0.04805,0.09282 0.14415,0.14742 0.24243,0.14742c0.04259,0 0.08518,-0.00983 0.12558,-0.03058c0.13323,-0.06989 0.18564,-0.23369 0.11466,-0.36801c-1.4502,-2.80429 -3.72268,-3.58727 -4.80705,-3.80567c0.14742,-0.55584 0.23478,-1.15098 0.26536,-1.7778c1.06581,0.19001 3.46933,0.8201 5.18707,2.78245c0.0546,0.06225 0.12886,0.09391 0.2053,0.09391c0.06334,0 0.12777,-0.02293 0.18018,-0.06771c0.11466,-0.10047 0.12668,-0.2741 0.0273,-0.38767zM284.93476,206.2828c0,-1.71665 -1.77234,-3.10897 -3.95746,-3.10897c-2.18512,0 -3.95746,1.39232 -3.95746,3.10897c0,1.71774 1.77234,3.11006 3.95746,3.11006c2.18512,0 3.95746,-1.39341 3.95746,-3.11006zM279.40043,206.84737c-1.4218,-0.60279 -0.93258,-3.20397 1.57687,-2.73222c3.53048,0.66176 3.66371,3.29788 3.66371,3.29788c0,0 -0.86487,-1.65112 -2.07483,-1.65877c-0.57888,-0.0036 -0.84194,0.33754 -1.10359,0.67661c-0.37696,0.48878 -0.75087,0.97353 -2.06216,0.41649zM294.12406,213.87448c-0.07426,-0.13214 -0.24352,-0.178 -0.37347,-0.10374c-1.06908,0.60498 -26.28915,14.87979 -31.34845,20.50148c-0.10047,0.11248 -0.09173,0.28502 0.02075,0.38548c0.05241,0.04696 0.11794,0.06989 0.18237,0.06989c0.07535,0 0.14851,-0.03058 0.20312,-0.09064c5.00034,-5.55508 30.95096,-20.24267 31.21195,-20.39009c0.13104,-0.07426 0.17691,-0.24134 0.10374,-0.37237zM295.2117,214.95994c0.07644,0.12886 0.03604,0.29593 -0.09173,0.37456c-0.26317,0.15943 -26.30553,16.03732 -30.18546,26.8439c-0.03931,0.11138 -0.14415,0.18018 -0.25662,0.18018c-0.03058,0 -0.06225,-0.00546 -0.09173,-0.01638c-0.14196,-0.05132 -0.21622,-0.20639 -0.1649,-0.34835c1.65877,-4.62359 7.28592,-10.59472 16.7242,-17.75288c7.01182,-5.31374 13.62397,-9.33345 13.68949,-9.37385c0.12995,-0.07644 0.29921,-0.03604 0.37675,0.09282zM296.22837,216.41559c0.12121,-0.08736 0.15288,-0.25771 0.06552,-0.38111c-0.08845,-0.1223 -0.25881,-0.15179 -0.38111,-0.06443c-0.21294,0.1507 -21.4275,15.26855 -26.20835,26.14173c-0.06115,0.13759 0.00218,0.29812 0.13978,0.35927c0.03604,0.01747 0.07316,0.02293 0.11029,0.02293c0.10483,0 0.20421,-0.06115 0.25007,-0.16271c4.71969,-10.73559 25.81194,-25.76498 26.02379,-25.91568z" data-paper-data="{&quot;isPathIcon&quot;:true}"></path></g><g data-paper-data="{&quot;isPrimaryText&quot;:true}" fill-rule="nonzero"><path d="M251.35951,134.11505c-0.76251,-2.18829 -3.20407,-3.31501 -5.4561,-2.53029c-2.23078,0.77732 -3.44345,3.17735 -2.68094,5.36564l3.24992,9.32678l2.08206,-0.72549l-0.93278,-2.67694l3.97291,-1.38436l0.93278,2.67694l2.08206,-0.72549zM246.9406,140.92017l-1.63607,-4.69526c-0.38496,-1.10477 0.20383,-2.28676 1.28735,-2.66431c1.10477,-0.38496 2.3006,0.17518 2.68556,1.27995l1.63607,4.69526z" data-paper-data="{&quot;glyphName&quot;:&quot;A&quot;,&quot;glyphIndex&quot;:0,&quot;firstGlyphOfWord&quot;:true,&quot;word&quot;:1}"></path><path d="M269.73719,136.9772v0c-0.51681,-4.65104 -5.42623,-3.81124 -5.707,-6.338c-0.07454,-0.67082 0.49193,-1.27705 1.11803,-1.34662c0.53666,-0.05963 1.02114,0.22609 1.25221,0.67579l1.4112,-1.76402c-0.71306,-0.71306 -1.77396,-1.09318 -2.892,-0.96895c-1.8783,0.20871 -3.26466,1.78888 -3.05347,3.68954c0.47954,4.31563 5.28958,2.78513 5.67967,6.29577c0.11181,1.00623 -0.71553,1.91309 -1.69941,2.02242c-0.6261,0.06957 -1.19506,-0.16149 -1.56029,-0.59628l-1.37394,1.69197c0.82735,0.72299 1.95533,1.09567 3.16281,0.9615c2.19135,-0.2435 3.90815,-2.10939 3.66217,-4.3231z" data-paper-data="{&quot;glyphName&quot;:&quot;S&quot;,&quot;glyphIndex&quot;:1,&quot;word&quot;:1}"></path><path d="M288.36342,131.82753c0.24509,-2.30433 -1.48141,-4.36587 -3.85286,-4.6181c-2.34908,-0.24985 -4.47059,1.4024 -4.71568,3.70673l-1.04463,9.82139l2.19247,0.2332l0.29982,-2.81889l4.1836,0.44498l-0.29982,2.81889l2.19247,0.2332zM281.46147,136.09361l0.52588,-4.94425c0.12374,-1.16335 1.16093,-1.98067 2.30191,-1.85931c1.16335,0.12374 2.00542,1.14094 1.88169,2.30429l-0.52588,4.94425z" data-paper-data="{&quot;glyphName&quot;:&quot;A&quot;,&quot;glyphIndex&quot;:2,&quot;word&quot;:1}"></path><path d="M303.13694,131.27968l-2.56753,-0.90482v0l-4.65871,13.21962l2.07949,0.73283l1.21141,-3.43753c0.16975,0.05982 0.31081,0.13339 0.48057,0.19321c2.75851,0.97212 5.82163,-0.47699 6.76384,-3.15062c0.95717,-2.71607 -0.55056,-5.68057 -3.30906,-6.65269zM299.90452,138.89517l2.04893,-5.81409v0l0.48804,0.17199c1.61267,0.56832 2.47211,2.32632 1.9038,3.93899c-0.56084,1.59145 -2.35502,2.48585 -3.96769,1.91754c-0.16975,-0.05982 -0.33951,-0.11965 -0.47309,-0.21443z" data-paper-data="{&quot;glyphName&quot;:&quot;P&quot;,&quot;glyphIndex&quot;:3,&quot;lastGlyphOfWord&quot;:true,&quot;word&quot;:1}"></path></g><g data-paper-data="{&quot;isMirroredPrimaryText&quot;:true}" fill-rule="nonzero"><path d="M253.23247,330.50996c0.76251,-2.18829 -0.45016,-4.58833 -2.70218,-5.37305c-2.23078,-0.77732 -4.67234,0.3494 -5.43485,2.53769l-3.24992,9.32678l2.08206,0.72549l0.93278,-2.67694l3.97291,1.38436l-0.93278,2.67694l2.08206,0.72549zM245.54143,333.09536l1.63607,-4.69526c0.38496,-1.10477 1.58079,-1.66491 2.66431,-1.28735c1.10477,0.38496 1.69356,1.56695 1.3086,2.67172l-1.63607,4.69526z" data-paper-data="{&quot;glyphName&quot;:&quot;A&quot;,&quot;glyphIndex&quot;:0,&quot;firstGlyphOfWord&quot;:true,&quot;word&quot;:1}"></path><path d="M269.03403,339.35102v0c0.51681,-4.65104 -4.45722,-4.90946 -4.17645,-7.43622c0.07454,-0.67082 0.76027,-1.13791 1.38637,-1.06834c0.53666,0.05963 0.9466,0.44474 1.07331,0.93419l1.76402,-1.4112c-0.53914,-0.8522 -1.49071,-1.45594 -2.60875,-1.58018c-1.8783,-0.20871 -3.57773,1.02858 -3.78892,2.92924c-0.47954,4.31563 4.54915,3.87838 4.15906,7.38901c-0.11181,1.00623 -1.11805,1.70935 -2.10192,1.60003c-0.6261,-0.06957 -1.13046,-0.41989 -1.39133,-0.92425l-1.71185,1.34909c0.64846,0.88698 1.66711,1.49818 2.87459,1.63235c2.19135,0.2435 4.27588,-1.2 4.52186,-3.41372z" data-paper-data="{&quot;glyphName&quot;:&quot;S&quot;,&quot;glyphIndex&quot;:1,&quot;word&quot;:1}"></path><path d="M287.76139,332.51243c-0.24509,-2.30433 -2.36661,-3.95658 -4.73806,-3.70435c-2.34908,0.24985 -4.07558,2.31139 -3.83049,4.61572l1.04463,9.82139l2.19247,-0.2332l-0.29982,-2.81889l4.1836,-0.44498l0.29982,2.81889l2.19247,-0.2332zM281.9112,338.13485l-0.52588,-4.94425c-0.12374,-1.16335 0.71833,-2.18055 1.85931,-2.30191c1.16335,-0.12374 2.20055,0.69358 2.32428,1.85693l0.52588,4.94425z" data-paper-data="{&quot;glyphName&quot;:&quot;A&quot;,&quot;glyphIndex&quot;:2,&quot;word&quot;:1}"></path><path d="M298.49319,325.54326l-2.56753,0.90482v0l4.65871,13.21962l2.07949,-0.73283l-1.21141,-3.43753c0.16975,-0.05982 0.32577,-0.09095 0.49552,-0.15077c2.75851,-0.97212 4.23632,-4.0215 3.29411,-6.69513c-0.95717,-2.71607 -3.99037,-4.08031 -6.74888,-3.10818zM300.74952,333.50273l-2.04893,-5.81409v0l0.48804,-0.17199c1.61267,-0.56832 3.38441,0.26243 3.95273,1.8751c0.56084,1.59145 -0.27617,3.41311 -1.88884,3.98143c-0.16975,0.05982 -0.33951,0.11965 -0.503,0.12955z" data-paper-data="{&quot;glyphName&quot;:&quot;P&quot;,&quot;glyphIndex&quot;:3,&quot;lastGlyphOfWord&quot;:true,&quot;word&quot;:1}"></path></g><g data-paper-data="{&quot;isContainerElementsWrapper&quot;:true}"><path d="M200.79692,253.21988v-36.01012h1.98773v36.01012z" data-paper-data="{&quot;isLeftLineConnector&quot;:true}" fill-rule="nonzero"></path><path d="M349.20326,253.21988v-36.01012h1.98773v36.01012z" data-paper-data="{&quot;isRightLineConnector&quot;:true}" fill-rule="nonzero"></path><path d="M211.47916,127.77908c-8.64396,6.94992 -15.62347,15.03026 -20.93855,24.24101c-5.50725,9.54366 -8.86893,19.69327 -10.08504,30.44881c-0.02151,0.19039 -0.03227,0.3814 -0.03227,0.57302v103.91628c0,0.19181 0.01076,0.38271 0.03227,0.57269c1.21611,10.75544 4.57778,20.90506 10.08504,30.44887c5.31504,9.21042 12.29456,17.29092 20.93855,24.2415c8.60518,6.91891 18.28094,12.25132 29.02728,15.99722c11.05505,3.85436 22.55301,5.78153 34.49387,5.78153c11.94086,0 23.43878,-1.92718 34.49376,-5.78153c10.74597,-3.7459 20.42172,-9.0783 29.02723,-15.99722c8.64409,-6.95022 15.62361,-15.03071 20.93854,-24.2415c5.50711,-9.54381 8.86884,-19.69325 10.0852,-30.44832c0.02111,-0.19072 0.03166,-0.3818 0.03166,-0.57324v-103.91628c0,-0.19141 -0.01055,-0.3822 -0.03166,-0.57237c-1.216,-10.75533 -4.57773,-20.90515 -10.0852,-30.44947c-5.31493,-9.21064 -12.29445,-17.29097 -20.93854,-24.24101c-8.60551,-6.91877 -18.28126,-12.25128 -29.02723,-15.99754c-11.05498,-3.85436 -22.5529,-5.78153 -34.49376,-5.78153c-11.94086,0 -23.43883,1.92718 -34.49392,5.78153c-10.74652,3.74626 -20.42226,9.07877 -29.02722,15.99754zM181.58425,182.59654c1.19838,-10.59886 4.51176,-20.60179 9.94014,-30.00878c5.24422,-9.08791 12.13305,-17.0624 20.66651,-23.92349c8.50331,-6.83702 18.06646,-12.10719 28.68945,-15.8105c10.93378,-3.81214 22.30709,-5.7182 34.11995,-5.7182c11.81275,0 23.18619,1.90607 34.12033,5.7182c10.62259,3.70331 20.18551,8.97348 28.68875,15.8105c8.53345,6.86119 15.42234,14.83569 20.66666,23.92349c5.42849,9.40703 8.74182,19.4097 9.93998,30.00802c0.01674,0.14828 0.02511,0.29699 0.02511,0.44614v103.91628c0,0.14922 -0.00837,0.29772 -0.02511,0.44549c-1.19816,10.59857 -4.51149,20.60133 -9.93998,30.00829c-5.24396,9.08776 -12.13285,17.06235 -20.66666,23.92376c-8.50215,6.8363 -18.06506,12.10646 -28.68875,15.8105c-10.93414,3.81214 -22.30759,5.7182 -34.12033,5.7182c-11.81256,0 -23.1859,-1.90607 -34.12,-5.7182c-10.62299,-3.70331 -20.18612,-8.97348 -28.68939,-15.8105c-8.53349,-6.86141 -15.42233,-14.83599 -20.66651,-23.92376c-5.42838,-9.40696 -8.74176,-19.4099 -9.94014,-30.00884c-0.01671,-0.14777 -0.02506,-0.29608 -0.02506,-0.44494v-103.91628c0,-0.14897 0.00835,-0.29743 0.02506,-0.44538z" data-paper-data="{&quot;isAdditionalOutlinePath&quot;:true}" fill-rule="evenodd"></path><path d="M213.88101,130.76637c-8.27121,6.65042 -14.94468,14.37358 -20.02042,23.16948c-5.24116,9.0826 -8.43987,18.73717 -9.59615,28.96374c-0.00539,0.04691 -0.00808,0.09436 -0.00808,0.14233v103.91628c0,0.04804 0.00273,0.0959 0.00819,0.14358c1.15616,10.22514 4.35484,19.87923 9.59604,28.96226c5.0753,8.79514 11.74877,16.51841 20.02039,23.16981c8.25963,6.64121 17.55539,11.76307 27.88729,15.36556c10.64552,3.71168 21.72286,5.56752 33.23203,5.56752c11.50702,0 22.5842,-1.85584 33.23154,-5.56752c10.32924,-3.60067 19.62519,-8.72253 27.88785,-15.36556c8.27067,-6.65031 14.94409,-14.37358 20.02027,-23.16981c5.24105,-9.08267 8.43973,-18.73712 9.59604,-28.96336c0.0051,-0.04986 0.00764,-0.09736 0.00764,-0.14249v-103.91628c0,-0.04531 -0.00237,-0.09055 -0.0071,-0.13572c-1.15703,-10.23071 -4.3559,-19.88748 -9.59658,-28.97029c-5.07581,-8.7959 -11.74923,-16.51908 -20.02027,-23.16954c-8.26157,-6.64281 -17.55752,-11.76474 -27.88785,-15.36578c-10.64625,-3.71168 -21.72343,-5.56752 -33.23154,-5.56752c-11.50829,0 -22.58563,1.85584 -33.23203,5.56752c-10.33051,3.6014 -19.62626,8.72333 -27.88726,15.36578zM186.24414,183.08281c1.12908,-9.9374 4.24179,-19.32188 9.33813,-28.15345c4.95181,-8.58113 11.46657,-16.11911 19.54428,-22.61393c8.08281,-6.49898 17.18151,-11.5116 27.29608,-15.03788c10.43439,-3.63816 21.29361,-5.45724 32.57766,-5.45724c11.28355,0 22.14271,1.81908 32.5775,5.45724c10.11414,3.52595 19.21282,8.53858 27.29605,15.03788c8.07813,6.4949 14.59287,14.03286 19.54421,22.61388c5.09692,8.83343 8.20971,18.21751 9.33835,28.15225v103.83679c-1.12974,9.93689 -4.24252,19.32091 -9.33835,28.15209c-4.95206,8.58149 -11.4668,16.11951 -19.54421,22.61404c-8.08468,6.50036 -17.18337,11.51302 -27.29605,15.03799c-10.43551,3.63816 -21.29468,5.45724 -32.5775,5.45724c-11.28478,0 -22.144,-1.81908 -32.57766,-5.45724c-10.11552,-3.52679 -19.2142,-8.53945 -27.29605,-15.03799c-8.07838,-6.49563 -14.59315,-14.03364 -19.54431,-22.61404c-5.09619,-8.83153 -8.2089,-18.21593 -9.33813,-28.15318z" data-paper-data="{&quot;isBaseLogoContainer&quot;:true}" fill-rule="evenodd"></path></g></g></g><g class="watermark-group" style="opacity:0.040000010281801224"><path class="watermark-path" d="M129.52,370.3a11.88,11.88,0,0,1,2.58,5.58,12,12,0,0,1,.11,3,11.81,11.81,0,0,1-.64,2.93,12.34,12.34,0,0,1-1.41,2.72,11.65,11.65,0,0,1-2.13,2.32,12,12,0,0,1-2.64,1.69,13,13,0,0,1-2.91.9,12.47,12.47,0,0,1-3,.12,12.17,12.17,0,0,1-2.93-.64,11.8,11.8,0,0,1-2.72-1.38,12.19,12.19,0,0,1-4-4.79,11.85,11.85,0,0,1-.89-2.92,12.14,12.14,0,0,1-.13-3,11.54,11.54,0,0,1,.64-2.92,11.67,11.67,0,0,1,3.5-5,11.44,11.44,0,0,1,2.67-1.69,11.64,11.64,0,0,1,2.92-.91,10.71,10.71,0,0,1,3-.12,11.68,11.68,0,0,1,5.66,2,11.7,11.7,0,0,1,2.34,2.12m-1.4,8.76a13,13,0,0,1-1.22,2.32,9.68,9.68,0,0,1-1.81,2,7.44,7.44,0,0,1-2.38,1.37,6.17,6.17,0,0,1-5.11-.46,8.73,8.73,0,0,1-3.85-4.58,6.69,6.69,0,0,1-.34-2.66,6.09,6.09,0,0,1,.77-2.47,7.15,7.15,0,0,1,1.75-2.11,9.58,9.58,0,0,1,1.09-.81,8.23,8.23,0,0,1,1.12-.63,8.14,8.14,0,0,1,1.19-.46,12.71,12.71,0,0,1,1.32-.37l2,2.38a12.83,12.83,0,0,0-1.56.17,7.86,7.86,0,0,0-1.23.32,4.5,4.5,0,0,0-1,.49,6.41,6.41,0,0,0-.93.67,4.49,4.49,0,0,0-1.15,1.39,3.87,3.87,0,0,0-.45,1.58,4.12,4.12,0,0,0,.26,1.63,6.11,6.11,0,0,0,2.36,2.82,4.43,4.43,0,0,0,1.57.53,3.91,3.91,0,0,0,1.62-.17,4.71,4.71,0,0,0,1.57-.89,10.5,10.5,0,0,0,.83-.79,5.71,5.71,0,0,0,.65-.93,10.13,10.13,0,0,0,.54-1.14,12.24,12.24,0,0,0,.44-1.49l2,2.33m-14.46,4.55a8.86,8.86,0,0,0,2.78,2.22,9,9,0,0,0,3.29.94,9.15,9.15,0,0,0,3.39-.37,8.68,8.68,0,0,0,3.11-1.69,8.8,8.8,0,0,0,2.22-2.78,9.15,9.15,0,0,0,1-3.29,8.95,8.95,0,0,0-4.83-8.76,9,9,0,0,0-6.73-.57,9,9,0,0,0-5.33,4.47,8.94,8.94,0,0,0-.57,6.71,8.76,8.76,0,0,0,1.7,3.12"></path><path class="watermark-path" d="M147,349c-.48.12-1.09.31-1.82.57a24.37,24.37,0,0,0-2.4,1A28.35,28.35,0,0,0,140,352a20.72,20.72,0,0,0-2.71,1.94c-.7.59-1.28,1.11-1.74,1.57a15.07,15.07,0,0,0-1.1,1.22,4.09,4.09,0,0,0-.59.92,2.32,2.32,0,0,0-.22.64,1.16,1.16,0,0,0,0,.47,1.83,1.83,0,0,0,.18.29,1.15,1.15,0,0,0,1,.37,5.54,5.54,0,0,0,1.51-.38q.87-.35,1.95-.9l2.26-1.18q1.2-.65,2.49-1.29c.87-.44,1.73-.83,2.59-1.17a18.94,18.94,0,0,1,2.6-.81,9.27,9.27,0,0,1,2.46-.29,6.25,6.25,0,0,1,2.24.49,5.12,5.12,0,0,1,1.89,1.47,6.35,6.35,0,0,1,1.41,2.61,6,6,0,0,1,.09,2.6,8.3,8.3,0,0,1-.9,2.52,17.79,17.79,0,0,1-1.62,2.37,23.92,23.92,0,0,1-2,2.15c-.72.67-1.41,1.29-2.09,1.87a33.79,33.79,0,0,1-5.33,3.7,32.29,32.29,0,0,1-4.91,2.28l-3.61-4.3a21.38,21.38,0,0,0,5.39-1.87,27.2,27.2,0,0,0,5.4-3.56,21.59,21.59,0,0,0,2.38-2.27,8.67,8.67,0,0,0,1.18-1.7,2.32,2.32,0,0,0,.27-1.19,1.34,1.34,0,0,0-.28-.74,1.21,1.21,0,0,0-1-.42,4.32,4.32,0,0,0-1.55.34,15.77,15.77,0,0,0-2,.88c-.72.37-1.48.77-2.27,1.21l-2.45,1.3c-.85.45-1.7.85-2.56,1.21a22.37,22.37,0,0,1-2.54.86,10,10,0,0,1-2.43.32,5.76,5.76,0,0,1-2.2-.45,5,5,0,0,1-1.89-1.45,6.12,6.12,0,0,1-1.31-2.41,6,6,0,0,1-.1-2.41,8.28,8.28,0,0,1,.81-2.38,14.06,14.06,0,0,1,1.49-2.24,22.37,22.37,0,0,1,1.85-2.05q1-1,2-1.77c.7-.59,1.44-1.15,2.23-1.7s1.62-1.06,2.44-1.53,1.63-.91,2.43-1.3,1.58-.75,2.3-1L147,349"></path><path class="watermark-path" d="M186.76,337.57l-10.6-12.63,3.92,18.24-4.66,3.91-17.27-7,10.6,12.63-4.86,4.07-15.09-18,6.59-5.54,18.69,7.52-4.15-19.71,6.57-5.52,15.09,18-4.83,4.05"></path><path class="watermark-path" d="M208.84,313.24l-10,8.42,1.16,4.82L194.56,331l-5.68-25.89,5.42-4.55,24.51,10.09-5.42,4.55-4.55-2m-11.23,3.45,6.57-5.52-8.83-3.87,2.26,9.39"></path><path class="watermark-path" d="M227.49,281.38c-.48.12-1.09.31-1.82.57a24.37,24.37,0,0,0-2.4,1,26.11,26.11,0,0,0-2.7,1.47,20.72,20.72,0,0,0-2.71,1.94c-.7.59-1.28,1.11-1.74,1.57a13.39,13.39,0,0,0-1.1,1.22,4.29,4.29,0,0,0-.59.91,2.48,2.48,0,0,0-.22.65,1.16,1.16,0,0,0,0,.47,1.83,1.83,0,0,0,.18.29,1.15,1.15,0,0,0,1,.37,5.54,5.54,0,0,0,1.51-.38q.87-.34,2-.9l2.26-1.18q1.2-.64,2.49-1.29c.87-.44,1.73-.83,2.59-1.17a18.94,18.94,0,0,1,2.6-.81,9.27,9.27,0,0,1,2.46-.29,6.08,6.08,0,0,1,2.24.49,5.09,5.09,0,0,1,1.89,1.46,6.47,6.47,0,0,1,1.41,2.61,6.07,6.07,0,0,1,.09,2.61,8.3,8.3,0,0,1-.9,2.52,16.32,16.32,0,0,1-1.63,2.36,21.41,21.41,0,0,1-2,2.16c-.72.67-1.41,1.29-2.1,1.86a33.36,33.36,0,0,1-5.32,3.71,31.92,31.92,0,0,1-4.92,2.28l-3.6-4.3a21.38,21.38,0,0,0,5.39-1.87,27.2,27.2,0,0,0,5.4-3.56,21.59,21.59,0,0,0,2.38-2.27,8.67,8.67,0,0,0,1.18-1.7A2.32,2.32,0,0,0,231,293a1.34,1.34,0,0,0-.28-.74,1.21,1.21,0,0,0-1-.42,4.32,4.32,0,0,0-1.55.34,16.54,16.54,0,0,0-2,.88c-.71.37-1.47.77-2.26,1.21l-2.46,1.3c-.84.44-1.7.85-2.55,1.21a24.53,24.53,0,0,1-2.54.86A10,10,0,0,1,214,298a5.76,5.76,0,0,1-2.2-.45,5,5,0,0,1-1.89-1.45,6.12,6.12,0,0,1-1.31-2.41,5.78,5.78,0,0,1-.1-2.41,8,8,0,0,1,.81-2.38,14.61,14.61,0,0,1,1.49-2.25,22.26,22.26,0,0,1,1.85-2q1-1,2-1.77c.7-.59,1.44-1.15,2.23-1.7s1.62-1.06,2.44-1.53,1.63-.91,2.43-1.31,1.58-.74,2.3-1l3.5,4.16"></path><path class="watermark-path" d="M261.64,274.74l-6.29-7.5L243,277.61l6.3,7.5-4.86,4.07-15.09-18,4.85-4.08,5.49,6.55L252,263.3l-5.49-6.55,4.86-4.07,15.09,18-4.86,4.08"></path><path class="watermark-path" d="M272.18,265.9l-15.09-18,4.86-4.08,15.09,18-4.86,4.08"></path><path class="watermark-path" d="M299.65,242.85l-22.51-2.18L287.51,253l-4.85,4.08-15.1-18,5.28-4.43,22.56,2.22L285,224.5l4.83-4.06,15.09,18-5.26,4.42"></path><path class="watermark-path" d="M306.68,205.52a31.88,31.88,0,0,1,5.29-3.66,34.48,34.48,0,0,1,5.14-2.35l3.69,4.39a20.77,20.77,0,0,0-2.37.61,20.47,20.47,0,0,0-2.61,1,25.12,25.12,0,0,0-2.76,1.49,23.9,23.9,0,0,0-2.8,2,20.42,20.42,0,0,0-2.8,2.77,12.77,12.77,0,0,0-1.64,2.52,7,7,0,0,0-.68,2.24,6,6,0,0,0,.66,3.64,8.16,8.16,0,0,0,.94,1.38,9.12,9.12,0,0,0,1.08,1.07,6.39,6.39,0,0,0,1.47.91,6.73,6.73,0,0,0,1.88.48,6.54,6.54,0,0,0,2.28-.18,11.67,11.67,0,0,0,2.74-1.07,19.38,19.38,0,0,0,3.18-2.22c.57-.48,1.06-.92,1.46-1.31a14.57,14.57,0,0,0,1-1.13,11.46,11.46,0,0,0,.81-1.05l.74-1.09-1.82-2.17-5.45,4.57-3.31-3.94,10.31-8.65,7.71,9.19a29,29,0,0,1-1.67,2.43q-1,1.26-2.1,2.52c-.74.84-1.5,1.65-2.3,2.44s-1.58,1.5-2.33,2.14a31,31,0,0,1-3.59,2.61,22.55,22.55,0,0,1-3.64,1.83,15.64,15.64,0,0,1-3.63.89,10.72,10.72,0,0,1-3.49-.15,10.45,10.45,0,0,1-3.28-1.33,12.54,12.54,0,0,1-3-2.67,12,12,0,0,1-2.08-3.44,10.45,10.45,0,0,1-.71-3.5,11.14,11.14,0,0,1,.51-3.51,15.72,15.72,0,0,1,1.56-3.43,21.62,21.62,0,0,1,2.42-3.28,30.3,30.3,0,0,1,3.15-3"></path><path class="watermark-path" d="M336.91,211.59l-15.1-18,4.86-4.08,11.79,14,13.13-11,3.31,3.94-18,15.1"></path><path class="watermark-path" d="M374.54,164.71a12.28,12.28,0,0,1,2.59,4.81,10.44,10.44,0,0,1,0,5,14.62,14.62,0,0,1-2.33,5,25.55,25.55,0,0,1-4.56,4.85,26.07,26.07,0,0,1-5.6,3.67,14.79,14.79,0,0,1-5.38,1.43,10.43,10.43,0,0,1-4.94-.89,13.24,13.24,0,0,1-6.87-8.18,10.48,10.48,0,0,1,0-5,14.51,14.51,0,0,1,2.36-5,25.23,25.23,0,0,1,4.57-4.89,25,25,0,0,1,5.59-3.64,14.45,14.45,0,0,1,5.35-1.43,10.31,10.31,0,0,1,4.93.92,12.22,12.22,0,0,1,4.28,3.38m-4.91,4.11a8.36,8.36,0,0,0-2-1.72,5.5,5.5,0,0,0-2.65-.85,7.72,7.72,0,0,0-3.32.57,14.49,14.49,0,0,0-4,2.52,16.72,16.72,0,0,0-2.38,2.4,10.15,10.15,0,0,0-1.39,2.24,6.71,6.71,0,0,0-.56,2.1,5.69,5.69,0,0,0,.1,1.9,6.21,6.21,0,0,0,.61,1.69,9.85,9.85,0,0,0,1,1.44,10.48,10.48,0,0,0,1.26,1.23,6.67,6.67,0,0,0,1.57.92,6.1,6.1,0,0,0,1.85.41,6.8,6.8,0,0,0,2.15-.2,11.06,11.06,0,0,0,2.45-1,17.67,17.67,0,0,0,2.77-1.94,14.39,14.39,0,0,0,3.18-3.52,7.74,7.74,0,0,0,1.14-3.17,5.54,5.54,0,0,0-.37-2.74,8.52,8.52,0,0,0-1.36-2.3"></path><path class="watermark-path" d="M382.66,141.76A32.3,32.3,0,0,1,388,138.1a34.12,34.12,0,0,1,5.15-2.35l3.69,4.4a19.62,19.62,0,0,0-2.37.6,22.08,22.08,0,0,0-2.61,1,26,26,0,0,0-2.77,1.49,23.9,23.9,0,0,0-2.8,2,21,21,0,0,0-2.8,2.78,13.19,13.19,0,0,0-1.64,2.51,7.29,7.29,0,0,0-.68,2.24,6.36,6.36,0,0,0,.06,2,5.8,5.8,0,0,0,.61,1.68,8.12,8.12,0,0,0,.93,1.38,9.16,9.16,0,0,0,1.08,1.08,6.56,6.56,0,0,0,1.48.9,6,6,0,0,0,1.87.48,6.76,6.76,0,0,0,2.28-.17,12,12,0,0,0,2.74-1.08,18.57,18.57,0,0,0,3.18-2.22c.58-.48,1.06-.92,1.46-1.31s.75-.77,1.05-1.12.57-.72.81-1.06l.73-1.09-1.82-2.17-5.45,4.57-3.3-3.94,10.3-8.65,7.71,9.19a29,29,0,0,1-1.67,2.43q-1,1.26-2.1,2.52c-.73.84-1.5,1.66-2.3,2.44s-1.57,1.5-2.33,2.14a31,31,0,0,1-3.59,2.61,22.15,22.15,0,0,1-3.64,1.83,15.56,15.56,0,0,1-3.62.89,11,11,0,0,1-3.49-.14,10.84,10.84,0,0,1-3.28-1.33,12.82,12.82,0,0,1-3-2.68,12.12,12.12,0,0,1-2.08-3.43A10.71,10.71,0,0,1,375,155a11.18,11.18,0,0,1,.51-3.51,15.51,15.51,0,0,1,1.57-3.43,21.44,21.44,0,0,1,2.42-3.28,30.19,30.19,0,0,1,3.14-3"></path><path class="watermark-path" d="M428.63,119.31a12.26,12.26,0,0,1,2.59,4.82,10.44,10.44,0,0,1,0,5,14.53,14.53,0,0,1-2.34,5,25.29,25.29,0,0,1-4.56,4.86,26,26,0,0,1-5.59,3.67,14.84,14.84,0,0,1-5.38,1.43,10.61,10.61,0,0,1-4.95-.89,12.15,12.15,0,0,1-4.3-3.37,12,12,0,0,1-2.56-4.81,10.48,10.48,0,0,1,0-5,14.39,14.39,0,0,1,2.35-5,27.89,27.89,0,0,1,10.16-8.53,14.49,14.49,0,0,1,5.36-1.43,10.27,10.27,0,0,1,4.92.92,12.21,12.21,0,0,1,4.28,3.37m-4.91,4.12a8.17,8.17,0,0,0-2-1.72,5.58,5.58,0,0,0-2.65-.86,7.86,7.86,0,0,0-3.31.58,14.49,14.49,0,0,0-4,2.52,16.21,16.21,0,0,0-2.38,2.4,9.85,9.85,0,0,0-1.4,2.24,7,7,0,0,0-.56,2.1,6,6,0,0,0,.1,1.9,6.23,6.23,0,0,0,.62,1.69,8.49,8.49,0,0,0,1,1.44,9.18,9.18,0,0,0,1.26,1.23,6.67,6.67,0,0,0,1.57.92,6,6,0,0,0,1.84.41,6.86,6.86,0,0,0,2.16-.2,11.26,11.26,0,0,0,2.45-1,17.62,17.62,0,0,0,2.76-1.94,14.67,14.67,0,0,0,3.19-3.52,7.71,7.71,0,0,0,1.13-3.17,5.53,5.53,0,0,0-.36-2.74,8.55,8.55,0,0,0-1.37-2.3"></path></g></svg>