<svg class="svg-standalone-icon" width="100%" viewBox="261.4148228878139 178.52736072187847 118.7489170357124 118.74891703571248"><g data-paper-data="{&quot;initialText&quot;:&quot;A&quot;,&quot;fillRule&quot;:&quot;nonzero&quot;,&quot;selectedEffects&quot;:{&quot;container&quot;:&quot;circle_simple_filled&quot;,&quot;transformation&quot;:&quot;&quot;,&quot;pattern&quot;:&quot;&quot;},&quot;blockLetter&quot;:&quot;O&quot;,&quot;blockLetterId&quot;:0,&quot;relativeBoundsIconToContainer&quot;:{&quot;top&quot;:-0.012026734560800108,&quot;left&quot;:0.01636889599865897},&quot;widthRatioIconToContainer&quot;:0.5763626523622486,&quot;heightRatioIconToContainer&quot;:0.8438705370339834,&quot;bounds&quot;:{&quot;x&quot;:261.4148228878139,&quot;y&quot;:178.52736072187847,&quot;width&quot;:118.7489170357124,&quot;height&quot;:118.74891703571248},&quot;isIcon&quot;:&quot;true&quot;,&quot;iconType&quot;:&quot;initial&quot;,&quot;iconStyle&quot;:&quot;icon-in-text&quot;,&quot;rawInitialId&quot;:794,&quot;line&quot;:1,&quot;iconInPrimaryText&quot;:true,&quot;suitableAsStandaloneIcon&quot;:true}" fill-rule="nonzero"><path d="M261.41482,237.90182c0,-32.79161 26.58285,-59.37446 59.37446,-59.37446c32.79161,0 59.37446,26.58285 59.37446,59.37446c0,32.79161 -26.58285,59.37446 -59.37446,59.37446c-32.79161,0 -59.37446,-26.58285 -59.37446,-59.37446zM356.84093,271.02323c-0.29913,-2.84174 -1.19652,-17.94783 -1.49565,-23.03304c0,-1.34608 -0.14956,-3.73913 -0.29913,-5.23478c0,-1.64522 -0.29913,-6.13218 -0.44869,-10.32c-0.59826,-12.11478 -0.74783,-12.41392 -1.19652,-12.56348c-0.59826,-0.14956 -0.74783,-0.29913 -0.14956,-0.74783c0.44869,-0.29913 0.44869,-0.59826 0.14956,-2.84174c-0.14956,-1.34608 -0.29913,-2.9913 -0.44869,-3.58957c-0.89739,-7.7774 -2.9913,-17.34957 -9.57218,-22.28522c-1.64522,-1.49565 -5.23478,-3.29044 -6.58087,-3.44c-0.44869,0 -1.04696,-0.14956 -1.19652,-0.29913c-0.29913,-0.14956 -1.19652,-0.29913 -2.39305,-0.29913c-8.82435,0 -14.95653,5.98261 -20.19131,12.41392c-2.69217,3.29044 -3.14087,3.88869 -2.39305,4.03826c0.14956,0.14956 0,0.14956 -0.44869,0.14956c-0.44869,0 -1.04696,0.59826 -2.54261,2.69217c-5.98261,8.37565 -9.72174,15.55478 -13.01217,25.42609c-1.34608,3.73913 -3.58957,11.96522 -3.88869,14.05914c0,0.44869 -0.29913,1.49565 -0.44869,2.09391c-1.34608,5.98261 -2.39305,24.37913 -1.34608,24.9774c0.29913,0.14956 0.29913,0.29913 0.14956,0.29913c-0.29913,0 -0.29913,0.74783 -0.29913,2.84174c0.14956,2.9913 0.44869,4.03826 1.19652,4.33739c0.29913,0 0.59826,0.14956 0.44869,0.44869c0,0.29913 1.04696,1.94435 1.49565,2.24348c0.14956,0.14956 0.44869,0.14956 0.59826,0.14956c-0.29913,0.44869 3.88869,3.29044 4.93565,3.29044c0.29913,0 0.59826,0.14956 0.59826,0.44869c0.14956,0.14956 0.74783,0.29913 1.34608,0.29913c0.59826,0 1.34608,-0.14956 1.49565,-0.29913c0.14956,-0.14956 0.44869,-0.29913 0.74783,-0.29913c1.49565,-0.14956 5.98261,-2.09391 8.52522,-3.58957c2.69217,-1.64522 3.29044,-2.54261 3.29044,-5.53391c0,-1.34608 -0.29913,-2.84174 -0.59826,-4.03826c-0.29913,-1.04696 -0.44869,-2.54261 -0.44869,-3.14087l0.14956,-1.19652l2.54261,-0.89739c7.92696,-2.84174 13.90957,-4.93565 14.2087,-4.93565c0.14956,0 0.44869,1.34608 0.59826,3.58957c0.59826,5.98261 1.64522,17.79827 10.02087,17.79827c2.9913,0 7.17913,-0.59826 9.42261,-2.39305c0.44869,-0.44869 1.04696,-0.89739 1.34608,-1.04696c0.29913,-0.14956 0.59826,-0.29913 0.59826,-0.59826c0,-0.14956 0.29913,-0.29913 0.74783,-0.44869c0.44869,-0.14956 1.49565,-0.89739 2.54261,-1.94435c2.39305,-2.09391 2.54261,-2.69217 2.24348,-6.58087zM291.48092,278.65106c-0.29913,0 -0.29913,-0.14956 -0.29913,-0.44869c0.14956,-0.14956 0.29913,-0.29913 0.29913,-0.29913c0,0 0.14956,0.14956 0.29913,0.29913c0,0.29913 0,0.44869 -0.29913,0.44869zM291.33136,274.76236c-0.44869,0.14956 -0.59826,0.14956 -0.89739,0.14956c-0.44869,0 -0.44869,-0.29913 -0.14956,-0.74783c0.14956,-0.29913 0.29913,-0.29913 0.44869,-0.29913c0.14956,0 0.29913,0 0.44869,0.14956c0.89739,0.29913 0.89739,0.59826 0.14956,0.74783zM291.92961,251.72931c-0.14956,0 -0.29913,-0.14956 -0.44869,-0.29913c-0.14956,-0.14956 0,-0.14956 0.29913,-0.14956c0.14956,0 0.29913,0 0.29913,0.14956c0,0.14956 0,0.29913 -0.14956,0.29913zM295.81831,279.39888c-0.29913,0 -0.44869,0 -0.44869,-0.14956c0,-0.14956 0.14956,-0.29913 0.14956,-0.29913c0.14956,0 0.44869,0.14956 0.44869,0.29913c0.14956,0.14956 0,0.14956 -0.14956,0.14956zM296.71571,284.4841c-0.14956,0 -0.29913,-0.14956 -0.29913,-0.29913c0,-0.14956 0.14956,-0.14956 0.29913,-0.14956c0.14956,0 0.14956,0 0.14956,0.14956c0,0.14956 0,0.29913 -0.14956,0.29913zM302.99745,282.53975c-0.14956,-0.29913 0,-0.44869 0.14956,-0.44869c0.29913,0 0.44869,0.14956 0.44869,0.29913c0,0.44869 -0.44869,0.59826 -0.59826,0.14956zM311.52266,277.6041c-0.14956,0 -0.14956,-0.14956 -0.14956,-0.29913c0.29913,0 0.44869,0.14956 0.44869,0.14956c0,0.14956 -0.14956,0.14956 -0.29913,0.14956zM312.42005,275.06149c0,0.14956 -0.14956,0.44869 -0.14956,0.44869c-0.14956,0 -0.14956,-0.29913 -0.14956,-0.44869c0,-0.14956 0.14956,-0.44869 0.29913,-0.44869c0.14956,0 0.14956,0.29913 0,0.44869zM326.32962,190.10843c0.29913,0 0.44869,0 0.44869,0.14956c0,0.14956 -0.14956,0.29913 -0.44869,0.29913c-0.14956,0 -0.29913,-0.14956 -0.29913,-0.14956c0,0 0.14956,-0.14956 0.29913,-0.29913zM324.83397,246.1954c-0.14956,0.29913 -0.29913,0.44869 -0.44869,0.44869c-0.14956,0 -0.29913,-0.29913 -0.29913,-0.74783c0,-0.59826 0.14956,-0.74783 0.59826,-0.74783c0.59826,0 0.59826,0.29913 0.14956,1.04696zM323.48788,239.31539c-5.68348,1.94435 -5.53391,1.79478 -5.53391,1.49565c0,-1.79478 7.02957,-16.30261 8.52522,-17.2c0.29913,-0.14956 0.44869,1.49565 0.74783,7.62782c0.14956,2.69217 0.44869,5.38435 0.44869,5.68348l0.14956,0.89739zM334.25658,277.75366c0,0.29913 -0.14956,0.44869 -0.29913,0.44869c-0.14956,0 -0.29913,-0.29913 -0.29913,-0.59826c0,-0.29913 0.14956,-0.59826 0.29913,-0.59826c0.29913,0 0.44869,0.29913 0.29913,0.74783zM335.00441,266.53627c-0.14956,0.14956 -0.44869,0 -0.59826,-0.14956c-0.14956,-0.29913 -0.29913,-0.29913 -0.44869,0c-0.14956,0.14956 -0.44869,0.29913 -0.59826,0.29913c-0.29913,0 -0.44869,-0.59826 -0.14956,-1.34608c0.14956,-0.29913 0.29913,-0.59826 0.44869,-0.59826c0.14956,0 0.44869,0.29913 0.89739,0.89739c0.59826,0.44869 0.59826,0.74783 0.44869,0.89739zM337.24789,231.9867c-0.14956,0 -0.29913,-0.14956 -0.29913,-0.29913c0,0 0.14956,-0.14956 0.29913,-0.14956c0.29913,0 0.44869,0.14956 0.44869,0.14956c0,0.14956 -0.14956,0.29913 -0.44869,0.29913zM338.44441,269.67714c-0.14956,0 -0.29913,-0.29913 -0.29913,-0.59826c0,-0.29913 0.14956,-0.59826 0.14956,-0.59826c0,0 0.14956,0.29913 0.29913,0.59826c0,0.29913 0,0.59826 -0.14956,0.59826zM340.68788,259.50671c0,0.14956 -0.29913,0.29913 -0.44869,0.29913c-0.14956,0 -0.14956,-0.14956 0,-0.29913c0,-0.14956 0.29913,-0.29913 0.44869,-0.29913c0.14956,0 0.14956,0.14956 0,0.29913zM343.52962,276.70671c-0.14956,0.44869 -0.74783,-0.14956 -0.74783,-0.74783c0,-0.29913 0,-0.29913 0.44869,0.14956c0.14956,0.14956 0.29913,0.44869 0.29913,0.59826zM344.72615,272.51888c-0.29913,0.29913 -0.44869,0.14956 -0.44869,-0.14956c-0.14956,-0.14956 -0.29913,-0.29913 -0.59826,-0.14956c-0.14956,0 -0.14956,0 0,-0.29913c0,-0.29913 0.14956,-0.59826 0.14956,-0.74783c0,-0.14956 0.14956,0 0.59826,0.44869c0.29913,0.44869 0.44869,0.74783 0.29913,0.89739zM350.40963,261.00235c-0.29913,0.14956 -0.59826,-0.14956 -0.74783,-0.29913c-0.14956,-0.29913 -0.14956,-0.44869 0,-0.44869c0.14956,0 0.44869,0.14956 0.74783,0.44869c0.29913,0.29913 0.29913,0.29913 0,0.29913zM354.59745,270.87366c0,0.29913 -0.14956,0.29913 -0.14956,-0.14956c0,-0.29913 -0.29913,-0.59826 -0.44869,-0.59826c0,0 -0.14956,0 -0.14956,0.29913c0,0.14956 0,0.29913 -0.14956,0.29913c-0.14956,0 -0.29913,-0.29913 -0.29913,-0.44869c0,-0.29913 0.14956,-0.44869 0.29913,-0.44869c0.14956,0 0.14956,-0.14956 0.14956,-0.29913c0,-0.29913 0.14956,-0.44869 0.29913,-0.44869c0.14956,0 0.29913,0.29913 0.44869,0.59826c0.14956,0.44869 0.14956,0.89739 0,1.19652z" data-paper-data="{&quot;isPathIcon&quot;:true}" style="fill: rgb(255, 255, 255);"></path></g></svg>